G04 #@! TF.GenerationSoftware,KiCad,Pcbnew,(5.1.4-0-10_14)*
G04 #@! TF.CreationDate,2020-04-22T11:02:22-07:00*
G04 #@! TF.ProjectId,ServoPower2,53657276-6f50-46f7-9765-72322e6b6963,rev?*
G04 #@! TF.SameCoordinates,Original*
G04 #@! TF.FileFunction,Soldermask,Bot*
G04 #@! TF.FilePolarity,Negative*
%FSLAX46Y46*%
G04 Gerber Fmt 4.6, Leading zero omitted, Abs format (unit mm)*
G04 Created by KiCad (PCBNEW (5.1.4-0-10_14)) date 2020-04-22 11:02:22*
%MOMM*%
%LPD*%
G04 APERTURE LIST*
%ADD10C,0.100000*%
G04 APERTURE END LIST*
D10*
G36*
X167750442Y-115945518D02*
G01*
X167816627Y-115952037D01*
X167986466Y-116003557D01*
X168142991Y-116087222D01*
X168178729Y-116116552D01*
X168280186Y-116199814D01*
X168363448Y-116301271D01*
X168392778Y-116337009D01*
X168476443Y-116493534D01*
X168527963Y-116663373D01*
X168545359Y-116840000D01*
X168527963Y-117016627D01*
X168476443Y-117186466D01*
X168392778Y-117342991D01*
X168386205Y-117351000D01*
X168280186Y-117480186D01*
X168178729Y-117563448D01*
X168142991Y-117592778D01*
X167986466Y-117676443D01*
X167816627Y-117727963D01*
X167750442Y-117734482D01*
X167684260Y-117741000D01*
X167595740Y-117741000D01*
X167529558Y-117734482D01*
X167463373Y-117727963D01*
X167293534Y-117676443D01*
X167137009Y-117592778D01*
X167101271Y-117563448D01*
X166999814Y-117480186D01*
X166893795Y-117351000D01*
X166887222Y-117342991D01*
X166803557Y-117186466D01*
X166752037Y-117016627D01*
X166734641Y-116840000D01*
X166752037Y-116663373D01*
X166803557Y-116493534D01*
X166887222Y-116337009D01*
X166916552Y-116301271D01*
X166999814Y-116199814D01*
X167101271Y-116116552D01*
X167137009Y-116087222D01*
X167293534Y-116003557D01*
X167463373Y-115952037D01*
X167529558Y-115945518D01*
X167595740Y-115939000D01*
X167684260Y-115939000D01*
X167750442Y-115945518D01*
X167750442Y-115945518D01*
G37*
G36*
X165210442Y-115945518D02*
G01*
X165276627Y-115952037D01*
X165446466Y-116003557D01*
X165602991Y-116087222D01*
X165638729Y-116116552D01*
X165740186Y-116199814D01*
X165823448Y-116301271D01*
X165852778Y-116337009D01*
X165936443Y-116493534D01*
X165987963Y-116663373D01*
X166005359Y-116840000D01*
X165987963Y-117016627D01*
X165936443Y-117186466D01*
X165852778Y-117342991D01*
X165846205Y-117351000D01*
X165740186Y-117480186D01*
X165638729Y-117563448D01*
X165602991Y-117592778D01*
X165446466Y-117676443D01*
X165276627Y-117727963D01*
X165210442Y-117734482D01*
X165144260Y-117741000D01*
X165055740Y-117741000D01*
X164989558Y-117734482D01*
X164923373Y-117727963D01*
X164753534Y-117676443D01*
X164597009Y-117592778D01*
X164561271Y-117563448D01*
X164459814Y-117480186D01*
X164353795Y-117351000D01*
X164347222Y-117342991D01*
X164263557Y-117186466D01*
X164212037Y-117016627D01*
X164194641Y-116840000D01*
X164212037Y-116663373D01*
X164263557Y-116493534D01*
X164347222Y-116337009D01*
X164376552Y-116301271D01*
X164459814Y-116199814D01*
X164561271Y-116116552D01*
X164597009Y-116087222D01*
X164753534Y-116003557D01*
X164923373Y-115952037D01*
X164989558Y-115945518D01*
X165055740Y-115939000D01*
X165144260Y-115939000D01*
X165210442Y-115945518D01*
X165210442Y-115945518D01*
G37*
G36*
X159353297Y-111277704D02*
G01*
X159627637Y-111360924D01*
X159880462Y-111496062D01*
X160102070Y-111677930D01*
X160283938Y-111899538D01*
X160419076Y-112152363D01*
X160502296Y-112426703D01*
X160531000Y-112718140D01*
X160531000Y-115881860D01*
X160502296Y-116173297D01*
X160419076Y-116447637D01*
X160283938Y-116700462D01*
X160102070Y-116922070D01*
X159880462Y-117103938D01*
X159627637Y-117239076D01*
X159353297Y-117322296D01*
X159061860Y-117351000D01*
X155898140Y-117351000D01*
X155606703Y-117322296D01*
X155332363Y-117239076D01*
X155079538Y-117103938D01*
X154857930Y-116922070D01*
X154676062Y-116700462D01*
X154540924Y-116447637D01*
X154457704Y-116173297D01*
X154429000Y-115881860D01*
X154429000Y-112718140D01*
X154457704Y-112426703D01*
X154540924Y-112152363D01*
X154676062Y-111899538D01*
X154857930Y-111677930D01*
X155079538Y-111496062D01*
X155332363Y-111360924D01*
X155606703Y-111277704D01*
X155898140Y-111249000D01*
X159061860Y-111249000D01*
X159353297Y-111277704D01*
X159353297Y-111277704D01*
G37*
G36*
X151169943Y-111366248D02*
G01*
X151725189Y-111596238D01*
X151725190Y-111596239D01*
X152224899Y-111930134D01*
X152649866Y-112355101D01*
X152649867Y-112355103D01*
X152983762Y-112854811D01*
X153213752Y-113410057D01*
X153331000Y-113999501D01*
X153331000Y-114600499D01*
X153213752Y-115189943D01*
X152983762Y-115745189D01*
X152983761Y-115745190D01*
X152649866Y-116244899D01*
X152224899Y-116669866D01*
X151973347Y-116837948D01*
X151725189Y-117003762D01*
X151169943Y-117233752D01*
X150580499Y-117351000D01*
X149979501Y-117351000D01*
X149390057Y-117233752D01*
X148834811Y-117003762D01*
X148586653Y-116837948D01*
X148335101Y-116669866D01*
X147910134Y-116244899D01*
X147576239Y-115745190D01*
X147576238Y-115745189D01*
X147346248Y-115189943D01*
X147229000Y-114600499D01*
X147229000Y-113999501D01*
X147346248Y-113410057D01*
X147576238Y-112854811D01*
X147910133Y-112355103D01*
X147910134Y-112355101D01*
X148335101Y-111930134D01*
X148834810Y-111596239D01*
X148834811Y-111596238D01*
X149390057Y-111366248D01*
X149979501Y-111249000D01*
X150580499Y-111249000D01*
X151169943Y-111366248D01*
X151169943Y-111366248D01*
G37*
G36*
X165210443Y-113405519D02*
G01*
X165276627Y-113412037D01*
X165446466Y-113463557D01*
X165602991Y-113547222D01*
X165638729Y-113576552D01*
X165740186Y-113659814D01*
X165823448Y-113761271D01*
X165852778Y-113797009D01*
X165936443Y-113953534D01*
X165987963Y-114123373D01*
X166005359Y-114300000D01*
X165987963Y-114476627D01*
X165936443Y-114646466D01*
X165852778Y-114802991D01*
X165823448Y-114838729D01*
X165740186Y-114940186D01*
X165638729Y-115023448D01*
X165602991Y-115052778D01*
X165446466Y-115136443D01*
X165276627Y-115187963D01*
X165210442Y-115194482D01*
X165144260Y-115201000D01*
X165055740Y-115201000D01*
X164989558Y-115194482D01*
X164923373Y-115187963D01*
X164753534Y-115136443D01*
X164597009Y-115052778D01*
X164561271Y-115023448D01*
X164459814Y-114940186D01*
X164376552Y-114838729D01*
X164347222Y-114802991D01*
X164263557Y-114646466D01*
X164212037Y-114476627D01*
X164194641Y-114300000D01*
X164212037Y-114123373D01*
X164263557Y-113953534D01*
X164347222Y-113797009D01*
X164376552Y-113761271D01*
X164459814Y-113659814D01*
X164561271Y-113576552D01*
X164597009Y-113547222D01*
X164753534Y-113463557D01*
X164923373Y-113412037D01*
X164989557Y-113405519D01*
X165055740Y-113399000D01*
X165144260Y-113399000D01*
X165210443Y-113405519D01*
X165210443Y-113405519D01*
G37*
G36*
X167750443Y-113405519D02*
G01*
X167816627Y-113412037D01*
X167986466Y-113463557D01*
X168142991Y-113547222D01*
X168178729Y-113576552D01*
X168280186Y-113659814D01*
X168363448Y-113761271D01*
X168392778Y-113797009D01*
X168476443Y-113953534D01*
X168527963Y-114123373D01*
X168545359Y-114300000D01*
X168527963Y-114476627D01*
X168476443Y-114646466D01*
X168392778Y-114802991D01*
X168363448Y-114838729D01*
X168280186Y-114940186D01*
X168178729Y-115023448D01*
X168142991Y-115052778D01*
X167986466Y-115136443D01*
X167816627Y-115187963D01*
X167750442Y-115194482D01*
X167684260Y-115201000D01*
X167595740Y-115201000D01*
X167529558Y-115194482D01*
X167463373Y-115187963D01*
X167293534Y-115136443D01*
X167137009Y-115052778D01*
X167101271Y-115023448D01*
X166999814Y-114940186D01*
X166916552Y-114838729D01*
X166887222Y-114802991D01*
X166803557Y-114646466D01*
X166752037Y-114476627D01*
X166734641Y-114300000D01*
X166752037Y-114123373D01*
X166803557Y-113953534D01*
X166887222Y-113797009D01*
X166916552Y-113761271D01*
X166999814Y-113659814D01*
X167101271Y-113576552D01*
X167137009Y-113547222D01*
X167293534Y-113463557D01*
X167463373Y-113412037D01*
X167529557Y-113405519D01*
X167595740Y-113399000D01*
X167684260Y-113399000D01*
X167750443Y-113405519D01*
X167750443Y-113405519D01*
G37*
G36*
X167750442Y-110865518D02*
G01*
X167816627Y-110872037D01*
X167986466Y-110923557D01*
X168142991Y-111007222D01*
X168178729Y-111036552D01*
X168280186Y-111119814D01*
X168363448Y-111221271D01*
X168392778Y-111257009D01*
X168476443Y-111413534D01*
X168527963Y-111583373D01*
X168545359Y-111760000D01*
X168527963Y-111936627D01*
X168476443Y-112106466D01*
X168392778Y-112262991D01*
X168363448Y-112298729D01*
X168280186Y-112400186D01*
X168178729Y-112483448D01*
X168142991Y-112512778D01*
X167986466Y-112596443D01*
X167816627Y-112647963D01*
X167750442Y-112654482D01*
X167684260Y-112661000D01*
X167595740Y-112661000D01*
X167529558Y-112654482D01*
X167463373Y-112647963D01*
X167293534Y-112596443D01*
X167137009Y-112512778D01*
X167101271Y-112483448D01*
X166999814Y-112400186D01*
X166916552Y-112298729D01*
X166887222Y-112262991D01*
X166803557Y-112106466D01*
X166752037Y-111936627D01*
X166734641Y-111760000D01*
X166752037Y-111583373D01*
X166803557Y-111413534D01*
X166887222Y-111257009D01*
X166916552Y-111221271D01*
X166999814Y-111119814D01*
X167101271Y-111036552D01*
X167137009Y-111007222D01*
X167293534Y-110923557D01*
X167463373Y-110872037D01*
X167529558Y-110865518D01*
X167595740Y-110859000D01*
X167684260Y-110859000D01*
X167750442Y-110865518D01*
X167750442Y-110865518D01*
G37*
G36*
X165210442Y-110865518D02*
G01*
X165276627Y-110872037D01*
X165446466Y-110923557D01*
X165602991Y-111007222D01*
X165638729Y-111036552D01*
X165740186Y-111119814D01*
X165823448Y-111221271D01*
X165852778Y-111257009D01*
X165936443Y-111413534D01*
X165987963Y-111583373D01*
X166005359Y-111760000D01*
X165987963Y-111936627D01*
X165936443Y-112106466D01*
X165852778Y-112262991D01*
X165823448Y-112298729D01*
X165740186Y-112400186D01*
X165638729Y-112483448D01*
X165602991Y-112512778D01*
X165446466Y-112596443D01*
X165276627Y-112647963D01*
X165210442Y-112654482D01*
X165144260Y-112661000D01*
X165055740Y-112661000D01*
X164989558Y-112654482D01*
X164923373Y-112647963D01*
X164753534Y-112596443D01*
X164597009Y-112512778D01*
X164561271Y-112483448D01*
X164459814Y-112400186D01*
X164376552Y-112298729D01*
X164347222Y-112262991D01*
X164263557Y-112106466D01*
X164212037Y-111936627D01*
X164194641Y-111760000D01*
X164212037Y-111583373D01*
X164263557Y-111413534D01*
X164347222Y-111257009D01*
X164376552Y-111221271D01*
X164459814Y-111119814D01*
X164561271Y-111036552D01*
X164597009Y-111007222D01*
X164753534Y-110923557D01*
X164923373Y-110872037D01*
X164989558Y-110865518D01*
X165055740Y-110859000D01*
X165144260Y-110859000D01*
X165210442Y-110865518D01*
X165210442Y-110865518D01*
G37*
G36*
X165210443Y-108325519D02*
G01*
X165276627Y-108332037D01*
X165446466Y-108383557D01*
X165602991Y-108467222D01*
X165638729Y-108496552D01*
X165740186Y-108579814D01*
X165823448Y-108681271D01*
X165852778Y-108717009D01*
X165936443Y-108873534D01*
X165987963Y-109043373D01*
X166005359Y-109220000D01*
X165987963Y-109396627D01*
X165936443Y-109566466D01*
X165852778Y-109722991D01*
X165823448Y-109758729D01*
X165740186Y-109860186D01*
X165638729Y-109943448D01*
X165602991Y-109972778D01*
X165446466Y-110056443D01*
X165276627Y-110107963D01*
X165210443Y-110114481D01*
X165144260Y-110121000D01*
X165055740Y-110121000D01*
X164989557Y-110114481D01*
X164923373Y-110107963D01*
X164753534Y-110056443D01*
X164597009Y-109972778D01*
X164561271Y-109943448D01*
X164459814Y-109860186D01*
X164376552Y-109758729D01*
X164347222Y-109722991D01*
X164263557Y-109566466D01*
X164212037Y-109396627D01*
X164194641Y-109220000D01*
X164212037Y-109043373D01*
X164263557Y-108873534D01*
X164347222Y-108717009D01*
X164376552Y-108681271D01*
X164459814Y-108579814D01*
X164561271Y-108496552D01*
X164597009Y-108467222D01*
X164753534Y-108383557D01*
X164923373Y-108332037D01*
X164989557Y-108325519D01*
X165055740Y-108319000D01*
X165144260Y-108319000D01*
X165210443Y-108325519D01*
X165210443Y-108325519D01*
G37*
G36*
X167750443Y-108325519D02*
G01*
X167816627Y-108332037D01*
X167986466Y-108383557D01*
X168142991Y-108467222D01*
X168178729Y-108496552D01*
X168280186Y-108579814D01*
X168363448Y-108681271D01*
X168392778Y-108717009D01*
X168476443Y-108873534D01*
X168527963Y-109043373D01*
X168545359Y-109220000D01*
X168527963Y-109396627D01*
X168476443Y-109566466D01*
X168392778Y-109722991D01*
X168363448Y-109758729D01*
X168280186Y-109860186D01*
X168178729Y-109943448D01*
X168142991Y-109972778D01*
X167986466Y-110056443D01*
X167816627Y-110107963D01*
X167750443Y-110114481D01*
X167684260Y-110121000D01*
X167595740Y-110121000D01*
X167529557Y-110114481D01*
X167463373Y-110107963D01*
X167293534Y-110056443D01*
X167137009Y-109972778D01*
X167101271Y-109943448D01*
X166999814Y-109860186D01*
X166916552Y-109758729D01*
X166887222Y-109722991D01*
X166803557Y-109566466D01*
X166752037Y-109396627D01*
X166734641Y-109220000D01*
X166752037Y-109043373D01*
X166803557Y-108873534D01*
X166887222Y-108717009D01*
X166916552Y-108681271D01*
X166999814Y-108579814D01*
X167101271Y-108496552D01*
X167137009Y-108467222D01*
X167293534Y-108383557D01*
X167463373Y-108332037D01*
X167529557Y-108325519D01*
X167595740Y-108319000D01*
X167684260Y-108319000D01*
X167750443Y-108325519D01*
X167750443Y-108325519D01*
G37*
G36*
X167750443Y-105785519D02*
G01*
X167816627Y-105792037D01*
X167986466Y-105843557D01*
X168142991Y-105927222D01*
X168178729Y-105956552D01*
X168280186Y-106039814D01*
X168363448Y-106141271D01*
X168392778Y-106177009D01*
X168476443Y-106333534D01*
X168527963Y-106503373D01*
X168545359Y-106680000D01*
X168527963Y-106856627D01*
X168476443Y-107026466D01*
X168392778Y-107182991D01*
X168363448Y-107218729D01*
X168280186Y-107320186D01*
X168178729Y-107403448D01*
X168142991Y-107432778D01*
X167986466Y-107516443D01*
X167816627Y-107567963D01*
X167750443Y-107574481D01*
X167684260Y-107581000D01*
X167595740Y-107581000D01*
X167529557Y-107574481D01*
X167463373Y-107567963D01*
X167293534Y-107516443D01*
X167137009Y-107432778D01*
X167101271Y-107403448D01*
X166999814Y-107320186D01*
X166916552Y-107218729D01*
X166887222Y-107182991D01*
X166803557Y-107026466D01*
X166752037Y-106856627D01*
X166734641Y-106680000D01*
X166752037Y-106503373D01*
X166803557Y-106333534D01*
X166887222Y-106177009D01*
X166916552Y-106141271D01*
X166999814Y-106039814D01*
X167101271Y-105956552D01*
X167137009Y-105927222D01*
X167293534Y-105843557D01*
X167463373Y-105792037D01*
X167529557Y-105785519D01*
X167595740Y-105779000D01*
X167684260Y-105779000D01*
X167750443Y-105785519D01*
X167750443Y-105785519D01*
G37*
G36*
X165210443Y-105785519D02*
G01*
X165276627Y-105792037D01*
X165446466Y-105843557D01*
X165602991Y-105927222D01*
X165638729Y-105956552D01*
X165740186Y-106039814D01*
X165823448Y-106141271D01*
X165852778Y-106177009D01*
X165936443Y-106333534D01*
X165987963Y-106503373D01*
X166005359Y-106680000D01*
X165987963Y-106856627D01*
X165936443Y-107026466D01*
X165852778Y-107182991D01*
X165823448Y-107218729D01*
X165740186Y-107320186D01*
X165638729Y-107403448D01*
X165602991Y-107432778D01*
X165446466Y-107516443D01*
X165276627Y-107567963D01*
X165210443Y-107574481D01*
X165144260Y-107581000D01*
X165055740Y-107581000D01*
X164989557Y-107574481D01*
X164923373Y-107567963D01*
X164753534Y-107516443D01*
X164597009Y-107432778D01*
X164561271Y-107403448D01*
X164459814Y-107320186D01*
X164376552Y-107218729D01*
X164347222Y-107182991D01*
X164263557Y-107026466D01*
X164212037Y-106856627D01*
X164194641Y-106680000D01*
X164212037Y-106503373D01*
X164263557Y-106333534D01*
X164347222Y-106177009D01*
X164376552Y-106141271D01*
X164459814Y-106039814D01*
X164561271Y-105956552D01*
X164597009Y-105927222D01*
X164753534Y-105843557D01*
X164923373Y-105792037D01*
X164989557Y-105785519D01*
X165055740Y-105779000D01*
X165144260Y-105779000D01*
X165210443Y-105785519D01*
X165210443Y-105785519D01*
G37*
G36*
X155050443Y-103245519D02*
G01*
X155116627Y-103252037D01*
X155286466Y-103303557D01*
X155442991Y-103387222D01*
X155478729Y-103416552D01*
X155580186Y-103499814D01*
X155663448Y-103601271D01*
X155692778Y-103637009D01*
X155776443Y-103793534D01*
X155827963Y-103963373D01*
X155845359Y-104140000D01*
X155827963Y-104316627D01*
X155776443Y-104486466D01*
X155692778Y-104642991D01*
X155663448Y-104678729D01*
X155580186Y-104780186D01*
X155478729Y-104863448D01*
X155442991Y-104892778D01*
X155286466Y-104976443D01*
X155116627Y-105027963D01*
X155050442Y-105034482D01*
X154984260Y-105041000D01*
X154895740Y-105041000D01*
X154829557Y-105034481D01*
X154763373Y-105027963D01*
X154593534Y-104976443D01*
X154437009Y-104892778D01*
X154401271Y-104863448D01*
X154299814Y-104780186D01*
X154216552Y-104678729D01*
X154187222Y-104642991D01*
X154103557Y-104486466D01*
X154052037Y-104316627D01*
X154034641Y-104140000D01*
X154052037Y-103963373D01*
X154103557Y-103793534D01*
X154187222Y-103637009D01*
X154216552Y-103601271D01*
X154299814Y-103499814D01*
X154401271Y-103416552D01*
X154437009Y-103387222D01*
X154593534Y-103303557D01*
X154763373Y-103252037D01*
X154829558Y-103245518D01*
X154895740Y-103239000D01*
X154984260Y-103239000D01*
X155050443Y-103245519D01*
X155050443Y-103245519D01*
G37*
G36*
X167750443Y-103245519D02*
G01*
X167816627Y-103252037D01*
X167986466Y-103303557D01*
X168142991Y-103387222D01*
X168178729Y-103416552D01*
X168280186Y-103499814D01*
X168363448Y-103601271D01*
X168392778Y-103637009D01*
X168476443Y-103793534D01*
X168527963Y-103963373D01*
X168545359Y-104140000D01*
X168527963Y-104316627D01*
X168476443Y-104486466D01*
X168392778Y-104642991D01*
X168363448Y-104678729D01*
X168280186Y-104780186D01*
X168178729Y-104863448D01*
X168142991Y-104892778D01*
X167986466Y-104976443D01*
X167816627Y-105027963D01*
X167750442Y-105034482D01*
X167684260Y-105041000D01*
X167595740Y-105041000D01*
X167529557Y-105034481D01*
X167463373Y-105027963D01*
X167293534Y-104976443D01*
X167137009Y-104892778D01*
X167101271Y-104863448D01*
X166999814Y-104780186D01*
X166916552Y-104678729D01*
X166887222Y-104642991D01*
X166803557Y-104486466D01*
X166752037Y-104316627D01*
X166734641Y-104140000D01*
X166752037Y-103963373D01*
X166803557Y-103793534D01*
X166887222Y-103637009D01*
X166916552Y-103601271D01*
X166999814Y-103499814D01*
X167101271Y-103416552D01*
X167137009Y-103387222D01*
X167293534Y-103303557D01*
X167463373Y-103252037D01*
X167529558Y-103245518D01*
X167595740Y-103239000D01*
X167684260Y-103239000D01*
X167750443Y-103245519D01*
X167750443Y-103245519D01*
G37*
G36*
X165210443Y-103245519D02*
G01*
X165276627Y-103252037D01*
X165446466Y-103303557D01*
X165602991Y-103387222D01*
X165638729Y-103416552D01*
X165740186Y-103499814D01*
X165823448Y-103601271D01*
X165852778Y-103637009D01*
X165936443Y-103793534D01*
X165987963Y-103963373D01*
X166005359Y-104140000D01*
X165987963Y-104316627D01*
X165936443Y-104486466D01*
X165852778Y-104642991D01*
X165823448Y-104678729D01*
X165740186Y-104780186D01*
X165638729Y-104863448D01*
X165602991Y-104892778D01*
X165446466Y-104976443D01*
X165276627Y-105027963D01*
X165210442Y-105034482D01*
X165144260Y-105041000D01*
X165055740Y-105041000D01*
X164989557Y-105034481D01*
X164923373Y-105027963D01*
X164753534Y-104976443D01*
X164597009Y-104892778D01*
X164561271Y-104863448D01*
X164459814Y-104780186D01*
X164376552Y-104678729D01*
X164347222Y-104642991D01*
X164263557Y-104486466D01*
X164212037Y-104316627D01*
X164194641Y-104140000D01*
X164212037Y-103963373D01*
X164263557Y-103793534D01*
X164347222Y-103637009D01*
X164376552Y-103601271D01*
X164459814Y-103499814D01*
X164561271Y-103416552D01*
X164597009Y-103387222D01*
X164753534Y-103303557D01*
X164923373Y-103252037D01*
X164989558Y-103245518D01*
X165055740Y-103239000D01*
X165144260Y-103239000D01*
X165210443Y-103245519D01*
X165210443Y-103245519D01*
G37*
G36*
X158381000Y-105041000D02*
G01*
X156579000Y-105041000D01*
X156579000Y-103239000D01*
X158381000Y-103239000D01*
X158381000Y-105041000D01*
X158381000Y-105041000D01*
G37*
G36*
X152510443Y-103245519D02*
G01*
X152576627Y-103252037D01*
X152746466Y-103303557D01*
X152902991Y-103387222D01*
X152938729Y-103416552D01*
X153040186Y-103499814D01*
X153123448Y-103601271D01*
X153152778Y-103637009D01*
X153236443Y-103793534D01*
X153287963Y-103963373D01*
X153305359Y-104140000D01*
X153287963Y-104316627D01*
X153236443Y-104486466D01*
X153152778Y-104642991D01*
X153123448Y-104678729D01*
X153040186Y-104780186D01*
X152938729Y-104863448D01*
X152902991Y-104892778D01*
X152746466Y-104976443D01*
X152576627Y-105027963D01*
X152510442Y-105034482D01*
X152444260Y-105041000D01*
X152355740Y-105041000D01*
X152289557Y-105034481D01*
X152223373Y-105027963D01*
X152053534Y-104976443D01*
X151897009Y-104892778D01*
X151861271Y-104863448D01*
X151759814Y-104780186D01*
X151676552Y-104678729D01*
X151647222Y-104642991D01*
X151563557Y-104486466D01*
X151512037Y-104316627D01*
X151494641Y-104140000D01*
X151512037Y-103963373D01*
X151563557Y-103793534D01*
X151647222Y-103637009D01*
X151676552Y-103601271D01*
X151759814Y-103499814D01*
X151861271Y-103416552D01*
X151897009Y-103387222D01*
X152053534Y-103303557D01*
X152223373Y-103252037D01*
X152289558Y-103245518D01*
X152355740Y-103239000D01*
X152444260Y-103239000D01*
X152510443Y-103245519D01*
X152510443Y-103245519D01*
G37*
G36*
X152510443Y-100705519D02*
G01*
X152576627Y-100712037D01*
X152746466Y-100763557D01*
X152902991Y-100847222D01*
X152938729Y-100876552D01*
X153040186Y-100959814D01*
X153123448Y-101061271D01*
X153152778Y-101097009D01*
X153236443Y-101253534D01*
X153287963Y-101423373D01*
X153305359Y-101600000D01*
X153287963Y-101776627D01*
X153236443Y-101946466D01*
X153152778Y-102102991D01*
X153123448Y-102138729D01*
X153040186Y-102240186D01*
X152938729Y-102323448D01*
X152902991Y-102352778D01*
X152746466Y-102436443D01*
X152576627Y-102487963D01*
X152510442Y-102494482D01*
X152444260Y-102501000D01*
X152355740Y-102501000D01*
X152289558Y-102494482D01*
X152223373Y-102487963D01*
X152053534Y-102436443D01*
X151897009Y-102352778D01*
X151861271Y-102323448D01*
X151759814Y-102240186D01*
X151676552Y-102138729D01*
X151647222Y-102102991D01*
X151563557Y-101946466D01*
X151512037Y-101776627D01*
X151494641Y-101600000D01*
X151512037Y-101423373D01*
X151563557Y-101253534D01*
X151647222Y-101097009D01*
X151676552Y-101061271D01*
X151759814Y-100959814D01*
X151861271Y-100876552D01*
X151897009Y-100847222D01*
X152053534Y-100763557D01*
X152223373Y-100712037D01*
X152289557Y-100705519D01*
X152355740Y-100699000D01*
X152444260Y-100699000D01*
X152510443Y-100705519D01*
X152510443Y-100705519D01*
G37*
G36*
X158381000Y-102501000D02*
G01*
X156579000Y-102501000D01*
X156579000Y-100699000D01*
X158381000Y-100699000D01*
X158381000Y-102501000D01*
X158381000Y-102501000D01*
G37*
G36*
X155050443Y-100705519D02*
G01*
X155116627Y-100712037D01*
X155286466Y-100763557D01*
X155442991Y-100847222D01*
X155478729Y-100876552D01*
X155580186Y-100959814D01*
X155663448Y-101061271D01*
X155692778Y-101097009D01*
X155776443Y-101253534D01*
X155827963Y-101423373D01*
X155845359Y-101600000D01*
X155827963Y-101776627D01*
X155776443Y-101946466D01*
X155692778Y-102102991D01*
X155663448Y-102138729D01*
X155580186Y-102240186D01*
X155478729Y-102323448D01*
X155442991Y-102352778D01*
X155286466Y-102436443D01*
X155116627Y-102487963D01*
X155050442Y-102494482D01*
X154984260Y-102501000D01*
X154895740Y-102501000D01*
X154829558Y-102494482D01*
X154763373Y-102487963D01*
X154593534Y-102436443D01*
X154437009Y-102352778D01*
X154401271Y-102323448D01*
X154299814Y-102240186D01*
X154216552Y-102138729D01*
X154187222Y-102102991D01*
X154103557Y-101946466D01*
X154052037Y-101776627D01*
X154034641Y-101600000D01*
X154052037Y-101423373D01*
X154103557Y-101253534D01*
X154187222Y-101097009D01*
X154216552Y-101061271D01*
X154299814Y-100959814D01*
X154401271Y-100876552D01*
X154437009Y-100847222D01*
X154593534Y-100763557D01*
X154763373Y-100712037D01*
X154829557Y-100705519D01*
X154895740Y-100699000D01*
X154984260Y-100699000D01*
X155050443Y-100705519D01*
X155050443Y-100705519D01*
G37*
G36*
X167750443Y-100705519D02*
G01*
X167816627Y-100712037D01*
X167986466Y-100763557D01*
X168142991Y-100847222D01*
X168178729Y-100876552D01*
X168280186Y-100959814D01*
X168363448Y-101061271D01*
X168392778Y-101097009D01*
X168476443Y-101253534D01*
X168527963Y-101423373D01*
X168545359Y-101600000D01*
X168527963Y-101776627D01*
X168476443Y-101946466D01*
X168392778Y-102102991D01*
X168363448Y-102138729D01*
X168280186Y-102240186D01*
X168178729Y-102323448D01*
X168142991Y-102352778D01*
X167986466Y-102436443D01*
X167816627Y-102487963D01*
X167750442Y-102494482D01*
X167684260Y-102501000D01*
X167595740Y-102501000D01*
X167529558Y-102494482D01*
X167463373Y-102487963D01*
X167293534Y-102436443D01*
X167137009Y-102352778D01*
X167101271Y-102323448D01*
X166999814Y-102240186D01*
X166916552Y-102138729D01*
X166887222Y-102102991D01*
X166803557Y-101946466D01*
X166752037Y-101776627D01*
X166734641Y-101600000D01*
X166752037Y-101423373D01*
X166803557Y-101253534D01*
X166887222Y-101097009D01*
X166916552Y-101061271D01*
X166999814Y-100959814D01*
X167101271Y-100876552D01*
X167137009Y-100847222D01*
X167293534Y-100763557D01*
X167463373Y-100712037D01*
X167529557Y-100705519D01*
X167595740Y-100699000D01*
X167684260Y-100699000D01*
X167750443Y-100705519D01*
X167750443Y-100705519D01*
G37*
G36*
X165210443Y-100705519D02*
G01*
X165276627Y-100712037D01*
X165446466Y-100763557D01*
X165602991Y-100847222D01*
X165638729Y-100876552D01*
X165740186Y-100959814D01*
X165823448Y-101061271D01*
X165852778Y-101097009D01*
X165936443Y-101253534D01*
X165987963Y-101423373D01*
X166005359Y-101600000D01*
X165987963Y-101776627D01*
X165936443Y-101946466D01*
X165852778Y-102102991D01*
X165823448Y-102138729D01*
X165740186Y-102240186D01*
X165638729Y-102323448D01*
X165602991Y-102352778D01*
X165446466Y-102436443D01*
X165276627Y-102487963D01*
X165210442Y-102494482D01*
X165144260Y-102501000D01*
X165055740Y-102501000D01*
X164989558Y-102494482D01*
X164923373Y-102487963D01*
X164753534Y-102436443D01*
X164597009Y-102352778D01*
X164561271Y-102323448D01*
X164459814Y-102240186D01*
X164376552Y-102138729D01*
X164347222Y-102102991D01*
X164263557Y-101946466D01*
X164212037Y-101776627D01*
X164194641Y-101600000D01*
X164212037Y-101423373D01*
X164263557Y-101253534D01*
X164347222Y-101097009D01*
X164376552Y-101061271D01*
X164459814Y-100959814D01*
X164561271Y-100876552D01*
X164597009Y-100847222D01*
X164753534Y-100763557D01*
X164923373Y-100712037D01*
X164989557Y-100705519D01*
X165055740Y-100699000D01*
X165144260Y-100699000D01*
X165210443Y-100705519D01*
X165210443Y-100705519D01*
G37*
G36*
X167750443Y-98165519D02*
G01*
X167816627Y-98172037D01*
X167986466Y-98223557D01*
X168142991Y-98307222D01*
X168178729Y-98336552D01*
X168280186Y-98419814D01*
X168363448Y-98521271D01*
X168392778Y-98557009D01*
X168476443Y-98713534D01*
X168527963Y-98883373D01*
X168545359Y-99060000D01*
X168527963Y-99236627D01*
X168476443Y-99406466D01*
X168392778Y-99562991D01*
X168363448Y-99598729D01*
X168280186Y-99700186D01*
X168178729Y-99783448D01*
X168142991Y-99812778D01*
X167986466Y-99896443D01*
X167816627Y-99947963D01*
X167750443Y-99954481D01*
X167684260Y-99961000D01*
X167595740Y-99961000D01*
X167529557Y-99954481D01*
X167463373Y-99947963D01*
X167293534Y-99896443D01*
X167137009Y-99812778D01*
X167101271Y-99783448D01*
X166999814Y-99700186D01*
X166916552Y-99598729D01*
X166887222Y-99562991D01*
X166803557Y-99406466D01*
X166752037Y-99236627D01*
X166734641Y-99060000D01*
X166752037Y-98883373D01*
X166803557Y-98713534D01*
X166887222Y-98557009D01*
X166916552Y-98521271D01*
X166999814Y-98419814D01*
X167101271Y-98336552D01*
X167137009Y-98307222D01*
X167293534Y-98223557D01*
X167463373Y-98172037D01*
X167529557Y-98165519D01*
X167595740Y-98159000D01*
X167684260Y-98159000D01*
X167750443Y-98165519D01*
X167750443Y-98165519D01*
G37*
G36*
X155050443Y-98165519D02*
G01*
X155116627Y-98172037D01*
X155286466Y-98223557D01*
X155442991Y-98307222D01*
X155478729Y-98336552D01*
X155580186Y-98419814D01*
X155663448Y-98521271D01*
X155692778Y-98557009D01*
X155776443Y-98713534D01*
X155827963Y-98883373D01*
X155845359Y-99060000D01*
X155827963Y-99236627D01*
X155776443Y-99406466D01*
X155692778Y-99562991D01*
X155663448Y-99598729D01*
X155580186Y-99700186D01*
X155478729Y-99783448D01*
X155442991Y-99812778D01*
X155286466Y-99896443D01*
X155116627Y-99947963D01*
X155050443Y-99954481D01*
X154984260Y-99961000D01*
X154895740Y-99961000D01*
X154829557Y-99954481D01*
X154763373Y-99947963D01*
X154593534Y-99896443D01*
X154437009Y-99812778D01*
X154401271Y-99783448D01*
X154299814Y-99700186D01*
X154216552Y-99598729D01*
X154187222Y-99562991D01*
X154103557Y-99406466D01*
X154052037Y-99236627D01*
X154034641Y-99060000D01*
X154052037Y-98883373D01*
X154103557Y-98713534D01*
X154187222Y-98557009D01*
X154216552Y-98521271D01*
X154299814Y-98419814D01*
X154401271Y-98336552D01*
X154437009Y-98307222D01*
X154593534Y-98223557D01*
X154763373Y-98172037D01*
X154829557Y-98165519D01*
X154895740Y-98159000D01*
X154984260Y-98159000D01*
X155050443Y-98165519D01*
X155050443Y-98165519D01*
G37*
G36*
X158381000Y-99961000D02*
G01*
X156579000Y-99961000D01*
X156579000Y-98159000D01*
X158381000Y-98159000D01*
X158381000Y-99961000D01*
X158381000Y-99961000D01*
G37*
G36*
X165210443Y-98165519D02*
G01*
X165276627Y-98172037D01*
X165446466Y-98223557D01*
X165602991Y-98307222D01*
X165638729Y-98336552D01*
X165740186Y-98419814D01*
X165823448Y-98521271D01*
X165852778Y-98557009D01*
X165936443Y-98713534D01*
X165987963Y-98883373D01*
X166005359Y-99060000D01*
X165987963Y-99236627D01*
X165936443Y-99406466D01*
X165852778Y-99562991D01*
X165823448Y-99598729D01*
X165740186Y-99700186D01*
X165638729Y-99783448D01*
X165602991Y-99812778D01*
X165446466Y-99896443D01*
X165276627Y-99947963D01*
X165210443Y-99954481D01*
X165144260Y-99961000D01*
X165055740Y-99961000D01*
X164989557Y-99954481D01*
X164923373Y-99947963D01*
X164753534Y-99896443D01*
X164597009Y-99812778D01*
X164561271Y-99783448D01*
X164459814Y-99700186D01*
X164376552Y-99598729D01*
X164347222Y-99562991D01*
X164263557Y-99406466D01*
X164212037Y-99236627D01*
X164194641Y-99060000D01*
X164212037Y-98883373D01*
X164263557Y-98713534D01*
X164347222Y-98557009D01*
X164376552Y-98521271D01*
X164459814Y-98419814D01*
X164561271Y-98336552D01*
X164597009Y-98307222D01*
X164753534Y-98223557D01*
X164923373Y-98172037D01*
X164989557Y-98165519D01*
X165055740Y-98159000D01*
X165144260Y-98159000D01*
X165210443Y-98165519D01*
X165210443Y-98165519D01*
G37*
G36*
X152510443Y-98165519D02*
G01*
X152576627Y-98172037D01*
X152746466Y-98223557D01*
X152902991Y-98307222D01*
X152938729Y-98336552D01*
X153040186Y-98419814D01*
X153123448Y-98521271D01*
X153152778Y-98557009D01*
X153236443Y-98713534D01*
X153287963Y-98883373D01*
X153305359Y-99060000D01*
X153287963Y-99236627D01*
X153236443Y-99406466D01*
X153152778Y-99562991D01*
X153123448Y-99598729D01*
X153040186Y-99700186D01*
X152938729Y-99783448D01*
X152902991Y-99812778D01*
X152746466Y-99896443D01*
X152576627Y-99947963D01*
X152510443Y-99954481D01*
X152444260Y-99961000D01*
X152355740Y-99961000D01*
X152289557Y-99954481D01*
X152223373Y-99947963D01*
X152053534Y-99896443D01*
X151897009Y-99812778D01*
X151861271Y-99783448D01*
X151759814Y-99700186D01*
X151676552Y-99598729D01*
X151647222Y-99562991D01*
X151563557Y-99406466D01*
X151512037Y-99236627D01*
X151494641Y-99060000D01*
X151512037Y-98883373D01*
X151563557Y-98713534D01*
X151647222Y-98557009D01*
X151676552Y-98521271D01*
X151759814Y-98419814D01*
X151861271Y-98336552D01*
X151897009Y-98307222D01*
X152053534Y-98223557D01*
X152223373Y-98172037D01*
X152289557Y-98165519D01*
X152355740Y-98159000D01*
X152444260Y-98159000D01*
X152510443Y-98165519D01*
X152510443Y-98165519D01*
G37*
G36*
X165210442Y-95625518D02*
G01*
X165276627Y-95632037D01*
X165446466Y-95683557D01*
X165602991Y-95767222D01*
X165638729Y-95796552D01*
X165740186Y-95879814D01*
X165823448Y-95981271D01*
X165852778Y-96017009D01*
X165936443Y-96173534D01*
X165987963Y-96343373D01*
X166005359Y-96520000D01*
X165987963Y-96696627D01*
X165936443Y-96866466D01*
X165852778Y-97022991D01*
X165823448Y-97058729D01*
X165740186Y-97160186D01*
X165638729Y-97243448D01*
X165602991Y-97272778D01*
X165446466Y-97356443D01*
X165276627Y-97407963D01*
X165210442Y-97414482D01*
X165144260Y-97421000D01*
X165055740Y-97421000D01*
X164989558Y-97414482D01*
X164923373Y-97407963D01*
X164753534Y-97356443D01*
X164597009Y-97272778D01*
X164561271Y-97243448D01*
X164459814Y-97160186D01*
X164376552Y-97058729D01*
X164347222Y-97022991D01*
X164263557Y-96866466D01*
X164212037Y-96696627D01*
X164194641Y-96520000D01*
X164212037Y-96343373D01*
X164263557Y-96173534D01*
X164347222Y-96017009D01*
X164376552Y-95981271D01*
X164459814Y-95879814D01*
X164561271Y-95796552D01*
X164597009Y-95767222D01*
X164753534Y-95683557D01*
X164923373Y-95632037D01*
X164989558Y-95625518D01*
X165055740Y-95619000D01*
X165144260Y-95619000D01*
X165210442Y-95625518D01*
X165210442Y-95625518D01*
G37*
G36*
X167750442Y-95625518D02*
G01*
X167816627Y-95632037D01*
X167986466Y-95683557D01*
X168142991Y-95767222D01*
X168178729Y-95796552D01*
X168280186Y-95879814D01*
X168363448Y-95981271D01*
X168392778Y-96017009D01*
X168476443Y-96173534D01*
X168527963Y-96343373D01*
X168545359Y-96520000D01*
X168527963Y-96696627D01*
X168476443Y-96866466D01*
X168392778Y-97022991D01*
X168363448Y-97058729D01*
X168280186Y-97160186D01*
X168178729Y-97243448D01*
X168142991Y-97272778D01*
X167986466Y-97356443D01*
X167816627Y-97407963D01*
X167750442Y-97414482D01*
X167684260Y-97421000D01*
X167595740Y-97421000D01*
X167529558Y-97414482D01*
X167463373Y-97407963D01*
X167293534Y-97356443D01*
X167137009Y-97272778D01*
X167101271Y-97243448D01*
X166999814Y-97160186D01*
X166916552Y-97058729D01*
X166887222Y-97022991D01*
X166803557Y-96866466D01*
X166752037Y-96696627D01*
X166734641Y-96520000D01*
X166752037Y-96343373D01*
X166803557Y-96173534D01*
X166887222Y-96017009D01*
X166916552Y-95981271D01*
X166999814Y-95879814D01*
X167101271Y-95796552D01*
X167137009Y-95767222D01*
X167293534Y-95683557D01*
X167463373Y-95632037D01*
X167529558Y-95625518D01*
X167595740Y-95619000D01*
X167684260Y-95619000D01*
X167750442Y-95625518D01*
X167750442Y-95625518D01*
G37*
G36*
X152510443Y-93085519D02*
G01*
X152576627Y-93092037D01*
X152746466Y-93143557D01*
X152902991Y-93227222D01*
X152938729Y-93256552D01*
X153040186Y-93339814D01*
X153123448Y-93441271D01*
X153152778Y-93477009D01*
X153236443Y-93633534D01*
X153287963Y-93803373D01*
X153305359Y-93980000D01*
X153287963Y-94156627D01*
X153236443Y-94326466D01*
X153152778Y-94482991D01*
X153123448Y-94518729D01*
X153040186Y-94620186D01*
X152938729Y-94703448D01*
X152902991Y-94732778D01*
X152746466Y-94816443D01*
X152576627Y-94867963D01*
X152510443Y-94874481D01*
X152444260Y-94881000D01*
X152355740Y-94881000D01*
X152289557Y-94874481D01*
X152223373Y-94867963D01*
X152053534Y-94816443D01*
X151897009Y-94732778D01*
X151861271Y-94703448D01*
X151759814Y-94620186D01*
X151676552Y-94518729D01*
X151647222Y-94482991D01*
X151563557Y-94326466D01*
X151512037Y-94156627D01*
X151494641Y-93980000D01*
X151512037Y-93803373D01*
X151563557Y-93633534D01*
X151647222Y-93477009D01*
X151676552Y-93441271D01*
X151759814Y-93339814D01*
X151861271Y-93256552D01*
X151897009Y-93227222D01*
X152053534Y-93143557D01*
X152223373Y-93092037D01*
X152289557Y-93085519D01*
X152355740Y-93079000D01*
X152444260Y-93079000D01*
X152510443Y-93085519D01*
X152510443Y-93085519D01*
G37*
G36*
X165210443Y-93085519D02*
G01*
X165276627Y-93092037D01*
X165446466Y-93143557D01*
X165602991Y-93227222D01*
X165638729Y-93256552D01*
X165740186Y-93339814D01*
X165823448Y-93441271D01*
X165852778Y-93477009D01*
X165936443Y-93633534D01*
X165987963Y-93803373D01*
X166005359Y-93980000D01*
X165987963Y-94156627D01*
X165936443Y-94326466D01*
X165852778Y-94482991D01*
X165823448Y-94518729D01*
X165740186Y-94620186D01*
X165638729Y-94703448D01*
X165602991Y-94732778D01*
X165446466Y-94816443D01*
X165276627Y-94867963D01*
X165210443Y-94874481D01*
X165144260Y-94881000D01*
X165055740Y-94881000D01*
X164989557Y-94874481D01*
X164923373Y-94867963D01*
X164753534Y-94816443D01*
X164597009Y-94732778D01*
X164561271Y-94703448D01*
X164459814Y-94620186D01*
X164376552Y-94518729D01*
X164347222Y-94482991D01*
X164263557Y-94326466D01*
X164212037Y-94156627D01*
X164194641Y-93980000D01*
X164212037Y-93803373D01*
X164263557Y-93633534D01*
X164347222Y-93477009D01*
X164376552Y-93441271D01*
X164459814Y-93339814D01*
X164561271Y-93256552D01*
X164597009Y-93227222D01*
X164753534Y-93143557D01*
X164923373Y-93092037D01*
X164989557Y-93085519D01*
X165055740Y-93079000D01*
X165144260Y-93079000D01*
X165210443Y-93085519D01*
X165210443Y-93085519D01*
G37*
G36*
X167750443Y-93085519D02*
G01*
X167816627Y-93092037D01*
X167986466Y-93143557D01*
X168142991Y-93227222D01*
X168178729Y-93256552D01*
X168280186Y-93339814D01*
X168363448Y-93441271D01*
X168392778Y-93477009D01*
X168476443Y-93633534D01*
X168527963Y-93803373D01*
X168545359Y-93980000D01*
X168527963Y-94156627D01*
X168476443Y-94326466D01*
X168392778Y-94482991D01*
X168363448Y-94518729D01*
X168280186Y-94620186D01*
X168178729Y-94703448D01*
X168142991Y-94732778D01*
X167986466Y-94816443D01*
X167816627Y-94867963D01*
X167750443Y-94874481D01*
X167684260Y-94881000D01*
X167595740Y-94881000D01*
X167529557Y-94874481D01*
X167463373Y-94867963D01*
X167293534Y-94816443D01*
X167137009Y-94732778D01*
X167101271Y-94703448D01*
X166999814Y-94620186D01*
X166916552Y-94518729D01*
X166887222Y-94482991D01*
X166803557Y-94326466D01*
X166752037Y-94156627D01*
X166734641Y-93980000D01*
X166752037Y-93803373D01*
X166803557Y-93633534D01*
X166887222Y-93477009D01*
X166916552Y-93441271D01*
X166999814Y-93339814D01*
X167101271Y-93256552D01*
X167137009Y-93227222D01*
X167293534Y-93143557D01*
X167463373Y-93092037D01*
X167529557Y-93085519D01*
X167595740Y-93079000D01*
X167684260Y-93079000D01*
X167750443Y-93085519D01*
X167750443Y-93085519D01*
G37*
G36*
X158381000Y-94881000D02*
G01*
X156579000Y-94881000D01*
X156579000Y-93079000D01*
X158381000Y-93079000D01*
X158381000Y-94881000D01*
X158381000Y-94881000D01*
G37*
G36*
X155050443Y-93085519D02*
G01*
X155116627Y-93092037D01*
X155286466Y-93143557D01*
X155442991Y-93227222D01*
X155478729Y-93256552D01*
X155580186Y-93339814D01*
X155663448Y-93441271D01*
X155692778Y-93477009D01*
X155776443Y-93633534D01*
X155827963Y-93803373D01*
X155845359Y-93980000D01*
X155827963Y-94156627D01*
X155776443Y-94326466D01*
X155692778Y-94482991D01*
X155663448Y-94518729D01*
X155580186Y-94620186D01*
X155478729Y-94703448D01*
X155442991Y-94732778D01*
X155286466Y-94816443D01*
X155116627Y-94867963D01*
X155050443Y-94874481D01*
X154984260Y-94881000D01*
X154895740Y-94881000D01*
X154829557Y-94874481D01*
X154763373Y-94867963D01*
X154593534Y-94816443D01*
X154437009Y-94732778D01*
X154401271Y-94703448D01*
X154299814Y-94620186D01*
X154216552Y-94518729D01*
X154187222Y-94482991D01*
X154103557Y-94326466D01*
X154052037Y-94156627D01*
X154034641Y-93980000D01*
X154052037Y-93803373D01*
X154103557Y-93633534D01*
X154187222Y-93477009D01*
X154216552Y-93441271D01*
X154299814Y-93339814D01*
X154401271Y-93256552D01*
X154437009Y-93227222D01*
X154593534Y-93143557D01*
X154763373Y-93092037D01*
X154829557Y-93085519D01*
X154895740Y-93079000D01*
X154984260Y-93079000D01*
X155050443Y-93085519D01*
X155050443Y-93085519D01*
G37*
G36*
X165210443Y-90545519D02*
G01*
X165276627Y-90552037D01*
X165446466Y-90603557D01*
X165602991Y-90687222D01*
X165638729Y-90716552D01*
X165740186Y-90799814D01*
X165823448Y-90901271D01*
X165852778Y-90937009D01*
X165936443Y-91093534D01*
X165987963Y-91263373D01*
X166005359Y-91440000D01*
X165987963Y-91616627D01*
X165936443Y-91786466D01*
X165852778Y-91942991D01*
X165823448Y-91978729D01*
X165740186Y-92080186D01*
X165638729Y-92163448D01*
X165602991Y-92192778D01*
X165446466Y-92276443D01*
X165276627Y-92327963D01*
X165210443Y-92334481D01*
X165144260Y-92341000D01*
X165055740Y-92341000D01*
X164989557Y-92334481D01*
X164923373Y-92327963D01*
X164753534Y-92276443D01*
X164597009Y-92192778D01*
X164561271Y-92163448D01*
X164459814Y-92080186D01*
X164376552Y-91978729D01*
X164347222Y-91942991D01*
X164263557Y-91786466D01*
X164212037Y-91616627D01*
X164194641Y-91440000D01*
X164212037Y-91263373D01*
X164263557Y-91093534D01*
X164347222Y-90937009D01*
X164376552Y-90901271D01*
X164459814Y-90799814D01*
X164561271Y-90716552D01*
X164597009Y-90687222D01*
X164753534Y-90603557D01*
X164923373Y-90552037D01*
X164989558Y-90545518D01*
X165055740Y-90539000D01*
X165144260Y-90539000D01*
X165210443Y-90545519D01*
X165210443Y-90545519D01*
G37*
G36*
X167750443Y-90545519D02*
G01*
X167816627Y-90552037D01*
X167986466Y-90603557D01*
X168142991Y-90687222D01*
X168178729Y-90716552D01*
X168280186Y-90799814D01*
X168363448Y-90901271D01*
X168392778Y-90937009D01*
X168476443Y-91093534D01*
X168527963Y-91263373D01*
X168545359Y-91440000D01*
X168527963Y-91616627D01*
X168476443Y-91786466D01*
X168392778Y-91942991D01*
X168363448Y-91978729D01*
X168280186Y-92080186D01*
X168178729Y-92163448D01*
X168142991Y-92192778D01*
X167986466Y-92276443D01*
X167816627Y-92327963D01*
X167750443Y-92334481D01*
X167684260Y-92341000D01*
X167595740Y-92341000D01*
X167529557Y-92334481D01*
X167463373Y-92327963D01*
X167293534Y-92276443D01*
X167137009Y-92192778D01*
X167101271Y-92163448D01*
X166999814Y-92080186D01*
X166916552Y-91978729D01*
X166887222Y-91942991D01*
X166803557Y-91786466D01*
X166752037Y-91616627D01*
X166734641Y-91440000D01*
X166752037Y-91263373D01*
X166803557Y-91093534D01*
X166887222Y-90937009D01*
X166916552Y-90901271D01*
X166999814Y-90799814D01*
X167101271Y-90716552D01*
X167137009Y-90687222D01*
X167293534Y-90603557D01*
X167463373Y-90552037D01*
X167529558Y-90545518D01*
X167595740Y-90539000D01*
X167684260Y-90539000D01*
X167750443Y-90545519D01*
X167750443Y-90545519D01*
G37*
G36*
X152510443Y-90545519D02*
G01*
X152576627Y-90552037D01*
X152746466Y-90603557D01*
X152902991Y-90687222D01*
X152938729Y-90716552D01*
X153040186Y-90799814D01*
X153123448Y-90901271D01*
X153152778Y-90937009D01*
X153236443Y-91093534D01*
X153287963Y-91263373D01*
X153305359Y-91440000D01*
X153287963Y-91616627D01*
X153236443Y-91786466D01*
X153152778Y-91942991D01*
X153123448Y-91978729D01*
X153040186Y-92080186D01*
X152938729Y-92163448D01*
X152902991Y-92192778D01*
X152746466Y-92276443D01*
X152576627Y-92327963D01*
X152510443Y-92334481D01*
X152444260Y-92341000D01*
X152355740Y-92341000D01*
X152289557Y-92334481D01*
X152223373Y-92327963D01*
X152053534Y-92276443D01*
X151897009Y-92192778D01*
X151861271Y-92163448D01*
X151759814Y-92080186D01*
X151676552Y-91978729D01*
X151647222Y-91942991D01*
X151563557Y-91786466D01*
X151512037Y-91616627D01*
X151494641Y-91440000D01*
X151512037Y-91263373D01*
X151563557Y-91093534D01*
X151647222Y-90937009D01*
X151676552Y-90901271D01*
X151759814Y-90799814D01*
X151861271Y-90716552D01*
X151897009Y-90687222D01*
X152053534Y-90603557D01*
X152223373Y-90552037D01*
X152289557Y-90545519D01*
X152355740Y-90539000D01*
X152444260Y-90539000D01*
X152510443Y-90545519D01*
X152510443Y-90545519D01*
G37*
G36*
X155050443Y-90545519D02*
G01*
X155116627Y-90552037D01*
X155286466Y-90603557D01*
X155442991Y-90687222D01*
X155478729Y-90716552D01*
X155580186Y-90799814D01*
X155663448Y-90901271D01*
X155692778Y-90937009D01*
X155776443Y-91093534D01*
X155827963Y-91263373D01*
X155845359Y-91440000D01*
X155827963Y-91616627D01*
X155776443Y-91786466D01*
X155692778Y-91942991D01*
X155663448Y-91978729D01*
X155580186Y-92080186D01*
X155478729Y-92163448D01*
X155442991Y-92192778D01*
X155286466Y-92276443D01*
X155116627Y-92327963D01*
X155050443Y-92334481D01*
X154984260Y-92341000D01*
X154895740Y-92341000D01*
X154829557Y-92334481D01*
X154763373Y-92327963D01*
X154593534Y-92276443D01*
X154437009Y-92192778D01*
X154401271Y-92163448D01*
X154299814Y-92080186D01*
X154216552Y-91978729D01*
X154187222Y-91942991D01*
X154103557Y-91786466D01*
X154052037Y-91616627D01*
X154034641Y-91440000D01*
X154052037Y-91263373D01*
X154103557Y-91093534D01*
X154187222Y-90937009D01*
X154216552Y-90901271D01*
X154299814Y-90799814D01*
X154401271Y-90716552D01*
X154437009Y-90687222D01*
X154593534Y-90603557D01*
X154763373Y-90552037D01*
X154829558Y-90545518D01*
X154895740Y-90539000D01*
X154984260Y-90539000D01*
X155050443Y-90545519D01*
X155050443Y-90545519D01*
G37*
G36*
X158381000Y-92341000D02*
G01*
X156579000Y-92341000D01*
X156579000Y-90539000D01*
X158381000Y-90539000D01*
X158381000Y-92341000D01*
X158381000Y-92341000D01*
G37*
G36*
X167750443Y-88005519D02*
G01*
X167816627Y-88012037D01*
X167986466Y-88063557D01*
X168142991Y-88147222D01*
X168178729Y-88176552D01*
X168280186Y-88259814D01*
X168363448Y-88361271D01*
X168392778Y-88397009D01*
X168476443Y-88553534D01*
X168527963Y-88723373D01*
X168545359Y-88900000D01*
X168527963Y-89076627D01*
X168476443Y-89246466D01*
X168392778Y-89402991D01*
X168363448Y-89438729D01*
X168280186Y-89540186D01*
X168178729Y-89623448D01*
X168142991Y-89652778D01*
X167986466Y-89736443D01*
X167816627Y-89787963D01*
X167750443Y-89794481D01*
X167684260Y-89801000D01*
X167595740Y-89801000D01*
X167529557Y-89794481D01*
X167463373Y-89787963D01*
X167293534Y-89736443D01*
X167137009Y-89652778D01*
X167101271Y-89623448D01*
X166999814Y-89540186D01*
X166916552Y-89438729D01*
X166887222Y-89402991D01*
X166803557Y-89246466D01*
X166752037Y-89076627D01*
X166734641Y-88900000D01*
X166752037Y-88723373D01*
X166803557Y-88553534D01*
X166887222Y-88397009D01*
X166916552Y-88361271D01*
X166999814Y-88259814D01*
X167101271Y-88176552D01*
X167137009Y-88147222D01*
X167293534Y-88063557D01*
X167463373Y-88012037D01*
X167529557Y-88005519D01*
X167595740Y-87999000D01*
X167684260Y-87999000D01*
X167750443Y-88005519D01*
X167750443Y-88005519D01*
G37*
G36*
X152510443Y-88005519D02*
G01*
X152576627Y-88012037D01*
X152746466Y-88063557D01*
X152902991Y-88147222D01*
X152938729Y-88176552D01*
X153040186Y-88259814D01*
X153123448Y-88361271D01*
X153152778Y-88397009D01*
X153236443Y-88553534D01*
X153287963Y-88723373D01*
X153305359Y-88900000D01*
X153287963Y-89076627D01*
X153236443Y-89246466D01*
X153152778Y-89402991D01*
X153123448Y-89438729D01*
X153040186Y-89540186D01*
X152938729Y-89623448D01*
X152902991Y-89652778D01*
X152746466Y-89736443D01*
X152576627Y-89787963D01*
X152510443Y-89794481D01*
X152444260Y-89801000D01*
X152355740Y-89801000D01*
X152289557Y-89794481D01*
X152223373Y-89787963D01*
X152053534Y-89736443D01*
X151897009Y-89652778D01*
X151861271Y-89623448D01*
X151759814Y-89540186D01*
X151676552Y-89438729D01*
X151647222Y-89402991D01*
X151563557Y-89246466D01*
X151512037Y-89076627D01*
X151494641Y-88900000D01*
X151512037Y-88723373D01*
X151563557Y-88553534D01*
X151647222Y-88397009D01*
X151676552Y-88361271D01*
X151759814Y-88259814D01*
X151861271Y-88176552D01*
X151897009Y-88147222D01*
X152053534Y-88063557D01*
X152223373Y-88012037D01*
X152289557Y-88005519D01*
X152355740Y-87999000D01*
X152444260Y-87999000D01*
X152510443Y-88005519D01*
X152510443Y-88005519D01*
G37*
G36*
X155050443Y-88005519D02*
G01*
X155116627Y-88012037D01*
X155286466Y-88063557D01*
X155442991Y-88147222D01*
X155478729Y-88176552D01*
X155580186Y-88259814D01*
X155663448Y-88361271D01*
X155692778Y-88397009D01*
X155776443Y-88553534D01*
X155827963Y-88723373D01*
X155845359Y-88900000D01*
X155827963Y-89076627D01*
X155776443Y-89246466D01*
X155692778Y-89402991D01*
X155663448Y-89438729D01*
X155580186Y-89540186D01*
X155478729Y-89623448D01*
X155442991Y-89652778D01*
X155286466Y-89736443D01*
X155116627Y-89787963D01*
X155050443Y-89794481D01*
X154984260Y-89801000D01*
X154895740Y-89801000D01*
X154829557Y-89794481D01*
X154763373Y-89787963D01*
X154593534Y-89736443D01*
X154437009Y-89652778D01*
X154401271Y-89623448D01*
X154299814Y-89540186D01*
X154216552Y-89438729D01*
X154187222Y-89402991D01*
X154103557Y-89246466D01*
X154052037Y-89076627D01*
X154034641Y-88900000D01*
X154052037Y-88723373D01*
X154103557Y-88553534D01*
X154187222Y-88397009D01*
X154216552Y-88361271D01*
X154299814Y-88259814D01*
X154401271Y-88176552D01*
X154437009Y-88147222D01*
X154593534Y-88063557D01*
X154763373Y-88012037D01*
X154829557Y-88005519D01*
X154895740Y-87999000D01*
X154984260Y-87999000D01*
X155050443Y-88005519D01*
X155050443Y-88005519D01*
G37*
G36*
X158381000Y-89801000D02*
G01*
X156579000Y-89801000D01*
X156579000Y-87999000D01*
X158381000Y-87999000D01*
X158381000Y-89801000D01*
X158381000Y-89801000D01*
G37*
G36*
X165210443Y-88005519D02*
G01*
X165276627Y-88012037D01*
X165446466Y-88063557D01*
X165602991Y-88147222D01*
X165638729Y-88176552D01*
X165740186Y-88259814D01*
X165823448Y-88361271D01*
X165852778Y-88397009D01*
X165936443Y-88553534D01*
X165987963Y-88723373D01*
X166005359Y-88900000D01*
X165987963Y-89076627D01*
X165936443Y-89246466D01*
X165852778Y-89402991D01*
X165823448Y-89438729D01*
X165740186Y-89540186D01*
X165638729Y-89623448D01*
X165602991Y-89652778D01*
X165446466Y-89736443D01*
X165276627Y-89787963D01*
X165210443Y-89794481D01*
X165144260Y-89801000D01*
X165055740Y-89801000D01*
X164989557Y-89794481D01*
X164923373Y-89787963D01*
X164753534Y-89736443D01*
X164597009Y-89652778D01*
X164561271Y-89623448D01*
X164459814Y-89540186D01*
X164376552Y-89438729D01*
X164347222Y-89402991D01*
X164263557Y-89246466D01*
X164212037Y-89076627D01*
X164194641Y-88900000D01*
X164212037Y-88723373D01*
X164263557Y-88553534D01*
X164347222Y-88397009D01*
X164376552Y-88361271D01*
X164459814Y-88259814D01*
X164561271Y-88176552D01*
X164597009Y-88147222D01*
X164753534Y-88063557D01*
X164923373Y-88012037D01*
X164989557Y-88005519D01*
X165055740Y-87999000D01*
X165144260Y-87999000D01*
X165210443Y-88005519D01*
X165210443Y-88005519D01*
G37*
G36*
X167750442Y-85465518D02*
G01*
X167816627Y-85472037D01*
X167986466Y-85523557D01*
X168142991Y-85607222D01*
X168178729Y-85636552D01*
X168280186Y-85719814D01*
X168363448Y-85821271D01*
X168392778Y-85857009D01*
X168476443Y-86013534D01*
X168527963Y-86183373D01*
X168545359Y-86360000D01*
X168527963Y-86536627D01*
X168476443Y-86706466D01*
X168392778Y-86862991D01*
X168363448Y-86898729D01*
X168280186Y-87000186D01*
X168178729Y-87083448D01*
X168142991Y-87112778D01*
X167986466Y-87196443D01*
X167816627Y-87247963D01*
X167750442Y-87254482D01*
X167684260Y-87261000D01*
X167595740Y-87261000D01*
X167529558Y-87254482D01*
X167463373Y-87247963D01*
X167293534Y-87196443D01*
X167137009Y-87112778D01*
X167101271Y-87083448D01*
X166999814Y-87000186D01*
X166916552Y-86898729D01*
X166887222Y-86862991D01*
X166803557Y-86706466D01*
X166752037Y-86536627D01*
X166734641Y-86360000D01*
X166752037Y-86183373D01*
X166803557Y-86013534D01*
X166887222Y-85857009D01*
X166916552Y-85821271D01*
X166999814Y-85719814D01*
X167101271Y-85636552D01*
X167137009Y-85607222D01*
X167293534Y-85523557D01*
X167463373Y-85472037D01*
X167529558Y-85465518D01*
X167595740Y-85459000D01*
X167684260Y-85459000D01*
X167750442Y-85465518D01*
X167750442Y-85465518D01*
G37*
G36*
X165210442Y-85465518D02*
G01*
X165276627Y-85472037D01*
X165446466Y-85523557D01*
X165602991Y-85607222D01*
X165638729Y-85636552D01*
X165740186Y-85719814D01*
X165823448Y-85821271D01*
X165852778Y-85857009D01*
X165936443Y-86013534D01*
X165987963Y-86183373D01*
X166005359Y-86360000D01*
X165987963Y-86536627D01*
X165936443Y-86706466D01*
X165852778Y-86862991D01*
X165823448Y-86898729D01*
X165740186Y-87000186D01*
X165638729Y-87083448D01*
X165602991Y-87112778D01*
X165446466Y-87196443D01*
X165276627Y-87247963D01*
X165210442Y-87254482D01*
X165144260Y-87261000D01*
X165055740Y-87261000D01*
X164989558Y-87254482D01*
X164923373Y-87247963D01*
X164753534Y-87196443D01*
X164597009Y-87112778D01*
X164561271Y-87083448D01*
X164459814Y-87000186D01*
X164376552Y-86898729D01*
X164347222Y-86862991D01*
X164263557Y-86706466D01*
X164212037Y-86536627D01*
X164194641Y-86360000D01*
X164212037Y-86183373D01*
X164263557Y-86013534D01*
X164347222Y-85857009D01*
X164376552Y-85821271D01*
X164459814Y-85719814D01*
X164561271Y-85636552D01*
X164597009Y-85607222D01*
X164753534Y-85523557D01*
X164923373Y-85472037D01*
X164989558Y-85465518D01*
X165055740Y-85459000D01*
X165144260Y-85459000D01*
X165210442Y-85465518D01*
X165210442Y-85465518D01*
G37*
G36*
X155050443Y-82925519D02*
G01*
X155116627Y-82932037D01*
X155286466Y-82983557D01*
X155442991Y-83067222D01*
X155478729Y-83096552D01*
X155580186Y-83179814D01*
X155663448Y-83281271D01*
X155692778Y-83317009D01*
X155776443Y-83473534D01*
X155827963Y-83643373D01*
X155845359Y-83820000D01*
X155827963Y-83996627D01*
X155776443Y-84166466D01*
X155692778Y-84322991D01*
X155663448Y-84358729D01*
X155580186Y-84460186D01*
X155478729Y-84543448D01*
X155442991Y-84572778D01*
X155286466Y-84656443D01*
X155116627Y-84707963D01*
X155050443Y-84714481D01*
X154984260Y-84721000D01*
X154895740Y-84721000D01*
X154829557Y-84714481D01*
X154763373Y-84707963D01*
X154593534Y-84656443D01*
X154437009Y-84572778D01*
X154401271Y-84543448D01*
X154299814Y-84460186D01*
X154216552Y-84358729D01*
X154187222Y-84322991D01*
X154103557Y-84166466D01*
X154052037Y-83996627D01*
X154034641Y-83820000D01*
X154052037Y-83643373D01*
X154103557Y-83473534D01*
X154187222Y-83317009D01*
X154216552Y-83281271D01*
X154299814Y-83179814D01*
X154401271Y-83096552D01*
X154437009Y-83067222D01*
X154593534Y-82983557D01*
X154763373Y-82932037D01*
X154829557Y-82925519D01*
X154895740Y-82919000D01*
X154984260Y-82919000D01*
X155050443Y-82925519D01*
X155050443Y-82925519D01*
G37*
G36*
X167750443Y-82925519D02*
G01*
X167816627Y-82932037D01*
X167986466Y-82983557D01*
X168142991Y-83067222D01*
X168178729Y-83096552D01*
X168280186Y-83179814D01*
X168363448Y-83281271D01*
X168392778Y-83317009D01*
X168476443Y-83473534D01*
X168527963Y-83643373D01*
X168545359Y-83820000D01*
X168527963Y-83996627D01*
X168476443Y-84166466D01*
X168392778Y-84322991D01*
X168363448Y-84358729D01*
X168280186Y-84460186D01*
X168178729Y-84543448D01*
X168142991Y-84572778D01*
X167986466Y-84656443D01*
X167816627Y-84707963D01*
X167750443Y-84714481D01*
X167684260Y-84721000D01*
X167595740Y-84721000D01*
X167529557Y-84714481D01*
X167463373Y-84707963D01*
X167293534Y-84656443D01*
X167137009Y-84572778D01*
X167101271Y-84543448D01*
X166999814Y-84460186D01*
X166916552Y-84358729D01*
X166887222Y-84322991D01*
X166803557Y-84166466D01*
X166752037Y-83996627D01*
X166734641Y-83820000D01*
X166752037Y-83643373D01*
X166803557Y-83473534D01*
X166887222Y-83317009D01*
X166916552Y-83281271D01*
X166999814Y-83179814D01*
X167101271Y-83096552D01*
X167137009Y-83067222D01*
X167293534Y-82983557D01*
X167463373Y-82932037D01*
X167529557Y-82925519D01*
X167595740Y-82919000D01*
X167684260Y-82919000D01*
X167750443Y-82925519D01*
X167750443Y-82925519D01*
G37*
G36*
X152510443Y-82925519D02*
G01*
X152576627Y-82932037D01*
X152746466Y-82983557D01*
X152902991Y-83067222D01*
X152938729Y-83096552D01*
X153040186Y-83179814D01*
X153123448Y-83281271D01*
X153152778Y-83317009D01*
X153236443Y-83473534D01*
X153287963Y-83643373D01*
X153305359Y-83820000D01*
X153287963Y-83996627D01*
X153236443Y-84166466D01*
X153152778Y-84322991D01*
X153123448Y-84358729D01*
X153040186Y-84460186D01*
X152938729Y-84543448D01*
X152902991Y-84572778D01*
X152746466Y-84656443D01*
X152576627Y-84707963D01*
X152510443Y-84714481D01*
X152444260Y-84721000D01*
X152355740Y-84721000D01*
X152289557Y-84714481D01*
X152223373Y-84707963D01*
X152053534Y-84656443D01*
X151897009Y-84572778D01*
X151861271Y-84543448D01*
X151759814Y-84460186D01*
X151676552Y-84358729D01*
X151647222Y-84322991D01*
X151563557Y-84166466D01*
X151512037Y-83996627D01*
X151494641Y-83820000D01*
X151512037Y-83643373D01*
X151563557Y-83473534D01*
X151647222Y-83317009D01*
X151676552Y-83281271D01*
X151759814Y-83179814D01*
X151861271Y-83096552D01*
X151897009Y-83067222D01*
X152053534Y-82983557D01*
X152223373Y-82932037D01*
X152289557Y-82925519D01*
X152355740Y-82919000D01*
X152444260Y-82919000D01*
X152510443Y-82925519D01*
X152510443Y-82925519D01*
G37*
G36*
X165210443Y-82925519D02*
G01*
X165276627Y-82932037D01*
X165446466Y-82983557D01*
X165602991Y-83067222D01*
X165638729Y-83096552D01*
X165740186Y-83179814D01*
X165823448Y-83281271D01*
X165852778Y-83317009D01*
X165936443Y-83473534D01*
X165987963Y-83643373D01*
X166005359Y-83820000D01*
X165987963Y-83996627D01*
X165936443Y-84166466D01*
X165852778Y-84322991D01*
X165823448Y-84358729D01*
X165740186Y-84460186D01*
X165638729Y-84543448D01*
X165602991Y-84572778D01*
X165446466Y-84656443D01*
X165276627Y-84707963D01*
X165210443Y-84714481D01*
X165144260Y-84721000D01*
X165055740Y-84721000D01*
X164989557Y-84714481D01*
X164923373Y-84707963D01*
X164753534Y-84656443D01*
X164597009Y-84572778D01*
X164561271Y-84543448D01*
X164459814Y-84460186D01*
X164376552Y-84358729D01*
X164347222Y-84322991D01*
X164263557Y-84166466D01*
X164212037Y-83996627D01*
X164194641Y-83820000D01*
X164212037Y-83643373D01*
X164263557Y-83473534D01*
X164347222Y-83317009D01*
X164376552Y-83281271D01*
X164459814Y-83179814D01*
X164561271Y-83096552D01*
X164597009Y-83067222D01*
X164753534Y-82983557D01*
X164923373Y-82932037D01*
X164989557Y-82925519D01*
X165055740Y-82919000D01*
X165144260Y-82919000D01*
X165210443Y-82925519D01*
X165210443Y-82925519D01*
G37*
G36*
X158381000Y-84721000D02*
G01*
X156579000Y-84721000D01*
X156579000Y-82919000D01*
X158381000Y-82919000D01*
X158381000Y-84721000D01*
X158381000Y-84721000D01*
G37*
G36*
X155050442Y-80385518D02*
G01*
X155116627Y-80392037D01*
X155286466Y-80443557D01*
X155442991Y-80527222D01*
X155478729Y-80556552D01*
X155580186Y-80639814D01*
X155663448Y-80741271D01*
X155692778Y-80777009D01*
X155776443Y-80933534D01*
X155827963Y-81103373D01*
X155845359Y-81280000D01*
X155827963Y-81456627D01*
X155776443Y-81626466D01*
X155692778Y-81782991D01*
X155663448Y-81818729D01*
X155580186Y-81920186D01*
X155478729Y-82003448D01*
X155442991Y-82032778D01*
X155286466Y-82116443D01*
X155116627Y-82167963D01*
X155050443Y-82174481D01*
X154984260Y-82181000D01*
X154895740Y-82181000D01*
X154829557Y-82174481D01*
X154763373Y-82167963D01*
X154593534Y-82116443D01*
X154437009Y-82032778D01*
X154401271Y-82003448D01*
X154299814Y-81920186D01*
X154216552Y-81818729D01*
X154187222Y-81782991D01*
X154103557Y-81626466D01*
X154052037Y-81456627D01*
X154034641Y-81280000D01*
X154052037Y-81103373D01*
X154103557Y-80933534D01*
X154187222Y-80777009D01*
X154216552Y-80741271D01*
X154299814Y-80639814D01*
X154401271Y-80556552D01*
X154437009Y-80527222D01*
X154593534Y-80443557D01*
X154763373Y-80392037D01*
X154829558Y-80385518D01*
X154895740Y-80379000D01*
X154984260Y-80379000D01*
X155050442Y-80385518D01*
X155050442Y-80385518D01*
G37*
G36*
X158381000Y-82181000D02*
G01*
X156579000Y-82181000D01*
X156579000Y-80379000D01*
X158381000Y-80379000D01*
X158381000Y-82181000D01*
X158381000Y-82181000D01*
G37*
G36*
X152510442Y-80385518D02*
G01*
X152576627Y-80392037D01*
X152746466Y-80443557D01*
X152902991Y-80527222D01*
X152938729Y-80556552D01*
X153040186Y-80639814D01*
X153123448Y-80741271D01*
X153152778Y-80777009D01*
X153236443Y-80933534D01*
X153287963Y-81103373D01*
X153305359Y-81280000D01*
X153287963Y-81456627D01*
X153236443Y-81626466D01*
X153152778Y-81782991D01*
X153123448Y-81818729D01*
X153040186Y-81920186D01*
X152938729Y-82003448D01*
X152902991Y-82032778D01*
X152746466Y-82116443D01*
X152576627Y-82167963D01*
X152510443Y-82174481D01*
X152444260Y-82181000D01*
X152355740Y-82181000D01*
X152289557Y-82174481D01*
X152223373Y-82167963D01*
X152053534Y-82116443D01*
X151897009Y-82032778D01*
X151861271Y-82003448D01*
X151759814Y-81920186D01*
X151676552Y-81818729D01*
X151647222Y-81782991D01*
X151563557Y-81626466D01*
X151512037Y-81456627D01*
X151494641Y-81280000D01*
X151512037Y-81103373D01*
X151563557Y-80933534D01*
X151647222Y-80777009D01*
X151676552Y-80741271D01*
X151759814Y-80639814D01*
X151861271Y-80556552D01*
X151897009Y-80527222D01*
X152053534Y-80443557D01*
X152223373Y-80392037D01*
X152289558Y-80385518D01*
X152355740Y-80379000D01*
X152444260Y-80379000D01*
X152510442Y-80385518D01*
X152510442Y-80385518D01*
G37*
G36*
X167750442Y-80385518D02*
G01*
X167816627Y-80392037D01*
X167986466Y-80443557D01*
X168142991Y-80527222D01*
X168178729Y-80556552D01*
X168280186Y-80639814D01*
X168363448Y-80741271D01*
X168392778Y-80777009D01*
X168476443Y-80933534D01*
X168527963Y-81103373D01*
X168545359Y-81280000D01*
X168527963Y-81456627D01*
X168476443Y-81626466D01*
X168392778Y-81782991D01*
X168363448Y-81818729D01*
X168280186Y-81920186D01*
X168178729Y-82003448D01*
X168142991Y-82032778D01*
X167986466Y-82116443D01*
X167816627Y-82167963D01*
X167750443Y-82174481D01*
X167684260Y-82181000D01*
X167595740Y-82181000D01*
X167529557Y-82174481D01*
X167463373Y-82167963D01*
X167293534Y-82116443D01*
X167137009Y-82032778D01*
X167101271Y-82003448D01*
X166999814Y-81920186D01*
X166916552Y-81818729D01*
X166887222Y-81782991D01*
X166803557Y-81626466D01*
X166752037Y-81456627D01*
X166734641Y-81280000D01*
X166752037Y-81103373D01*
X166803557Y-80933534D01*
X166887222Y-80777009D01*
X166916552Y-80741271D01*
X166999814Y-80639814D01*
X167101271Y-80556552D01*
X167137009Y-80527222D01*
X167293534Y-80443557D01*
X167463373Y-80392037D01*
X167529558Y-80385518D01*
X167595740Y-80379000D01*
X167684260Y-80379000D01*
X167750442Y-80385518D01*
X167750442Y-80385518D01*
G37*
G36*
X165210442Y-80385518D02*
G01*
X165276627Y-80392037D01*
X165446466Y-80443557D01*
X165602991Y-80527222D01*
X165638729Y-80556552D01*
X165740186Y-80639814D01*
X165823448Y-80741271D01*
X165852778Y-80777009D01*
X165936443Y-80933534D01*
X165987963Y-81103373D01*
X166005359Y-81280000D01*
X165987963Y-81456627D01*
X165936443Y-81626466D01*
X165852778Y-81782991D01*
X165823448Y-81818729D01*
X165740186Y-81920186D01*
X165638729Y-82003448D01*
X165602991Y-82032778D01*
X165446466Y-82116443D01*
X165276627Y-82167963D01*
X165210443Y-82174481D01*
X165144260Y-82181000D01*
X165055740Y-82181000D01*
X164989557Y-82174481D01*
X164923373Y-82167963D01*
X164753534Y-82116443D01*
X164597009Y-82032778D01*
X164561271Y-82003448D01*
X164459814Y-81920186D01*
X164376552Y-81818729D01*
X164347222Y-81782991D01*
X164263557Y-81626466D01*
X164212037Y-81456627D01*
X164194641Y-81280000D01*
X164212037Y-81103373D01*
X164263557Y-80933534D01*
X164347222Y-80777009D01*
X164376552Y-80741271D01*
X164459814Y-80639814D01*
X164561271Y-80556552D01*
X164597009Y-80527222D01*
X164753534Y-80443557D01*
X164923373Y-80392037D01*
X164989558Y-80385518D01*
X165055740Y-80379000D01*
X165144260Y-80379000D01*
X165210442Y-80385518D01*
X165210442Y-80385518D01*
G37*
G36*
X165210443Y-77845519D02*
G01*
X165276627Y-77852037D01*
X165446466Y-77903557D01*
X165602991Y-77987222D01*
X165638729Y-78016552D01*
X165740186Y-78099814D01*
X165823448Y-78201271D01*
X165852778Y-78237009D01*
X165936443Y-78393534D01*
X165987963Y-78563373D01*
X166005359Y-78740000D01*
X165987963Y-78916627D01*
X165936443Y-79086466D01*
X165852778Y-79242991D01*
X165823448Y-79278729D01*
X165740186Y-79380186D01*
X165638729Y-79463448D01*
X165602991Y-79492778D01*
X165446466Y-79576443D01*
X165276627Y-79627963D01*
X165210442Y-79634482D01*
X165144260Y-79641000D01*
X165055740Y-79641000D01*
X164989558Y-79634482D01*
X164923373Y-79627963D01*
X164753534Y-79576443D01*
X164597009Y-79492778D01*
X164561271Y-79463448D01*
X164459814Y-79380186D01*
X164376552Y-79278729D01*
X164347222Y-79242991D01*
X164263557Y-79086466D01*
X164212037Y-78916627D01*
X164194641Y-78740000D01*
X164212037Y-78563373D01*
X164263557Y-78393534D01*
X164347222Y-78237009D01*
X164376552Y-78201271D01*
X164459814Y-78099814D01*
X164561271Y-78016552D01*
X164597009Y-77987222D01*
X164753534Y-77903557D01*
X164923373Y-77852037D01*
X164989557Y-77845519D01*
X165055740Y-77839000D01*
X165144260Y-77839000D01*
X165210443Y-77845519D01*
X165210443Y-77845519D01*
G37*
G36*
X152510443Y-77845519D02*
G01*
X152576627Y-77852037D01*
X152746466Y-77903557D01*
X152902991Y-77987222D01*
X152938729Y-78016552D01*
X153040186Y-78099814D01*
X153123448Y-78201271D01*
X153152778Y-78237009D01*
X153236443Y-78393534D01*
X153287963Y-78563373D01*
X153305359Y-78740000D01*
X153287963Y-78916627D01*
X153236443Y-79086466D01*
X153152778Y-79242991D01*
X153123448Y-79278729D01*
X153040186Y-79380186D01*
X152938729Y-79463448D01*
X152902991Y-79492778D01*
X152746466Y-79576443D01*
X152576627Y-79627963D01*
X152510442Y-79634482D01*
X152444260Y-79641000D01*
X152355740Y-79641000D01*
X152289558Y-79634482D01*
X152223373Y-79627963D01*
X152053534Y-79576443D01*
X151897009Y-79492778D01*
X151861271Y-79463448D01*
X151759814Y-79380186D01*
X151676552Y-79278729D01*
X151647222Y-79242991D01*
X151563557Y-79086466D01*
X151512037Y-78916627D01*
X151494641Y-78740000D01*
X151512037Y-78563373D01*
X151563557Y-78393534D01*
X151647222Y-78237009D01*
X151676552Y-78201271D01*
X151759814Y-78099814D01*
X151861271Y-78016552D01*
X151897009Y-77987222D01*
X152053534Y-77903557D01*
X152223373Y-77852037D01*
X152289557Y-77845519D01*
X152355740Y-77839000D01*
X152444260Y-77839000D01*
X152510443Y-77845519D01*
X152510443Y-77845519D01*
G37*
G36*
X155050443Y-77845519D02*
G01*
X155116627Y-77852037D01*
X155286466Y-77903557D01*
X155442991Y-77987222D01*
X155478729Y-78016552D01*
X155580186Y-78099814D01*
X155663448Y-78201271D01*
X155692778Y-78237009D01*
X155776443Y-78393534D01*
X155827963Y-78563373D01*
X155845359Y-78740000D01*
X155827963Y-78916627D01*
X155776443Y-79086466D01*
X155692778Y-79242991D01*
X155663448Y-79278729D01*
X155580186Y-79380186D01*
X155478729Y-79463448D01*
X155442991Y-79492778D01*
X155286466Y-79576443D01*
X155116627Y-79627963D01*
X155050442Y-79634482D01*
X154984260Y-79641000D01*
X154895740Y-79641000D01*
X154829558Y-79634482D01*
X154763373Y-79627963D01*
X154593534Y-79576443D01*
X154437009Y-79492778D01*
X154401271Y-79463448D01*
X154299814Y-79380186D01*
X154216552Y-79278729D01*
X154187222Y-79242991D01*
X154103557Y-79086466D01*
X154052037Y-78916627D01*
X154034641Y-78740000D01*
X154052037Y-78563373D01*
X154103557Y-78393534D01*
X154187222Y-78237009D01*
X154216552Y-78201271D01*
X154299814Y-78099814D01*
X154401271Y-78016552D01*
X154437009Y-77987222D01*
X154593534Y-77903557D01*
X154763373Y-77852037D01*
X154829557Y-77845519D01*
X154895740Y-77839000D01*
X154984260Y-77839000D01*
X155050443Y-77845519D01*
X155050443Y-77845519D01*
G37*
G36*
X158381000Y-79641000D02*
G01*
X156579000Y-79641000D01*
X156579000Y-77839000D01*
X158381000Y-77839000D01*
X158381000Y-79641000D01*
X158381000Y-79641000D01*
G37*
G36*
X167750443Y-77845519D02*
G01*
X167816627Y-77852037D01*
X167986466Y-77903557D01*
X168142991Y-77987222D01*
X168178729Y-78016552D01*
X168280186Y-78099814D01*
X168363448Y-78201271D01*
X168392778Y-78237009D01*
X168476443Y-78393534D01*
X168527963Y-78563373D01*
X168545359Y-78740000D01*
X168527963Y-78916627D01*
X168476443Y-79086466D01*
X168392778Y-79242991D01*
X168363448Y-79278729D01*
X168280186Y-79380186D01*
X168178729Y-79463448D01*
X168142991Y-79492778D01*
X167986466Y-79576443D01*
X167816627Y-79627963D01*
X167750442Y-79634482D01*
X167684260Y-79641000D01*
X167595740Y-79641000D01*
X167529558Y-79634482D01*
X167463373Y-79627963D01*
X167293534Y-79576443D01*
X167137009Y-79492778D01*
X167101271Y-79463448D01*
X166999814Y-79380186D01*
X166916552Y-79278729D01*
X166887222Y-79242991D01*
X166803557Y-79086466D01*
X166752037Y-78916627D01*
X166734641Y-78740000D01*
X166752037Y-78563373D01*
X166803557Y-78393534D01*
X166887222Y-78237009D01*
X166916552Y-78201271D01*
X166999814Y-78099814D01*
X167101271Y-78016552D01*
X167137009Y-77987222D01*
X167293534Y-77903557D01*
X167463373Y-77852037D01*
X167529557Y-77845519D01*
X167595740Y-77839000D01*
X167684260Y-77839000D01*
X167750443Y-77845519D01*
X167750443Y-77845519D01*
G37*
G36*
X165210442Y-75305518D02*
G01*
X165276627Y-75312037D01*
X165446466Y-75363557D01*
X165602991Y-75447222D01*
X165638729Y-75476552D01*
X165740186Y-75559814D01*
X165823448Y-75661271D01*
X165852778Y-75697009D01*
X165936443Y-75853534D01*
X165987963Y-76023373D01*
X166005359Y-76200000D01*
X165987963Y-76376627D01*
X165936443Y-76546466D01*
X165852778Y-76702991D01*
X165823448Y-76738729D01*
X165740186Y-76840186D01*
X165638729Y-76923448D01*
X165602991Y-76952778D01*
X165446466Y-77036443D01*
X165276627Y-77087963D01*
X165210442Y-77094482D01*
X165144260Y-77101000D01*
X165055740Y-77101000D01*
X164989558Y-77094482D01*
X164923373Y-77087963D01*
X164753534Y-77036443D01*
X164597009Y-76952778D01*
X164561271Y-76923448D01*
X164459814Y-76840186D01*
X164376552Y-76738729D01*
X164347222Y-76702991D01*
X164263557Y-76546466D01*
X164212037Y-76376627D01*
X164194641Y-76200000D01*
X164212037Y-76023373D01*
X164263557Y-75853534D01*
X164347222Y-75697009D01*
X164376552Y-75661271D01*
X164459814Y-75559814D01*
X164561271Y-75476552D01*
X164597009Y-75447222D01*
X164753534Y-75363557D01*
X164923373Y-75312037D01*
X164989558Y-75305518D01*
X165055740Y-75299000D01*
X165144260Y-75299000D01*
X165210442Y-75305518D01*
X165210442Y-75305518D01*
G37*
G36*
X167750442Y-75305518D02*
G01*
X167816627Y-75312037D01*
X167986466Y-75363557D01*
X168142991Y-75447222D01*
X168178729Y-75476552D01*
X168280186Y-75559814D01*
X168363448Y-75661271D01*
X168392778Y-75697009D01*
X168476443Y-75853534D01*
X168527963Y-76023373D01*
X168545359Y-76200000D01*
X168527963Y-76376627D01*
X168476443Y-76546466D01*
X168392778Y-76702991D01*
X168363448Y-76738729D01*
X168280186Y-76840186D01*
X168178729Y-76923448D01*
X168142991Y-76952778D01*
X167986466Y-77036443D01*
X167816627Y-77087963D01*
X167750442Y-77094482D01*
X167684260Y-77101000D01*
X167595740Y-77101000D01*
X167529558Y-77094482D01*
X167463373Y-77087963D01*
X167293534Y-77036443D01*
X167137009Y-76952778D01*
X167101271Y-76923448D01*
X166999814Y-76840186D01*
X166916552Y-76738729D01*
X166887222Y-76702991D01*
X166803557Y-76546466D01*
X166752037Y-76376627D01*
X166734641Y-76200000D01*
X166752037Y-76023373D01*
X166803557Y-75853534D01*
X166887222Y-75697009D01*
X166916552Y-75661271D01*
X166999814Y-75559814D01*
X167101271Y-75476552D01*
X167137009Y-75447222D01*
X167293534Y-75363557D01*
X167463373Y-75312037D01*
X167529558Y-75305518D01*
X167595740Y-75299000D01*
X167684260Y-75299000D01*
X167750442Y-75305518D01*
X167750442Y-75305518D01*
G37*
G36*
X165210442Y-72765518D02*
G01*
X165276627Y-72772037D01*
X165446466Y-72823557D01*
X165602991Y-72907222D01*
X165638729Y-72936552D01*
X165740186Y-73019814D01*
X165823448Y-73121271D01*
X165852778Y-73157009D01*
X165936443Y-73313534D01*
X165987963Y-73483373D01*
X166005359Y-73660000D01*
X165987963Y-73836627D01*
X165936443Y-74006466D01*
X165852778Y-74162991D01*
X165823448Y-74198729D01*
X165740186Y-74300186D01*
X165638729Y-74383448D01*
X165602991Y-74412778D01*
X165446466Y-74496443D01*
X165276627Y-74547963D01*
X165210442Y-74554482D01*
X165144260Y-74561000D01*
X165055740Y-74561000D01*
X164989558Y-74554482D01*
X164923373Y-74547963D01*
X164753534Y-74496443D01*
X164597009Y-74412778D01*
X164561271Y-74383448D01*
X164459814Y-74300186D01*
X164376552Y-74198729D01*
X164347222Y-74162991D01*
X164263557Y-74006466D01*
X164212037Y-73836627D01*
X164194641Y-73660000D01*
X164212037Y-73483373D01*
X164263557Y-73313534D01*
X164347222Y-73157009D01*
X164376552Y-73121271D01*
X164459814Y-73019814D01*
X164561271Y-72936552D01*
X164597009Y-72907222D01*
X164753534Y-72823557D01*
X164923373Y-72772037D01*
X164989558Y-72765518D01*
X165055740Y-72759000D01*
X165144260Y-72759000D01*
X165210442Y-72765518D01*
X165210442Y-72765518D01*
G37*
G36*
X152510442Y-72765518D02*
G01*
X152576627Y-72772037D01*
X152746466Y-72823557D01*
X152902991Y-72907222D01*
X152938729Y-72936552D01*
X153040186Y-73019814D01*
X153123448Y-73121271D01*
X153152778Y-73157009D01*
X153236443Y-73313534D01*
X153287963Y-73483373D01*
X153305359Y-73660000D01*
X153287963Y-73836627D01*
X153236443Y-74006466D01*
X153152778Y-74162991D01*
X153123448Y-74198729D01*
X153040186Y-74300186D01*
X152938729Y-74383448D01*
X152902991Y-74412778D01*
X152746466Y-74496443D01*
X152576627Y-74547963D01*
X152510442Y-74554482D01*
X152444260Y-74561000D01*
X152355740Y-74561000D01*
X152289558Y-74554482D01*
X152223373Y-74547963D01*
X152053534Y-74496443D01*
X151897009Y-74412778D01*
X151861271Y-74383448D01*
X151759814Y-74300186D01*
X151676552Y-74198729D01*
X151647222Y-74162991D01*
X151563557Y-74006466D01*
X151512037Y-73836627D01*
X151494641Y-73660000D01*
X151512037Y-73483373D01*
X151563557Y-73313534D01*
X151647222Y-73157009D01*
X151676552Y-73121271D01*
X151759814Y-73019814D01*
X151861271Y-72936552D01*
X151897009Y-72907222D01*
X152053534Y-72823557D01*
X152223373Y-72772037D01*
X152289558Y-72765518D01*
X152355740Y-72759000D01*
X152444260Y-72759000D01*
X152510442Y-72765518D01*
X152510442Y-72765518D01*
G37*
G36*
X167750442Y-72765518D02*
G01*
X167816627Y-72772037D01*
X167986466Y-72823557D01*
X168142991Y-72907222D01*
X168178729Y-72936552D01*
X168280186Y-73019814D01*
X168363448Y-73121271D01*
X168392778Y-73157009D01*
X168476443Y-73313534D01*
X168527963Y-73483373D01*
X168545359Y-73660000D01*
X168527963Y-73836627D01*
X168476443Y-74006466D01*
X168392778Y-74162991D01*
X168363448Y-74198729D01*
X168280186Y-74300186D01*
X168178729Y-74383448D01*
X168142991Y-74412778D01*
X167986466Y-74496443D01*
X167816627Y-74547963D01*
X167750442Y-74554482D01*
X167684260Y-74561000D01*
X167595740Y-74561000D01*
X167529558Y-74554482D01*
X167463373Y-74547963D01*
X167293534Y-74496443D01*
X167137009Y-74412778D01*
X167101271Y-74383448D01*
X166999814Y-74300186D01*
X166916552Y-74198729D01*
X166887222Y-74162991D01*
X166803557Y-74006466D01*
X166752037Y-73836627D01*
X166734641Y-73660000D01*
X166752037Y-73483373D01*
X166803557Y-73313534D01*
X166887222Y-73157009D01*
X166916552Y-73121271D01*
X166999814Y-73019814D01*
X167101271Y-72936552D01*
X167137009Y-72907222D01*
X167293534Y-72823557D01*
X167463373Y-72772037D01*
X167529558Y-72765518D01*
X167595740Y-72759000D01*
X167684260Y-72759000D01*
X167750442Y-72765518D01*
X167750442Y-72765518D01*
G37*
G36*
X155050442Y-72765518D02*
G01*
X155116627Y-72772037D01*
X155286466Y-72823557D01*
X155442991Y-72907222D01*
X155478729Y-72936552D01*
X155580186Y-73019814D01*
X155663448Y-73121271D01*
X155692778Y-73157009D01*
X155776443Y-73313534D01*
X155827963Y-73483373D01*
X155845359Y-73660000D01*
X155827963Y-73836627D01*
X155776443Y-74006466D01*
X155692778Y-74162991D01*
X155663448Y-74198729D01*
X155580186Y-74300186D01*
X155478729Y-74383448D01*
X155442991Y-74412778D01*
X155286466Y-74496443D01*
X155116627Y-74547963D01*
X155050442Y-74554482D01*
X154984260Y-74561000D01*
X154895740Y-74561000D01*
X154829558Y-74554482D01*
X154763373Y-74547963D01*
X154593534Y-74496443D01*
X154437009Y-74412778D01*
X154401271Y-74383448D01*
X154299814Y-74300186D01*
X154216552Y-74198729D01*
X154187222Y-74162991D01*
X154103557Y-74006466D01*
X154052037Y-73836627D01*
X154034641Y-73660000D01*
X154052037Y-73483373D01*
X154103557Y-73313534D01*
X154187222Y-73157009D01*
X154216552Y-73121271D01*
X154299814Y-73019814D01*
X154401271Y-72936552D01*
X154437009Y-72907222D01*
X154593534Y-72823557D01*
X154763373Y-72772037D01*
X154829558Y-72765518D01*
X154895740Y-72759000D01*
X154984260Y-72759000D01*
X155050442Y-72765518D01*
X155050442Y-72765518D01*
G37*
G36*
X158381000Y-74561000D02*
G01*
X156579000Y-74561000D01*
X156579000Y-72759000D01*
X158381000Y-72759000D01*
X158381000Y-74561000D01*
X158381000Y-74561000D01*
G37*
G36*
X158381000Y-72021000D02*
G01*
X156579000Y-72021000D01*
X156579000Y-70219000D01*
X158381000Y-70219000D01*
X158381000Y-72021000D01*
X158381000Y-72021000D01*
G37*
G36*
X165210442Y-70225518D02*
G01*
X165276627Y-70232037D01*
X165446466Y-70283557D01*
X165602991Y-70367222D01*
X165638729Y-70396552D01*
X165740186Y-70479814D01*
X165823448Y-70581271D01*
X165852778Y-70617009D01*
X165936443Y-70773534D01*
X165987963Y-70943373D01*
X166005359Y-71120000D01*
X165987963Y-71296627D01*
X165936443Y-71466466D01*
X165852778Y-71622991D01*
X165823448Y-71658729D01*
X165740186Y-71760186D01*
X165638729Y-71843448D01*
X165602991Y-71872778D01*
X165446466Y-71956443D01*
X165276627Y-72007963D01*
X165210443Y-72014481D01*
X165144260Y-72021000D01*
X165055740Y-72021000D01*
X164989557Y-72014481D01*
X164923373Y-72007963D01*
X164753534Y-71956443D01*
X164597009Y-71872778D01*
X164561271Y-71843448D01*
X164459814Y-71760186D01*
X164376552Y-71658729D01*
X164347222Y-71622991D01*
X164263557Y-71466466D01*
X164212037Y-71296627D01*
X164194641Y-71120000D01*
X164212037Y-70943373D01*
X164263557Y-70773534D01*
X164347222Y-70617009D01*
X164376552Y-70581271D01*
X164459814Y-70479814D01*
X164561271Y-70396552D01*
X164597009Y-70367222D01*
X164753534Y-70283557D01*
X164923373Y-70232037D01*
X164989558Y-70225518D01*
X165055740Y-70219000D01*
X165144260Y-70219000D01*
X165210442Y-70225518D01*
X165210442Y-70225518D01*
G37*
G36*
X167750442Y-70225518D02*
G01*
X167816627Y-70232037D01*
X167986466Y-70283557D01*
X168142991Y-70367222D01*
X168178729Y-70396552D01*
X168280186Y-70479814D01*
X168363448Y-70581271D01*
X168392778Y-70617009D01*
X168476443Y-70773534D01*
X168527963Y-70943373D01*
X168545359Y-71120000D01*
X168527963Y-71296627D01*
X168476443Y-71466466D01*
X168392778Y-71622991D01*
X168363448Y-71658729D01*
X168280186Y-71760186D01*
X168178729Y-71843448D01*
X168142991Y-71872778D01*
X167986466Y-71956443D01*
X167816627Y-72007963D01*
X167750443Y-72014481D01*
X167684260Y-72021000D01*
X167595740Y-72021000D01*
X167529557Y-72014481D01*
X167463373Y-72007963D01*
X167293534Y-71956443D01*
X167137009Y-71872778D01*
X167101271Y-71843448D01*
X166999814Y-71760186D01*
X166916552Y-71658729D01*
X166887222Y-71622991D01*
X166803557Y-71466466D01*
X166752037Y-71296627D01*
X166734641Y-71120000D01*
X166752037Y-70943373D01*
X166803557Y-70773534D01*
X166887222Y-70617009D01*
X166916552Y-70581271D01*
X166999814Y-70479814D01*
X167101271Y-70396552D01*
X167137009Y-70367222D01*
X167293534Y-70283557D01*
X167463373Y-70232037D01*
X167529558Y-70225518D01*
X167595740Y-70219000D01*
X167684260Y-70219000D01*
X167750442Y-70225518D01*
X167750442Y-70225518D01*
G37*
G36*
X152510442Y-70225518D02*
G01*
X152576627Y-70232037D01*
X152746466Y-70283557D01*
X152902991Y-70367222D01*
X152938729Y-70396552D01*
X153040186Y-70479814D01*
X153123448Y-70581271D01*
X153152778Y-70617009D01*
X153236443Y-70773534D01*
X153287963Y-70943373D01*
X153305359Y-71120000D01*
X153287963Y-71296627D01*
X153236443Y-71466466D01*
X153152778Y-71622991D01*
X153123448Y-71658729D01*
X153040186Y-71760186D01*
X152938729Y-71843448D01*
X152902991Y-71872778D01*
X152746466Y-71956443D01*
X152576627Y-72007963D01*
X152510443Y-72014481D01*
X152444260Y-72021000D01*
X152355740Y-72021000D01*
X152289557Y-72014481D01*
X152223373Y-72007963D01*
X152053534Y-71956443D01*
X151897009Y-71872778D01*
X151861271Y-71843448D01*
X151759814Y-71760186D01*
X151676552Y-71658729D01*
X151647222Y-71622991D01*
X151563557Y-71466466D01*
X151512037Y-71296627D01*
X151494641Y-71120000D01*
X151512037Y-70943373D01*
X151563557Y-70773534D01*
X151647222Y-70617009D01*
X151676552Y-70581271D01*
X151759814Y-70479814D01*
X151861271Y-70396552D01*
X151897009Y-70367222D01*
X152053534Y-70283557D01*
X152223373Y-70232037D01*
X152289558Y-70225518D01*
X152355740Y-70219000D01*
X152444260Y-70219000D01*
X152510442Y-70225518D01*
X152510442Y-70225518D01*
G37*
G36*
X155050442Y-70225518D02*
G01*
X155116627Y-70232037D01*
X155286466Y-70283557D01*
X155442991Y-70367222D01*
X155478729Y-70396552D01*
X155580186Y-70479814D01*
X155663448Y-70581271D01*
X155692778Y-70617009D01*
X155776443Y-70773534D01*
X155827963Y-70943373D01*
X155845359Y-71120000D01*
X155827963Y-71296627D01*
X155776443Y-71466466D01*
X155692778Y-71622991D01*
X155663448Y-71658729D01*
X155580186Y-71760186D01*
X155478729Y-71843448D01*
X155442991Y-71872778D01*
X155286466Y-71956443D01*
X155116627Y-72007963D01*
X155050443Y-72014481D01*
X154984260Y-72021000D01*
X154895740Y-72021000D01*
X154829557Y-72014481D01*
X154763373Y-72007963D01*
X154593534Y-71956443D01*
X154437009Y-71872778D01*
X154401271Y-71843448D01*
X154299814Y-71760186D01*
X154216552Y-71658729D01*
X154187222Y-71622991D01*
X154103557Y-71466466D01*
X154052037Y-71296627D01*
X154034641Y-71120000D01*
X154052037Y-70943373D01*
X154103557Y-70773534D01*
X154187222Y-70617009D01*
X154216552Y-70581271D01*
X154299814Y-70479814D01*
X154401271Y-70396552D01*
X154437009Y-70367222D01*
X154593534Y-70283557D01*
X154763373Y-70232037D01*
X154829558Y-70225518D01*
X154895740Y-70219000D01*
X154984260Y-70219000D01*
X155050442Y-70225518D01*
X155050442Y-70225518D01*
G37*
G36*
X167750443Y-67685519D02*
G01*
X167816627Y-67692037D01*
X167986466Y-67743557D01*
X168142991Y-67827222D01*
X168178729Y-67856552D01*
X168280186Y-67939814D01*
X168363448Y-68041271D01*
X168392778Y-68077009D01*
X168476443Y-68233534D01*
X168527963Y-68403373D01*
X168545359Y-68580000D01*
X168527963Y-68756627D01*
X168476443Y-68926466D01*
X168392778Y-69082991D01*
X168363448Y-69118729D01*
X168280186Y-69220186D01*
X168178729Y-69303448D01*
X168142991Y-69332778D01*
X167986466Y-69416443D01*
X167816627Y-69467963D01*
X167750442Y-69474482D01*
X167684260Y-69481000D01*
X167595740Y-69481000D01*
X167529558Y-69474482D01*
X167463373Y-69467963D01*
X167293534Y-69416443D01*
X167137009Y-69332778D01*
X167101271Y-69303448D01*
X166999814Y-69220186D01*
X166916552Y-69118729D01*
X166887222Y-69082991D01*
X166803557Y-68926466D01*
X166752037Y-68756627D01*
X166734641Y-68580000D01*
X166752037Y-68403373D01*
X166803557Y-68233534D01*
X166887222Y-68077009D01*
X166916552Y-68041271D01*
X166999814Y-67939814D01*
X167101271Y-67856552D01*
X167137009Y-67827222D01*
X167293534Y-67743557D01*
X167463373Y-67692037D01*
X167529557Y-67685519D01*
X167595740Y-67679000D01*
X167684260Y-67679000D01*
X167750443Y-67685519D01*
X167750443Y-67685519D01*
G37*
G36*
X166001000Y-69481000D02*
G01*
X164199000Y-69481000D01*
X164199000Y-67679000D01*
X166001000Y-67679000D01*
X166001000Y-69481000D01*
X166001000Y-69481000D01*
G37*
G36*
X152510443Y-67685519D02*
G01*
X152576627Y-67692037D01*
X152746466Y-67743557D01*
X152902991Y-67827222D01*
X152938729Y-67856552D01*
X153040186Y-67939814D01*
X153123448Y-68041271D01*
X153152778Y-68077009D01*
X153236443Y-68233534D01*
X153287963Y-68403373D01*
X153305359Y-68580000D01*
X153287963Y-68756627D01*
X153236443Y-68926466D01*
X153152778Y-69082991D01*
X153123448Y-69118729D01*
X153040186Y-69220186D01*
X152938729Y-69303448D01*
X152902991Y-69332778D01*
X152746466Y-69416443D01*
X152576627Y-69467963D01*
X152510442Y-69474482D01*
X152444260Y-69481000D01*
X152355740Y-69481000D01*
X152289558Y-69474482D01*
X152223373Y-69467963D01*
X152053534Y-69416443D01*
X151897009Y-69332778D01*
X151861271Y-69303448D01*
X151759814Y-69220186D01*
X151676552Y-69118729D01*
X151647222Y-69082991D01*
X151563557Y-68926466D01*
X151512037Y-68756627D01*
X151494641Y-68580000D01*
X151512037Y-68403373D01*
X151563557Y-68233534D01*
X151647222Y-68077009D01*
X151676552Y-68041271D01*
X151759814Y-67939814D01*
X151861271Y-67856552D01*
X151897009Y-67827222D01*
X152053534Y-67743557D01*
X152223373Y-67692037D01*
X152289557Y-67685519D01*
X152355740Y-67679000D01*
X152444260Y-67679000D01*
X152510443Y-67685519D01*
X152510443Y-67685519D01*
G37*
G36*
X155050443Y-67685519D02*
G01*
X155116627Y-67692037D01*
X155286466Y-67743557D01*
X155442991Y-67827222D01*
X155478729Y-67856552D01*
X155580186Y-67939814D01*
X155663448Y-68041271D01*
X155692778Y-68077009D01*
X155776443Y-68233534D01*
X155827963Y-68403373D01*
X155845359Y-68580000D01*
X155827963Y-68756627D01*
X155776443Y-68926466D01*
X155692778Y-69082991D01*
X155663448Y-69118729D01*
X155580186Y-69220186D01*
X155478729Y-69303448D01*
X155442991Y-69332778D01*
X155286466Y-69416443D01*
X155116627Y-69467963D01*
X155050442Y-69474482D01*
X154984260Y-69481000D01*
X154895740Y-69481000D01*
X154829558Y-69474482D01*
X154763373Y-69467963D01*
X154593534Y-69416443D01*
X154437009Y-69332778D01*
X154401271Y-69303448D01*
X154299814Y-69220186D01*
X154216552Y-69118729D01*
X154187222Y-69082991D01*
X154103557Y-68926466D01*
X154052037Y-68756627D01*
X154034641Y-68580000D01*
X154052037Y-68403373D01*
X154103557Y-68233534D01*
X154187222Y-68077009D01*
X154216552Y-68041271D01*
X154299814Y-67939814D01*
X154401271Y-67856552D01*
X154437009Y-67827222D01*
X154593534Y-67743557D01*
X154763373Y-67692037D01*
X154829557Y-67685519D01*
X154895740Y-67679000D01*
X154984260Y-67679000D01*
X155050443Y-67685519D01*
X155050443Y-67685519D01*
G37*
G36*
X158381000Y-69481000D02*
G01*
X156579000Y-69481000D01*
X156579000Y-67679000D01*
X158381000Y-67679000D01*
X158381000Y-69481000D01*
X158381000Y-69481000D01*
G37*
G36*
X153301000Y-64401000D02*
G01*
X151499000Y-64401000D01*
X151499000Y-62599000D01*
X153301000Y-62599000D01*
X153301000Y-64401000D01*
X153301000Y-64401000D01*
G37*
G36*
X155050442Y-62605518D02*
G01*
X155116627Y-62612037D01*
X155286466Y-62663557D01*
X155442991Y-62747222D01*
X155478729Y-62776552D01*
X155580186Y-62859814D01*
X155663448Y-62961271D01*
X155692778Y-62997009D01*
X155776443Y-63153534D01*
X155827963Y-63323373D01*
X155845359Y-63500000D01*
X155827963Y-63676627D01*
X155776443Y-63846466D01*
X155692778Y-64002991D01*
X155663448Y-64038729D01*
X155580186Y-64140186D01*
X155478729Y-64223448D01*
X155442991Y-64252778D01*
X155286466Y-64336443D01*
X155116627Y-64387963D01*
X155050442Y-64394482D01*
X154984260Y-64401000D01*
X154895740Y-64401000D01*
X154829558Y-64394482D01*
X154763373Y-64387963D01*
X154593534Y-64336443D01*
X154437009Y-64252778D01*
X154401271Y-64223448D01*
X154299814Y-64140186D01*
X154216552Y-64038729D01*
X154187222Y-64002991D01*
X154103557Y-63846466D01*
X154052037Y-63676627D01*
X154034641Y-63500000D01*
X154052037Y-63323373D01*
X154103557Y-63153534D01*
X154187222Y-62997009D01*
X154216552Y-62961271D01*
X154299814Y-62859814D01*
X154401271Y-62776552D01*
X154437009Y-62747222D01*
X154593534Y-62663557D01*
X154763373Y-62612037D01*
X154829558Y-62605518D01*
X154895740Y-62599000D01*
X154984260Y-62599000D01*
X155050442Y-62605518D01*
X155050442Y-62605518D01*
G37*
G36*
X167750442Y-62605518D02*
G01*
X167816627Y-62612037D01*
X167986466Y-62663557D01*
X168142991Y-62747222D01*
X168178729Y-62776552D01*
X168280186Y-62859814D01*
X168363448Y-62961271D01*
X168392778Y-62997009D01*
X168476443Y-63153534D01*
X168527963Y-63323373D01*
X168545359Y-63500000D01*
X168527963Y-63676627D01*
X168476443Y-63846466D01*
X168392778Y-64002991D01*
X168363448Y-64038729D01*
X168280186Y-64140186D01*
X168178729Y-64223448D01*
X168142991Y-64252778D01*
X167986466Y-64336443D01*
X167816627Y-64387963D01*
X167750442Y-64394482D01*
X167684260Y-64401000D01*
X167595740Y-64401000D01*
X167529558Y-64394482D01*
X167463373Y-64387963D01*
X167293534Y-64336443D01*
X167137009Y-64252778D01*
X167101271Y-64223448D01*
X166999814Y-64140186D01*
X166916552Y-64038729D01*
X166887222Y-64002991D01*
X166803557Y-63846466D01*
X166752037Y-63676627D01*
X166734641Y-63500000D01*
X166752037Y-63323373D01*
X166803557Y-63153534D01*
X166887222Y-62997009D01*
X166916552Y-62961271D01*
X166999814Y-62859814D01*
X167101271Y-62776552D01*
X167137009Y-62747222D01*
X167293534Y-62663557D01*
X167463373Y-62612037D01*
X167529558Y-62605518D01*
X167595740Y-62599000D01*
X167684260Y-62599000D01*
X167750442Y-62605518D01*
X167750442Y-62605518D01*
G37*
G36*
X166001000Y-64401000D02*
G01*
X164199000Y-64401000D01*
X164199000Y-62599000D01*
X166001000Y-62599000D01*
X166001000Y-64401000D01*
X166001000Y-64401000D01*
G37*
M02*
