M48
; DRILL file {KiCad (5.1.4-0-10_14)} date Wednesday, April 22, 2020 at 11:02:19 AM
; FORMAT={-:-/ absolute / inch / decimal}
; #@! TF.CreationDate,2020-04-22T11:02:19-07:00
; #@! TF.GenerationSoftware,Kicad,Pcbnew,(5.1.4-0-10_14)
; #@! TF.FileFunction,Plated,1,2,PTH
FMAT,2
INCH
T1C0.0394
T2C0.1772
%
G90
G05
T1
X6.0Y-3.7
X6.1Y-3.7
X6.2Y-3.7
X6.0Y-4.0
X6.1Y-4.0
X6.2Y-4.0
X6.5Y-2.7
X6.5Y-2.8
X6.5Y-2.9
X6.5Y-3.0
X6.5Y-3.1
X6.5Y-3.2
X6.5Y-3.3
X6.5Y-3.4
X6.5Y-3.5
X6.5Y-3.6
X6.5Y-3.7
X6.5Y-3.8
X6.5Y-3.9
X6.5Y-4.0
X6.5Y-4.1
X6.5Y-4.2
X6.5Y-4.3
X6.5Y-4.4
X6.5Y-4.5
X6.5Y-4.6
X6.6Y-2.7
X6.6Y-2.8
X6.6Y-2.9
X6.6Y-3.0
X6.6Y-3.1
X6.6Y-3.2
X6.6Y-3.3
X6.6Y-3.4
X6.6Y-3.5
X6.6Y-3.6
X6.6Y-3.7
X6.6Y-3.8
X6.6Y-3.9
X6.6Y-4.0
X6.6Y-4.1
X6.6Y-4.2
X6.6Y-4.3
X6.6Y-4.4
X6.1Y-2.9
X6.6Y-4.5
X6.1Y-3.5
X6.2Y-3.5
X6.2Y-2.9
X6.6Y-4.6
X6.0Y-3.5
X6.0Y-2.9
X6.5Y-2.5
X6.6Y-2.5
X6.0Y-3.6
X6.1Y-3.6
X6.2Y-3.6
X6.0Y-2.8
X6.1Y-2.8
X6.2Y-2.8
X6.1Y-4.1
X6.2Y-4.1
X6.1Y-3.3
X6.0Y-3.2
X6.1Y-3.2
X6.2Y-3.2
X6.0Y-3.1
X6.1Y-3.1
X6.2Y-3.1
X6.0Y-4.1
X6.0Y-3.3
X6.2Y-3.3
X6.0Y-2.5
X6.1Y-2.5
X6.0Y-3.9
X6.1Y-3.9
X6.2Y-3.9
X6.0Y-2.7
X6.1Y-2.7
X6.2Y-2.7
T2
X5.9165Y-4.5
X6.2Y-4.5
T0
M30
