G04 #@! TF.GenerationSoftware,KiCad,Pcbnew,(5.1.4-0-10_14)*
G04 #@! TF.CreationDate,2020-04-22T11:02:22-07:00*
G04 #@! TF.ProjectId,ServoPower2,53657276-6f50-46f7-9765-72322e6b6963,rev?*
G04 #@! TF.SameCoordinates,Original*
G04 #@! TF.FileFunction,Copper,L2,Bot*
G04 #@! TF.FilePolarity,Positive*
%FSLAX46Y46*%
G04 Gerber Fmt 4.6, Leading zero omitted, Abs format (unit mm)*
G04 Created by KiCad (PCBNEW (5.1.4-0-10_14)) date 2020-04-22 11:02:22*
%MOMM*%
%LPD*%
G04 APERTURE LIST*
%ADD10C,0.100000*%
%ADD11C,6.000000*%
%ADD12R,1.700000X1.700000*%
%ADD13O,1.700000X1.700000*%
%ADD14C,0.254000*%
G04 APERTURE END LIST*
D10*
G36*
X159127026Y-111307223D02*
G01*
X159272635Y-111328822D01*
X159415427Y-111364589D01*
X159554025Y-111414181D01*
X159687095Y-111477118D01*
X159813355Y-111552796D01*
X159931590Y-111640484D01*
X160040660Y-111739340D01*
X160139516Y-111848410D01*
X160227204Y-111966645D01*
X160302882Y-112092905D01*
X160365819Y-112225975D01*
X160415411Y-112364573D01*
X160451178Y-112507365D01*
X160472777Y-112652974D01*
X160480000Y-112800000D01*
X160480000Y-115800000D01*
X160472777Y-115947026D01*
X160451178Y-116092635D01*
X160415411Y-116235427D01*
X160365819Y-116374025D01*
X160302882Y-116507095D01*
X160227204Y-116633355D01*
X160139516Y-116751590D01*
X160040660Y-116860660D01*
X159931590Y-116959516D01*
X159813355Y-117047204D01*
X159687095Y-117122882D01*
X159554025Y-117185819D01*
X159415427Y-117235411D01*
X159272635Y-117271178D01*
X159127026Y-117292777D01*
X158980000Y-117300000D01*
X155980000Y-117300000D01*
X155832974Y-117292777D01*
X155687365Y-117271178D01*
X155544573Y-117235411D01*
X155405975Y-117185819D01*
X155272905Y-117122882D01*
X155146645Y-117047204D01*
X155028410Y-116959516D01*
X154919340Y-116860660D01*
X154820484Y-116751590D01*
X154732796Y-116633355D01*
X154657118Y-116507095D01*
X154594181Y-116374025D01*
X154544589Y-116235427D01*
X154508822Y-116092635D01*
X154487223Y-115947026D01*
X154480000Y-115800000D01*
X154480000Y-112800000D01*
X154487223Y-112652974D01*
X154508822Y-112507365D01*
X154544589Y-112364573D01*
X154594181Y-112225975D01*
X154657118Y-112092905D01*
X154732796Y-111966645D01*
X154820484Y-111848410D01*
X154919340Y-111739340D01*
X155028410Y-111640484D01*
X155146645Y-111552796D01*
X155272905Y-111477118D01*
X155405975Y-111414181D01*
X155544573Y-111364589D01*
X155687365Y-111328822D01*
X155832974Y-111307223D01*
X155980000Y-111300000D01*
X158980000Y-111300000D01*
X159127026Y-111307223D01*
X159127026Y-111307223D01*
G37*
D11*
X157480000Y-114300000D03*
X150280000Y-114300000D03*
D12*
X165100000Y-63500000D03*
D13*
X167640000Y-63500000D03*
X154940000Y-63500000D03*
D12*
X152400000Y-63500000D03*
D13*
X167640000Y-116840000D03*
X165100000Y-116840000D03*
X167640000Y-114300000D03*
X165100000Y-114300000D03*
X167640000Y-111760000D03*
X165100000Y-111760000D03*
X167640000Y-109220000D03*
X165100000Y-109220000D03*
X167640000Y-106680000D03*
X165100000Y-106680000D03*
X167640000Y-104140000D03*
X165100000Y-104140000D03*
X167640000Y-101600000D03*
X165100000Y-101600000D03*
X167640000Y-99060000D03*
X165100000Y-99060000D03*
X167640000Y-96520000D03*
X165100000Y-96520000D03*
X167640000Y-93980000D03*
X165100000Y-93980000D03*
X167640000Y-91440000D03*
X165100000Y-91440000D03*
X167640000Y-88900000D03*
X165100000Y-88900000D03*
X167640000Y-86360000D03*
X165100000Y-86360000D03*
X167640000Y-83820000D03*
X165100000Y-83820000D03*
X167640000Y-81280000D03*
X165100000Y-81280000D03*
X167640000Y-78740000D03*
X165100000Y-78740000D03*
X167640000Y-76200000D03*
X165100000Y-76200000D03*
X167640000Y-73660000D03*
X165100000Y-73660000D03*
X167640000Y-71120000D03*
X165100000Y-71120000D03*
X167640000Y-68580000D03*
D12*
X165100000Y-68580000D03*
D13*
X152400000Y-104140000D03*
X154940000Y-104140000D03*
D12*
X157480000Y-104140000D03*
D13*
X152400000Y-93980000D03*
X154940000Y-93980000D03*
D12*
X157480000Y-93980000D03*
D13*
X152400000Y-83820000D03*
X154940000Y-83820000D03*
D12*
X157480000Y-83820000D03*
D13*
X152400000Y-101600000D03*
X154940000Y-101600000D03*
D12*
X157480000Y-101600000D03*
D13*
X152400000Y-91440000D03*
X154940000Y-91440000D03*
D12*
X157480000Y-91440000D03*
D13*
X152400000Y-81280000D03*
X154940000Y-81280000D03*
D12*
X157480000Y-81280000D03*
D13*
X152400000Y-99060000D03*
X154940000Y-99060000D03*
D12*
X157480000Y-99060000D03*
D13*
X152400000Y-88900000D03*
X154940000Y-88900000D03*
D12*
X157480000Y-88900000D03*
D13*
X152400000Y-78740000D03*
X154940000Y-78740000D03*
D12*
X157480000Y-78740000D03*
X157480000Y-68580000D03*
D13*
X154940000Y-68580000D03*
X152400000Y-68580000D03*
D12*
X157480000Y-73660000D03*
D13*
X154940000Y-73660000D03*
X152400000Y-73660000D03*
X152400000Y-71120000D03*
X154940000Y-71120000D03*
D12*
X157480000Y-71120000D03*
D14*
G36*
X145355406Y-59989600D02*
G01*
X145400076Y-59994000D01*
X168924924Y-59994000D01*
X168969594Y-59989600D01*
X169003025Y-59979459D01*
X169102223Y-59989185D01*
X169287130Y-60045012D01*
X169457668Y-60135688D01*
X169607347Y-60257762D01*
X169730468Y-60406590D01*
X169822334Y-60576493D01*
X169879448Y-60760997D01*
X169890575Y-60866866D01*
X169880401Y-60900406D01*
X169876001Y-60945076D01*
X169876000Y-118124923D01*
X169880400Y-118169593D01*
X169890541Y-118203024D01*
X169880815Y-118302223D01*
X169824988Y-118487130D01*
X169734310Y-118657670D01*
X169612235Y-118807349D01*
X169463410Y-118930468D01*
X169293511Y-119022332D01*
X169109003Y-119079448D01*
X169003136Y-119090575D01*
X168969594Y-119080400D01*
X168924924Y-119076000D01*
X145400076Y-119076000D01*
X145355406Y-119080400D01*
X145321975Y-119090541D01*
X145222777Y-119080815D01*
X145037870Y-119024988D01*
X144867330Y-118934310D01*
X144717651Y-118812235D01*
X144594532Y-118663410D01*
X144502668Y-118493511D01*
X144445552Y-118309003D01*
X144434425Y-118203136D01*
X144444600Y-118169594D01*
X144449000Y-118124924D01*
X144449000Y-113979509D01*
X147026000Y-113979509D01*
X147026000Y-114620491D01*
X147151049Y-115249157D01*
X147396342Y-115841347D01*
X147752453Y-116374304D01*
X148205696Y-116827547D01*
X148738653Y-117183658D01*
X149330843Y-117428951D01*
X149959509Y-117554000D01*
X150600491Y-117554000D01*
X151229157Y-117428951D01*
X151540472Y-117300000D01*
X153849966Y-117300000D01*
X153862072Y-117422914D01*
X153897924Y-117541104D01*
X153956146Y-117650028D01*
X154034499Y-117745501D01*
X154129972Y-117823854D01*
X154238896Y-117882076D01*
X154357086Y-117917928D01*
X154480000Y-117930034D01*
X156450250Y-117927000D01*
X156607000Y-117770250D01*
X156607000Y-115173000D01*
X158353000Y-115173000D01*
X158353000Y-117770250D01*
X158509750Y-117927000D01*
X160480000Y-117930034D01*
X160602914Y-117917928D01*
X160721104Y-117882076D01*
X160830028Y-117823854D01*
X160925501Y-117745501D01*
X161003854Y-117650028D01*
X161062076Y-117541104D01*
X161097928Y-117422914D01*
X161110034Y-117300000D01*
X161109814Y-117156980D01*
X163910511Y-117156980D01*
X163934866Y-117237288D01*
X164034761Y-117456961D01*
X164175592Y-117652924D01*
X164351948Y-117817647D01*
X164557051Y-117944799D01*
X164783019Y-118029495D01*
X164973000Y-117969187D01*
X164973000Y-116967000D01*
X165227000Y-116967000D01*
X165227000Y-117969187D01*
X165416981Y-118029495D01*
X165642949Y-117944799D01*
X165848052Y-117817647D01*
X166024408Y-117652924D01*
X166165239Y-117456961D01*
X166265134Y-117237288D01*
X166289489Y-117156980D01*
X166228627Y-116967000D01*
X165227000Y-116967000D01*
X164973000Y-116967000D01*
X163971373Y-116967000D01*
X163910511Y-117156980D01*
X161109814Y-117156980D01*
X161109326Y-116840000D01*
X166530659Y-116840000D01*
X166551975Y-117056422D01*
X166615103Y-117264526D01*
X166717617Y-117456317D01*
X166855577Y-117624423D01*
X167023683Y-117762383D01*
X167215474Y-117864897D01*
X167423578Y-117928025D01*
X167585773Y-117944000D01*
X167694227Y-117944000D01*
X167856422Y-117928025D01*
X168064526Y-117864897D01*
X168256317Y-117762383D01*
X168424423Y-117624423D01*
X168562383Y-117456317D01*
X168664897Y-117264526D01*
X168728025Y-117056422D01*
X168749341Y-116840000D01*
X168728025Y-116623578D01*
X168664897Y-116415474D01*
X168562383Y-116223683D01*
X168424423Y-116055577D01*
X168256317Y-115917617D01*
X168064526Y-115815103D01*
X167856422Y-115751975D01*
X167694227Y-115736000D01*
X167585773Y-115736000D01*
X167423578Y-115751975D01*
X167215474Y-115815103D01*
X167023683Y-115917617D01*
X166855577Y-116055577D01*
X166717617Y-116223683D01*
X166615103Y-116415474D01*
X166551975Y-116623578D01*
X166530659Y-116840000D01*
X161109326Y-116840000D01*
X161108838Y-116523020D01*
X163910511Y-116523020D01*
X163971373Y-116713000D01*
X164973000Y-116713000D01*
X164973000Y-115710813D01*
X165227000Y-115710813D01*
X165227000Y-116713000D01*
X166228627Y-116713000D01*
X166289489Y-116523020D01*
X166265134Y-116442712D01*
X166165239Y-116223039D01*
X166024408Y-116027076D01*
X165848052Y-115862353D01*
X165642949Y-115735201D01*
X165416981Y-115650505D01*
X165227000Y-115710813D01*
X164973000Y-115710813D01*
X164783019Y-115650505D01*
X164557051Y-115735201D01*
X164351948Y-115862353D01*
X164175592Y-116027076D01*
X164034761Y-116223039D01*
X163934866Y-116442712D01*
X163910511Y-116523020D01*
X161108838Y-116523020D01*
X161107000Y-115329750D01*
X160950250Y-115173000D01*
X158353000Y-115173000D01*
X156607000Y-115173000D01*
X154009750Y-115173000D01*
X153853000Y-115329750D01*
X153849966Y-117300000D01*
X151540472Y-117300000D01*
X151821347Y-117183658D01*
X152354304Y-116827547D01*
X152807547Y-116374304D01*
X153163658Y-115841347D01*
X153408951Y-115249157D01*
X153534000Y-114620491D01*
X153534000Y-114300000D01*
X163990659Y-114300000D01*
X164011975Y-114516422D01*
X164075103Y-114724526D01*
X164177617Y-114916317D01*
X164315577Y-115084423D01*
X164483683Y-115222383D01*
X164675474Y-115324897D01*
X164883578Y-115388025D01*
X165045773Y-115404000D01*
X165154227Y-115404000D01*
X165316422Y-115388025D01*
X165524526Y-115324897D01*
X165716317Y-115222383D01*
X165884423Y-115084423D01*
X166022383Y-114916317D01*
X166124897Y-114724526D01*
X166188025Y-114516422D01*
X166209341Y-114300000D01*
X166530659Y-114300000D01*
X166551975Y-114516422D01*
X166615103Y-114724526D01*
X166717617Y-114916317D01*
X166855577Y-115084423D01*
X167023683Y-115222383D01*
X167215474Y-115324897D01*
X167423578Y-115388025D01*
X167585773Y-115404000D01*
X167694227Y-115404000D01*
X167856422Y-115388025D01*
X168064526Y-115324897D01*
X168256317Y-115222383D01*
X168424423Y-115084423D01*
X168562383Y-114916317D01*
X168664897Y-114724526D01*
X168728025Y-114516422D01*
X168749341Y-114300000D01*
X168728025Y-114083578D01*
X168664897Y-113875474D01*
X168562383Y-113683683D01*
X168424423Y-113515577D01*
X168256317Y-113377617D01*
X168064526Y-113275103D01*
X167856422Y-113211975D01*
X167694227Y-113196000D01*
X167585773Y-113196000D01*
X167423578Y-113211975D01*
X167215474Y-113275103D01*
X167023683Y-113377617D01*
X166855577Y-113515577D01*
X166717617Y-113683683D01*
X166615103Y-113875474D01*
X166551975Y-114083578D01*
X166530659Y-114300000D01*
X166209341Y-114300000D01*
X166188025Y-114083578D01*
X166124897Y-113875474D01*
X166022383Y-113683683D01*
X165884423Y-113515577D01*
X165716317Y-113377617D01*
X165524526Y-113275103D01*
X165316422Y-113211975D01*
X165154227Y-113196000D01*
X165045773Y-113196000D01*
X164883578Y-113211975D01*
X164675474Y-113275103D01*
X164483683Y-113377617D01*
X164315577Y-113515577D01*
X164177617Y-113683683D01*
X164075103Y-113875474D01*
X164011975Y-114083578D01*
X163990659Y-114300000D01*
X153534000Y-114300000D01*
X153534000Y-113979509D01*
X153408951Y-113350843D01*
X153163658Y-112758653D01*
X152807547Y-112225696D01*
X152354304Y-111772453D01*
X151821347Y-111416342D01*
X151540473Y-111300000D01*
X153849966Y-111300000D01*
X153853000Y-113270250D01*
X154009750Y-113427000D01*
X156607000Y-113427000D01*
X156607000Y-110829750D01*
X158353000Y-110829750D01*
X158353000Y-113427000D01*
X160950250Y-113427000D01*
X161107000Y-113270250D01*
X161109325Y-111760000D01*
X163990659Y-111760000D01*
X164011975Y-111976422D01*
X164075103Y-112184526D01*
X164177617Y-112376317D01*
X164315577Y-112544423D01*
X164483683Y-112682383D01*
X164675474Y-112784897D01*
X164883578Y-112848025D01*
X165045773Y-112864000D01*
X165154227Y-112864000D01*
X165316422Y-112848025D01*
X165524526Y-112784897D01*
X165716317Y-112682383D01*
X165884423Y-112544423D01*
X166022383Y-112376317D01*
X166124897Y-112184526D01*
X166188025Y-111976422D01*
X166209341Y-111760000D01*
X166530659Y-111760000D01*
X166551975Y-111976422D01*
X166615103Y-112184526D01*
X166717617Y-112376317D01*
X166855577Y-112544423D01*
X167023683Y-112682383D01*
X167215474Y-112784897D01*
X167423578Y-112848025D01*
X167585773Y-112864000D01*
X167694227Y-112864000D01*
X167856422Y-112848025D01*
X168064526Y-112784897D01*
X168256317Y-112682383D01*
X168424423Y-112544423D01*
X168562383Y-112376317D01*
X168664897Y-112184526D01*
X168728025Y-111976422D01*
X168749341Y-111760000D01*
X168728025Y-111543578D01*
X168664897Y-111335474D01*
X168562383Y-111143683D01*
X168424423Y-110975577D01*
X168256317Y-110837617D01*
X168064526Y-110735103D01*
X167856422Y-110671975D01*
X167694227Y-110656000D01*
X167585773Y-110656000D01*
X167423578Y-110671975D01*
X167215474Y-110735103D01*
X167023683Y-110837617D01*
X166855577Y-110975577D01*
X166717617Y-111143683D01*
X166615103Y-111335474D01*
X166551975Y-111543578D01*
X166530659Y-111760000D01*
X166209341Y-111760000D01*
X166188025Y-111543578D01*
X166124897Y-111335474D01*
X166022383Y-111143683D01*
X165884423Y-110975577D01*
X165716317Y-110837617D01*
X165524526Y-110735103D01*
X165316422Y-110671975D01*
X165154227Y-110656000D01*
X165045773Y-110656000D01*
X164883578Y-110671975D01*
X164675474Y-110735103D01*
X164483683Y-110837617D01*
X164315577Y-110975577D01*
X164177617Y-111143683D01*
X164075103Y-111335474D01*
X164011975Y-111543578D01*
X163990659Y-111760000D01*
X161109325Y-111760000D01*
X161110034Y-111300000D01*
X161097928Y-111177086D01*
X161062076Y-111058896D01*
X161003854Y-110949972D01*
X160925501Y-110854499D01*
X160830028Y-110776146D01*
X160721104Y-110717924D01*
X160602914Y-110682072D01*
X160480000Y-110669966D01*
X158509750Y-110673000D01*
X158353000Y-110829750D01*
X156607000Y-110829750D01*
X156450250Y-110673000D01*
X154480000Y-110669966D01*
X154357086Y-110682072D01*
X154238896Y-110717924D01*
X154129972Y-110776146D01*
X154034499Y-110854499D01*
X153956146Y-110949972D01*
X153897924Y-111058896D01*
X153862072Y-111177086D01*
X153849966Y-111300000D01*
X151540473Y-111300000D01*
X151229157Y-111171049D01*
X150600491Y-111046000D01*
X149959509Y-111046000D01*
X149330843Y-111171049D01*
X148738653Y-111416342D01*
X148205696Y-111772453D01*
X147752453Y-112225696D01*
X147396342Y-112758653D01*
X147151049Y-113350843D01*
X147026000Y-113979509D01*
X144449000Y-113979509D01*
X144449000Y-109220000D01*
X163990659Y-109220000D01*
X164011975Y-109436422D01*
X164075103Y-109644526D01*
X164177617Y-109836317D01*
X164315577Y-110004423D01*
X164483683Y-110142383D01*
X164675474Y-110244897D01*
X164883578Y-110308025D01*
X165045773Y-110324000D01*
X165154227Y-110324000D01*
X165316422Y-110308025D01*
X165524526Y-110244897D01*
X165716317Y-110142383D01*
X165884423Y-110004423D01*
X166022383Y-109836317D01*
X166124897Y-109644526D01*
X166157520Y-109536980D01*
X166450511Y-109536980D01*
X166474866Y-109617288D01*
X166574761Y-109836961D01*
X166715592Y-110032924D01*
X166891948Y-110197647D01*
X167097051Y-110324799D01*
X167323019Y-110409495D01*
X167513000Y-110349187D01*
X167513000Y-109347000D01*
X167767000Y-109347000D01*
X167767000Y-110349187D01*
X167956981Y-110409495D01*
X168182949Y-110324799D01*
X168388052Y-110197647D01*
X168564408Y-110032924D01*
X168705239Y-109836961D01*
X168805134Y-109617288D01*
X168829489Y-109536980D01*
X168768627Y-109347000D01*
X167767000Y-109347000D01*
X167513000Y-109347000D01*
X166511373Y-109347000D01*
X166450511Y-109536980D01*
X166157520Y-109536980D01*
X166188025Y-109436422D01*
X166209341Y-109220000D01*
X166188025Y-109003578D01*
X166157521Y-108903020D01*
X166450511Y-108903020D01*
X166511373Y-109093000D01*
X167513000Y-109093000D01*
X167513000Y-108090813D01*
X167767000Y-108090813D01*
X167767000Y-109093000D01*
X168768627Y-109093000D01*
X168829489Y-108903020D01*
X168805134Y-108822712D01*
X168705239Y-108603039D01*
X168564408Y-108407076D01*
X168388052Y-108242353D01*
X168182949Y-108115201D01*
X167956981Y-108030505D01*
X167767000Y-108090813D01*
X167513000Y-108090813D01*
X167323019Y-108030505D01*
X167097051Y-108115201D01*
X166891948Y-108242353D01*
X166715592Y-108407076D01*
X166574761Y-108603039D01*
X166474866Y-108822712D01*
X166450511Y-108903020D01*
X166157521Y-108903020D01*
X166124897Y-108795474D01*
X166022383Y-108603683D01*
X165884423Y-108435577D01*
X165716317Y-108297617D01*
X165524526Y-108195103D01*
X165316422Y-108131975D01*
X165154227Y-108116000D01*
X165045773Y-108116000D01*
X164883578Y-108131975D01*
X164675474Y-108195103D01*
X164483683Y-108297617D01*
X164315577Y-108435577D01*
X164177617Y-108603683D01*
X164075103Y-108795474D01*
X164011975Y-109003578D01*
X163990659Y-109220000D01*
X144449000Y-109220000D01*
X144449000Y-106680000D01*
X163990659Y-106680000D01*
X164011975Y-106896422D01*
X164075103Y-107104526D01*
X164177617Y-107296317D01*
X164315577Y-107464423D01*
X164483683Y-107602383D01*
X164675474Y-107704897D01*
X164883578Y-107768025D01*
X165045773Y-107784000D01*
X165154227Y-107784000D01*
X165316422Y-107768025D01*
X165524526Y-107704897D01*
X165716317Y-107602383D01*
X165884423Y-107464423D01*
X166022383Y-107296317D01*
X166124897Y-107104526D01*
X166188025Y-106896422D01*
X166209341Y-106680000D01*
X166530659Y-106680000D01*
X166551975Y-106896422D01*
X166615103Y-107104526D01*
X166717617Y-107296317D01*
X166855577Y-107464423D01*
X167023683Y-107602383D01*
X167215474Y-107704897D01*
X167423578Y-107768025D01*
X167585773Y-107784000D01*
X167694227Y-107784000D01*
X167856422Y-107768025D01*
X168064526Y-107704897D01*
X168256317Y-107602383D01*
X168424423Y-107464423D01*
X168562383Y-107296317D01*
X168664897Y-107104526D01*
X168728025Y-106896422D01*
X168749341Y-106680000D01*
X168728025Y-106463578D01*
X168664897Y-106255474D01*
X168562383Y-106063683D01*
X168424423Y-105895577D01*
X168256317Y-105757617D01*
X168064526Y-105655103D01*
X167856422Y-105591975D01*
X167694227Y-105576000D01*
X167585773Y-105576000D01*
X167423578Y-105591975D01*
X167215474Y-105655103D01*
X167023683Y-105757617D01*
X166855577Y-105895577D01*
X166717617Y-106063683D01*
X166615103Y-106255474D01*
X166551975Y-106463578D01*
X166530659Y-106680000D01*
X166209341Y-106680000D01*
X166188025Y-106463578D01*
X166124897Y-106255474D01*
X166022383Y-106063683D01*
X165884423Y-105895577D01*
X165716317Y-105757617D01*
X165524526Y-105655103D01*
X165316422Y-105591975D01*
X165154227Y-105576000D01*
X165045773Y-105576000D01*
X164883578Y-105591975D01*
X164675474Y-105655103D01*
X164483683Y-105757617D01*
X164315577Y-105895577D01*
X164177617Y-106063683D01*
X164075103Y-106255474D01*
X164011975Y-106463578D01*
X163990659Y-106680000D01*
X144449000Y-106680000D01*
X144449000Y-104573571D01*
X151247870Y-104573571D01*
X151354593Y-104790009D01*
X151501491Y-104981468D01*
X151682918Y-105140590D01*
X151891902Y-105261260D01*
X151966431Y-105292119D01*
X152152000Y-105248343D01*
X152152000Y-104388000D01*
X152648000Y-104388000D01*
X152648000Y-105248343D01*
X152833569Y-105292119D01*
X152908098Y-105261260D01*
X153117082Y-105140590D01*
X153298509Y-104981468D01*
X153445407Y-104790009D01*
X153552130Y-104573571D01*
X153510521Y-104388000D01*
X152648000Y-104388000D01*
X152152000Y-104388000D01*
X151289479Y-104388000D01*
X151247870Y-104573571D01*
X144449000Y-104573571D01*
X144449000Y-104140000D01*
X153830659Y-104140000D01*
X153851975Y-104356422D01*
X153915103Y-104564526D01*
X154017617Y-104756317D01*
X154155577Y-104924423D01*
X154323683Y-105062383D01*
X154515474Y-105164897D01*
X154723578Y-105228025D01*
X154885773Y-105244000D01*
X154994227Y-105244000D01*
X155156422Y-105228025D01*
X155364526Y-105164897D01*
X155556317Y-105062383D01*
X155724423Y-104924423D01*
X155862383Y-104756317D01*
X155964897Y-104564526D01*
X156028025Y-104356422D01*
X156049341Y-104140000D01*
X156028025Y-103923578D01*
X155964897Y-103715474D01*
X155862383Y-103523683D01*
X155724423Y-103355577D01*
X155644517Y-103290000D01*
X156374772Y-103290000D01*
X156374772Y-104990000D01*
X156379676Y-105039793D01*
X156394200Y-105087672D01*
X156417786Y-105131797D01*
X156449527Y-105170473D01*
X156488203Y-105202214D01*
X156532328Y-105225800D01*
X156580207Y-105240324D01*
X156630000Y-105245228D01*
X158330000Y-105245228D01*
X158379793Y-105240324D01*
X158427672Y-105225800D01*
X158471797Y-105202214D01*
X158510473Y-105170473D01*
X158542214Y-105131797D01*
X158565800Y-105087672D01*
X158580324Y-105039793D01*
X158585228Y-104990000D01*
X158585228Y-104140000D01*
X163990659Y-104140000D01*
X164011975Y-104356422D01*
X164075103Y-104564526D01*
X164177617Y-104756317D01*
X164315577Y-104924423D01*
X164483683Y-105062383D01*
X164675474Y-105164897D01*
X164883578Y-105228025D01*
X165045773Y-105244000D01*
X165154227Y-105244000D01*
X165316422Y-105228025D01*
X165524526Y-105164897D01*
X165716317Y-105062383D01*
X165884423Y-104924423D01*
X166022383Y-104756317D01*
X166124897Y-104564526D01*
X166157520Y-104456980D01*
X166450511Y-104456980D01*
X166474866Y-104537288D01*
X166574761Y-104756961D01*
X166715592Y-104952924D01*
X166891948Y-105117647D01*
X167097051Y-105244799D01*
X167323019Y-105329495D01*
X167513000Y-105269187D01*
X167513000Y-104267000D01*
X167767000Y-104267000D01*
X167767000Y-105269187D01*
X167956981Y-105329495D01*
X168182949Y-105244799D01*
X168388052Y-105117647D01*
X168564408Y-104952924D01*
X168705239Y-104756961D01*
X168805134Y-104537288D01*
X168829489Y-104456980D01*
X168768627Y-104267000D01*
X167767000Y-104267000D01*
X167513000Y-104267000D01*
X166511373Y-104267000D01*
X166450511Y-104456980D01*
X166157520Y-104456980D01*
X166188025Y-104356422D01*
X166209341Y-104140000D01*
X166188025Y-103923578D01*
X166157521Y-103823020D01*
X166450511Y-103823020D01*
X166511373Y-104013000D01*
X167513000Y-104013000D01*
X167513000Y-103010813D01*
X167767000Y-103010813D01*
X167767000Y-104013000D01*
X168768627Y-104013000D01*
X168829489Y-103823020D01*
X168805134Y-103742712D01*
X168705239Y-103523039D01*
X168564408Y-103327076D01*
X168388052Y-103162353D01*
X168182949Y-103035201D01*
X167956981Y-102950505D01*
X167767000Y-103010813D01*
X167513000Y-103010813D01*
X167323019Y-102950505D01*
X167097051Y-103035201D01*
X166891948Y-103162353D01*
X166715592Y-103327076D01*
X166574761Y-103523039D01*
X166474866Y-103742712D01*
X166450511Y-103823020D01*
X166157521Y-103823020D01*
X166124897Y-103715474D01*
X166022383Y-103523683D01*
X165884423Y-103355577D01*
X165716317Y-103217617D01*
X165524526Y-103115103D01*
X165316422Y-103051975D01*
X165154227Y-103036000D01*
X165045773Y-103036000D01*
X164883578Y-103051975D01*
X164675474Y-103115103D01*
X164483683Y-103217617D01*
X164315577Y-103355577D01*
X164177617Y-103523683D01*
X164075103Y-103715474D01*
X164011975Y-103923578D01*
X163990659Y-104140000D01*
X158585228Y-104140000D01*
X158585228Y-103290000D01*
X158580324Y-103240207D01*
X158565800Y-103192328D01*
X158542214Y-103148203D01*
X158510473Y-103109527D01*
X158471797Y-103077786D01*
X158427672Y-103054200D01*
X158379793Y-103039676D01*
X158330000Y-103034772D01*
X156630000Y-103034772D01*
X156580207Y-103039676D01*
X156532328Y-103054200D01*
X156488203Y-103077786D01*
X156449527Y-103109527D01*
X156417786Y-103148203D01*
X156394200Y-103192328D01*
X156379676Y-103240207D01*
X156374772Y-103290000D01*
X155644517Y-103290000D01*
X155556317Y-103217617D01*
X155364526Y-103115103D01*
X155156422Y-103051975D01*
X154994227Y-103036000D01*
X154885773Y-103036000D01*
X154723578Y-103051975D01*
X154515474Y-103115103D01*
X154323683Y-103217617D01*
X154155577Y-103355577D01*
X154017617Y-103523683D01*
X153915103Y-103715474D01*
X153851975Y-103923578D01*
X153830659Y-104140000D01*
X144449000Y-104140000D01*
X144449000Y-103706429D01*
X151247870Y-103706429D01*
X151289479Y-103892000D01*
X152152000Y-103892000D01*
X152152000Y-103031657D01*
X152648000Y-103031657D01*
X152648000Y-103892000D01*
X153510521Y-103892000D01*
X153552130Y-103706429D01*
X153445407Y-103489991D01*
X153298509Y-103298532D01*
X153117082Y-103139410D01*
X152908098Y-103018740D01*
X152833569Y-102987881D01*
X152648000Y-103031657D01*
X152152000Y-103031657D01*
X151966431Y-102987881D01*
X151891902Y-103018740D01*
X151682918Y-103139410D01*
X151501491Y-103298532D01*
X151354593Y-103489991D01*
X151247870Y-103706429D01*
X144449000Y-103706429D01*
X144449000Y-102033571D01*
X151247870Y-102033571D01*
X151354593Y-102250009D01*
X151501491Y-102441468D01*
X151682918Y-102600590D01*
X151891902Y-102721260D01*
X151966431Y-102752119D01*
X152152000Y-102708343D01*
X152152000Y-101848000D01*
X152648000Y-101848000D01*
X152648000Y-102708343D01*
X152833569Y-102752119D01*
X152908098Y-102721260D01*
X153117082Y-102600590D01*
X153298509Y-102441468D01*
X153445407Y-102250009D01*
X153552130Y-102033571D01*
X153510521Y-101848000D01*
X152648000Y-101848000D01*
X152152000Y-101848000D01*
X151289479Y-101848000D01*
X151247870Y-102033571D01*
X144449000Y-102033571D01*
X144449000Y-101600000D01*
X153830659Y-101600000D01*
X153851975Y-101816422D01*
X153915103Y-102024526D01*
X154017617Y-102216317D01*
X154155577Y-102384423D01*
X154323683Y-102522383D01*
X154515474Y-102624897D01*
X154723578Y-102688025D01*
X154885773Y-102704000D01*
X154994227Y-102704000D01*
X155156422Y-102688025D01*
X155364526Y-102624897D01*
X155556317Y-102522383D01*
X155724423Y-102384423D01*
X155862383Y-102216317D01*
X155964897Y-102024526D01*
X156028025Y-101816422D01*
X156049341Y-101600000D01*
X156028025Y-101383578D01*
X155964897Y-101175474D01*
X155862383Y-100983683D01*
X155724423Y-100815577D01*
X155644517Y-100750000D01*
X156374772Y-100750000D01*
X156374772Y-102450000D01*
X156379676Y-102499793D01*
X156394200Y-102547672D01*
X156417786Y-102591797D01*
X156449527Y-102630473D01*
X156488203Y-102662214D01*
X156532328Y-102685800D01*
X156580207Y-102700324D01*
X156630000Y-102705228D01*
X158330000Y-102705228D01*
X158379793Y-102700324D01*
X158427672Y-102685800D01*
X158471797Y-102662214D01*
X158510473Y-102630473D01*
X158542214Y-102591797D01*
X158565800Y-102547672D01*
X158580324Y-102499793D01*
X158585228Y-102450000D01*
X158585228Y-101600000D01*
X163990659Y-101600000D01*
X164011975Y-101816422D01*
X164075103Y-102024526D01*
X164177617Y-102216317D01*
X164315577Y-102384423D01*
X164483683Y-102522383D01*
X164675474Y-102624897D01*
X164883578Y-102688025D01*
X165045773Y-102704000D01*
X165154227Y-102704000D01*
X165316422Y-102688025D01*
X165524526Y-102624897D01*
X165716317Y-102522383D01*
X165884423Y-102384423D01*
X166022383Y-102216317D01*
X166124897Y-102024526D01*
X166188025Y-101816422D01*
X166209341Y-101600000D01*
X166530659Y-101600000D01*
X166551975Y-101816422D01*
X166615103Y-102024526D01*
X166717617Y-102216317D01*
X166855577Y-102384423D01*
X167023683Y-102522383D01*
X167215474Y-102624897D01*
X167423578Y-102688025D01*
X167585773Y-102704000D01*
X167694227Y-102704000D01*
X167856422Y-102688025D01*
X168064526Y-102624897D01*
X168256317Y-102522383D01*
X168424423Y-102384423D01*
X168562383Y-102216317D01*
X168664897Y-102024526D01*
X168728025Y-101816422D01*
X168749341Y-101600000D01*
X168728025Y-101383578D01*
X168664897Y-101175474D01*
X168562383Y-100983683D01*
X168424423Y-100815577D01*
X168256317Y-100677617D01*
X168064526Y-100575103D01*
X167856422Y-100511975D01*
X167694227Y-100496000D01*
X167585773Y-100496000D01*
X167423578Y-100511975D01*
X167215474Y-100575103D01*
X167023683Y-100677617D01*
X166855577Y-100815577D01*
X166717617Y-100983683D01*
X166615103Y-101175474D01*
X166551975Y-101383578D01*
X166530659Y-101600000D01*
X166209341Y-101600000D01*
X166188025Y-101383578D01*
X166124897Y-101175474D01*
X166022383Y-100983683D01*
X165884423Y-100815577D01*
X165716317Y-100677617D01*
X165524526Y-100575103D01*
X165316422Y-100511975D01*
X165154227Y-100496000D01*
X165045773Y-100496000D01*
X164883578Y-100511975D01*
X164675474Y-100575103D01*
X164483683Y-100677617D01*
X164315577Y-100815577D01*
X164177617Y-100983683D01*
X164075103Y-101175474D01*
X164011975Y-101383578D01*
X163990659Y-101600000D01*
X158585228Y-101600000D01*
X158585228Y-100750000D01*
X158580324Y-100700207D01*
X158565800Y-100652328D01*
X158542214Y-100608203D01*
X158510473Y-100569527D01*
X158471797Y-100537786D01*
X158427672Y-100514200D01*
X158379793Y-100499676D01*
X158330000Y-100494772D01*
X156630000Y-100494772D01*
X156580207Y-100499676D01*
X156532328Y-100514200D01*
X156488203Y-100537786D01*
X156449527Y-100569527D01*
X156417786Y-100608203D01*
X156394200Y-100652328D01*
X156379676Y-100700207D01*
X156374772Y-100750000D01*
X155644517Y-100750000D01*
X155556317Y-100677617D01*
X155364526Y-100575103D01*
X155156422Y-100511975D01*
X154994227Y-100496000D01*
X154885773Y-100496000D01*
X154723578Y-100511975D01*
X154515474Y-100575103D01*
X154323683Y-100677617D01*
X154155577Y-100815577D01*
X154017617Y-100983683D01*
X153915103Y-101175474D01*
X153851975Y-101383578D01*
X153830659Y-101600000D01*
X144449000Y-101600000D01*
X144449000Y-101166429D01*
X151247870Y-101166429D01*
X151289479Y-101352000D01*
X152152000Y-101352000D01*
X152152000Y-100491657D01*
X152648000Y-100491657D01*
X152648000Y-101352000D01*
X153510521Y-101352000D01*
X153552130Y-101166429D01*
X153445407Y-100949991D01*
X153298509Y-100758532D01*
X153117082Y-100599410D01*
X152908098Y-100478740D01*
X152833569Y-100447881D01*
X152648000Y-100491657D01*
X152152000Y-100491657D01*
X151966431Y-100447881D01*
X151891902Y-100478740D01*
X151682918Y-100599410D01*
X151501491Y-100758532D01*
X151354593Y-100949991D01*
X151247870Y-101166429D01*
X144449000Y-101166429D01*
X144449000Y-99493571D01*
X151247870Y-99493571D01*
X151354593Y-99710009D01*
X151501491Y-99901468D01*
X151682918Y-100060590D01*
X151891902Y-100181260D01*
X151966431Y-100212119D01*
X152152000Y-100168343D01*
X152152000Y-99308000D01*
X152648000Y-99308000D01*
X152648000Y-100168343D01*
X152833569Y-100212119D01*
X152908098Y-100181260D01*
X153117082Y-100060590D01*
X153298509Y-99901468D01*
X153445407Y-99710009D01*
X153552130Y-99493571D01*
X153510521Y-99308000D01*
X152648000Y-99308000D01*
X152152000Y-99308000D01*
X151289479Y-99308000D01*
X151247870Y-99493571D01*
X144449000Y-99493571D01*
X144449000Y-99060000D01*
X153830659Y-99060000D01*
X153851975Y-99276422D01*
X153915103Y-99484526D01*
X154017617Y-99676317D01*
X154155577Y-99844423D01*
X154323683Y-99982383D01*
X154515474Y-100084897D01*
X154723578Y-100148025D01*
X154885773Y-100164000D01*
X154994227Y-100164000D01*
X155156422Y-100148025D01*
X155364526Y-100084897D01*
X155556317Y-99982383D01*
X155724423Y-99844423D01*
X155862383Y-99676317D01*
X155964897Y-99484526D01*
X156028025Y-99276422D01*
X156049341Y-99060000D01*
X156028025Y-98843578D01*
X155964897Y-98635474D01*
X155862383Y-98443683D01*
X155724423Y-98275577D01*
X155644517Y-98210000D01*
X156374772Y-98210000D01*
X156374772Y-99910000D01*
X156379676Y-99959793D01*
X156394200Y-100007672D01*
X156417786Y-100051797D01*
X156449527Y-100090473D01*
X156488203Y-100122214D01*
X156532328Y-100145800D01*
X156580207Y-100160324D01*
X156630000Y-100165228D01*
X158330000Y-100165228D01*
X158379793Y-100160324D01*
X158427672Y-100145800D01*
X158471797Y-100122214D01*
X158510473Y-100090473D01*
X158542214Y-100051797D01*
X158565800Y-100007672D01*
X158580324Y-99959793D01*
X158585228Y-99910000D01*
X158585228Y-99376980D01*
X163910511Y-99376980D01*
X163934866Y-99457288D01*
X164034761Y-99676961D01*
X164175592Y-99872924D01*
X164351948Y-100037647D01*
X164557051Y-100164799D01*
X164783019Y-100249495D01*
X164973000Y-100189187D01*
X164973000Y-99187000D01*
X165227000Y-99187000D01*
X165227000Y-100189187D01*
X165416981Y-100249495D01*
X165642949Y-100164799D01*
X165848052Y-100037647D01*
X166024408Y-99872924D01*
X166165239Y-99676961D01*
X166265134Y-99457288D01*
X166289489Y-99376980D01*
X166228627Y-99187000D01*
X165227000Y-99187000D01*
X164973000Y-99187000D01*
X163971373Y-99187000D01*
X163910511Y-99376980D01*
X158585228Y-99376980D01*
X158585228Y-99060000D01*
X166530659Y-99060000D01*
X166551975Y-99276422D01*
X166615103Y-99484526D01*
X166717617Y-99676317D01*
X166855577Y-99844423D01*
X167023683Y-99982383D01*
X167215474Y-100084897D01*
X167423578Y-100148025D01*
X167585773Y-100164000D01*
X167694227Y-100164000D01*
X167856422Y-100148025D01*
X168064526Y-100084897D01*
X168256317Y-99982383D01*
X168424423Y-99844423D01*
X168562383Y-99676317D01*
X168664897Y-99484526D01*
X168728025Y-99276422D01*
X168749341Y-99060000D01*
X168728025Y-98843578D01*
X168664897Y-98635474D01*
X168562383Y-98443683D01*
X168424423Y-98275577D01*
X168256317Y-98137617D01*
X168064526Y-98035103D01*
X167856422Y-97971975D01*
X167694227Y-97956000D01*
X167585773Y-97956000D01*
X167423578Y-97971975D01*
X167215474Y-98035103D01*
X167023683Y-98137617D01*
X166855577Y-98275577D01*
X166717617Y-98443683D01*
X166615103Y-98635474D01*
X166551975Y-98843578D01*
X166530659Y-99060000D01*
X158585228Y-99060000D01*
X158585228Y-98743020D01*
X163910511Y-98743020D01*
X163971373Y-98933000D01*
X164973000Y-98933000D01*
X164973000Y-97930813D01*
X165227000Y-97930813D01*
X165227000Y-98933000D01*
X166228627Y-98933000D01*
X166289489Y-98743020D01*
X166265134Y-98662712D01*
X166165239Y-98443039D01*
X166024408Y-98247076D01*
X165848052Y-98082353D01*
X165642949Y-97955201D01*
X165416981Y-97870505D01*
X165227000Y-97930813D01*
X164973000Y-97930813D01*
X164783019Y-97870505D01*
X164557051Y-97955201D01*
X164351948Y-98082353D01*
X164175592Y-98247076D01*
X164034761Y-98443039D01*
X163934866Y-98662712D01*
X163910511Y-98743020D01*
X158585228Y-98743020D01*
X158585228Y-98210000D01*
X158580324Y-98160207D01*
X158565800Y-98112328D01*
X158542214Y-98068203D01*
X158510473Y-98029527D01*
X158471797Y-97997786D01*
X158427672Y-97974200D01*
X158379793Y-97959676D01*
X158330000Y-97954772D01*
X156630000Y-97954772D01*
X156580207Y-97959676D01*
X156532328Y-97974200D01*
X156488203Y-97997786D01*
X156449527Y-98029527D01*
X156417786Y-98068203D01*
X156394200Y-98112328D01*
X156379676Y-98160207D01*
X156374772Y-98210000D01*
X155644517Y-98210000D01*
X155556317Y-98137617D01*
X155364526Y-98035103D01*
X155156422Y-97971975D01*
X154994227Y-97956000D01*
X154885773Y-97956000D01*
X154723578Y-97971975D01*
X154515474Y-98035103D01*
X154323683Y-98137617D01*
X154155577Y-98275577D01*
X154017617Y-98443683D01*
X153915103Y-98635474D01*
X153851975Y-98843578D01*
X153830659Y-99060000D01*
X144449000Y-99060000D01*
X144449000Y-98626429D01*
X151247870Y-98626429D01*
X151289479Y-98812000D01*
X152152000Y-98812000D01*
X152152000Y-97951657D01*
X152648000Y-97951657D01*
X152648000Y-98812000D01*
X153510521Y-98812000D01*
X153552130Y-98626429D01*
X153445407Y-98409991D01*
X153298509Y-98218532D01*
X153117082Y-98059410D01*
X152908098Y-97938740D01*
X152833569Y-97907881D01*
X152648000Y-97951657D01*
X152152000Y-97951657D01*
X151966431Y-97907881D01*
X151891902Y-97938740D01*
X151682918Y-98059410D01*
X151501491Y-98218532D01*
X151354593Y-98409991D01*
X151247870Y-98626429D01*
X144449000Y-98626429D01*
X144449000Y-96520000D01*
X163990659Y-96520000D01*
X164011975Y-96736422D01*
X164075103Y-96944526D01*
X164177617Y-97136317D01*
X164315577Y-97304423D01*
X164483683Y-97442383D01*
X164675474Y-97544897D01*
X164883578Y-97608025D01*
X165045773Y-97624000D01*
X165154227Y-97624000D01*
X165316422Y-97608025D01*
X165524526Y-97544897D01*
X165716317Y-97442383D01*
X165884423Y-97304423D01*
X166022383Y-97136317D01*
X166124897Y-96944526D01*
X166188025Y-96736422D01*
X166209341Y-96520000D01*
X166530659Y-96520000D01*
X166551975Y-96736422D01*
X166615103Y-96944526D01*
X166717617Y-97136317D01*
X166855577Y-97304423D01*
X167023683Y-97442383D01*
X167215474Y-97544897D01*
X167423578Y-97608025D01*
X167585773Y-97624000D01*
X167694227Y-97624000D01*
X167856422Y-97608025D01*
X168064526Y-97544897D01*
X168256317Y-97442383D01*
X168424423Y-97304423D01*
X168562383Y-97136317D01*
X168664897Y-96944526D01*
X168728025Y-96736422D01*
X168749341Y-96520000D01*
X168728025Y-96303578D01*
X168664897Y-96095474D01*
X168562383Y-95903683D01*
X168424423Y-95735577D01*
X168256317Y-95597617D01*
X168064526Y-95495103D01*
X167856422Y-95431975D01*
X167694227Y-95416000D01*
X167585773Y-95416000D01*
X167423578Y-95431975D01*
X167215474Y-95495103D01*
X167023683Y-95597617D01*
X166855577Y-95735577D01*
X166717617Y-95903683D01*
X166615103Y-96095474D01*
X166551975Y-96303578D01*
X166530659Y-96520000D01*
X166209341Y-96520000D01*
X166188025Y-96303578D01*
X166124897Y-96095474D01*
X166022383Y-95903683D01*
X165884423Y-95735577D01*
X165716317Y-95597617D01*
X165524526Y-95495103D01*
X165316422Y-95431975D01*
X165154227Y-95416000D01*
X165045773Y-95416000D01*
X164883578Y-95431975D01*
X164675474Y-95495103D01*
X164483683Y-95597617D01*
X164315577Y-95735577D01*
X164177617Y-95903683D01*
X164075103Y-96095474D01*
X164011975Y-96303578D01*
X163990659Y-96520000D01*
X144449000Y-96520000D01*
X144449000Y-94413571D01*
X151247870Y-94413571D01*
X151354593Y-94630009D01*
X151501491Y-94821468D01*
X151682918Y-94980590D01*
X151891902Y-95101260D01*
X151966431Y-95132119D01*
X152152000Y-95088343D01*
X152152000Y-94228000D01*
X152648000Y-94228000D01*
X152648000Y-95088343D01*
X152833569Y-95132119D01*
X152908098Y-95101260D01*
X153117082Y-94980590D01*
X153298509Y-94821468D01*
X153445407Y-94630009D01*
X153552130Y-94413571D01*
X153510521Y-94228000D01*
X152648000Y-94228000D01*
X152152000Y-94228000D01*
X151289479Y-94228000D01*
X151247870Y-94413571D01*
X144449000Y-94413571D01*
X144449000Y-93980000D01*
X153830659Y-93980000D01*
X153851975Y-94196422D01*
X153915103Y-94404526D01*
X154017617Y-94596317D01*
X154155577Y-94764423D01*
X154323683Y-94902383D01*
X154515474Y-95004897D01*
X154723578Y-95068025D01*
X154885773Y-95084000D01*
X154994227Y-95084000D01*
X155156422Y-95068025D01*
X155364526Y-95004897D01*
X155556317Y-94902383D01*
X155724423Y-94764423D01*
X155862383Y-94596317D01*
X155964897Y-94404526D01*
X156028025Y-94196422D01*
X156049341Y-93980000D01*
X156028025Y-93763578D01*
X155964897Y-93555474D01*
X155862383Y-93363683D01*
X155724423Y-93195577D01*
X155644517Y-93130000D01*
X156374772Y-93130000D01*
X156374772Y-94830000D01*
X156379676Y-94879793D01*
X156394200Y-94927672D01*
X156417786Y-94971797D01*
X156449527Y-95010473D01*
X156488203Y-95042214D01*
X156532328Y-95065800D01*
X156580207Y-95080324D01*
X156630000Y-95085228D01*
X158330000Y-95085228D01*
X158379793Y-95080324D01*
X158427672Y-95065800D01*
X158471797Y-95042214D01*
X158510473Y-95010473D01*
X158542214Y-94971797D01*
X158565800Y-94927672D01*
X158580324Y-94879793D01*
X158585228Y-94830000D01*
X158585228Y-93980000D01*
X163990659Y-93980000D01*
X164011975Y-94196422D01*
X164075103Y-94404526D01*
X164177617Y-94596317D01*
X164315577Y-94764423D01*
X164483683Y-94902383D01*
X164675474Y-95004897D01*
X164883578Y-95068025D01*
X165045773Y-95084000D01*
X165154227Y-95084000D01*
X165316422Y-95068025D01*
X165524526Y-95004897D01*
X165716317Y-94902383D01*
X165884423Y-94764423D01*
X166022383Y-94596317D01*
X166124897Y-94404526D01*
X166188025Y-94196422D01*
X166209341Y-93980000D01*
X166530659Y-93980000D01*
X166551975Y-94196422D01*
X166615103Y-94404526D01*
X166717617Y-94596317D01*
X166855577Y-94764423D01*
X167023683Y-94902383D01*
X167215474Y-95004897D01*
X167423578Y-95068025D01*
X167585773Y-95084000D01*
X167694227Y-95084000D01*
X167856422Y-95068025D01*
X168064526Y-95004897D01*
X168256317Y-94902383D01*
X168424423Y-94764423D01*
X168562383Y-94596317D01*
X168664897Y-94404526D01*
X168728025Y-94196422D01*
X168749341Y-93980000D01*
X168728025Y-93763578D01*
X168664897Y-93555474D01*
X168562383Y-93363683D01*
X168424423Y-93195577D01*
X168256317Y-93057617D01*
X168064526Y-92955103D01*
X167856422Y-92891975D01*
X167694227Y-92876000D01*
X167585773Y-92876000D01*
X167423578Y-92891975D01*
X167215474Y-92955103D01*
X167023683Y-93057617D01*
X166855577Y-93195577D01*
X166717617Y-93363683D01*
X166615103Y-93555474D01*
X166551975Y-93763578D01*
X166530659Y-93980000D01*
X166209341Y-93980000D01*
X166188025Y-93763578D01*
X166124897Y-93555474D01*
X166022383Y-93363683D01*
X165884423Y-93195577D01*
X165716317Y-93057617D01*
X165524526Y-92955103D01*
X165316422Y-92891975D01*
X165154227Y-92876000D01*
X165045773Y-92876000D01*
X164883578Y-92891975D01*
X164675474Y-92955103D01*
X164483683Y-93057617D01*
X164315577Y-93195577D01*
X164177617Y-93363683D01*
X164075103Y-93555474D01*
X164011975Y-93763578D01*
X163990659Y-93980000D01*
X158585228Y-93980000D01*
X158585228Y-93130000D01*
X158580324Y-93080207D01*
X158565800Y-93032328D01*
X158542214Y-92988203D01*
X158510473Y-92949527D01*
X158471797Y-92917786D01*
X158427672Y-92894200D01*
X158379793Y-92879676D01*
X158330000Y-92874772D01*
X156630000Y-92874772D01*
X156580207Y-92879676D01*
X156532328Y-92894200D01*
X156488203Y-92917786D01*
X156449527Y-92949527D01*
X156417786Y-92988203D01*
X156394200Y-93032328D01*
X156379676Y-93080207D01*
X156374772Y-93130000D01*
X155644517Y-93130000D01*
X155556317Y-93057617D01*
X155364526Y-92955103D01*
X155156422Y-92891975D01*
X154994227Y-92876000D01*
X154885773Y-92876000D01*
X154723578Y-92891975D01*
X154515474Y-92955103D01*
X154323683Y-93057617D01*
X154155577Y-93195577D01*
X154017617Y-93363683D01*
X153915103Y-93555474D01*
X153851975Y-93763578D01*
X153830659Y-93980000D01*
X144449000Y-93980000D01*
X144449000Y-93546429D01*
X151247870Y-93546429D01*
X151289479Y-93732000D01*
X152152000Y-93732000D01*
X152152000Y-92871657D01*
X152648000Y-92871657D01*
X152648000Y-93732000D01*
X153510521Y-93732000D01*
X153552130Y-93546429D01*
X153445407Y-93329991D01*
X153298509Y-93138532D01*
X153117082Y-92979410D01*
X152908098Y-92858740D01*
X152833569Y-92827881D01*
X152648000Y-92871657D01*
X152152000Y-92871657D01*
X151966431Y-92827881D01*
X151891902Y-92858740D01*
X151682918Y-92979410D01*
X151501491Y-93138532D01*
X151354593Y-93329991D01*
X151247870Y-93546429D01*
X144449000Y-93546429D01*
X144449000Y-91873571D01*
X151247870Y-91873571D01*
X151354593Y-92090009D01*
X151501491Y-92281468D01*
X151682918Y-92440590D01*
X151891902Y-92561260D01*
X151966431Y-92592119D01*
X152152000Y-92548343D01*
X152152000Y-91688000D01*
X152648000Y-91688000D01*
X152648000Y-92548343D01*
X152833569Y-92592119D01*
X152908098Y-92561260D01*
X153117082Y-92440590D01*
X153298509Y-92281468D01*
X153445407Y-92090009D01*
X153552130Y-91873571D01*
X153510521Y-91688000D01*
X152648000Y-91688000D01*
X152152000Y-91688000D01*
X151289479Y-91688000D01*
X151247870Y-91873571D01*
X144449000Y-91873571D01*
X144449000Y-91440000D01*
X153830659Y-91440000D01*
X153851975Y-91656422D01*
X153915103Y-91864526D01*
X154017617Y-92056317D01*
X154155577Y-92224423D01*
X154323683Y-92362383D01*
X154515474Y-92464897D01*
X154723578Y-92528025D01*
X154885773Y-92544000D01*
X154994227Y-92544000D01*
X155156422Y-92528025D01*
X155364526Y-92464897D01*
X155556317Y-92362383D01*
X155724423Y-92224423D01*
X155862383Y-92056317D01*
X155964897Y-91864526D01*
X156028025Y-91656422D01*
X156049341Y-91440000D01*
X156028025Y-91223578D01*
X155964897Y-91015474D01*
X155862383Y-90823683D01*
X155724423Y-90655577D01*
X155644517Y-90590000D01*
X156374772Y-90590000D01*
X156374772Y-92290000D01*
X156379676Y-92339793D01*
X156394200Y-92387672D01*
X156417786Y-92431797D01*
X156449527Y-92470473D01*
X156488203Y-92502214D01*
X156532328Y-92525800D01*
X156580207Y-92540324D01*
X156630000Y-92545228D01*
X158330000Y-92545228D01*
X158379793Y-92540324D01*
X158427672Y-92525800D01*
X158471797Y-92502214D01*
X158510473Y-92470473D01*
X158542214Y-92431797D01*
X158565800Y-92387672D01*
X158580324Y-92339793D01*
X158585228Y-92290000D01*
X158585228Y-91440000D01*
X163990659Y-91440000D01*
X164011975Y-91656422D01*
X164075103Y-91864526D01*
X164177617Y-92056317D01*
X164315577Y-92224423D01*
X164483683Y-92362383D01*
X164675474Y-92464897D01*
X164883578Y-92528025D01*
X165045773Y-92544000D01*
X165154227Y-92544000D01*
X165316422Y-92528025D01*
X165524526Y-92464897D01*
X165716317Y-92362383D01*
X165884423Y-92224423D01*
X166022383Y-92056317D01*
X166124897Y-91864526D01*
X166157520Y-91756980D01*
X166450511Y-91756980D01*
X166474866Y-91837288D01*
X166574761Y-92056961D01*
X166715592Y-92252924D01*
X166891948Y-92417647D01*
X167097051Y-92544799D01*
X167323019Y-92629495D01*
X167513000Y-92569187D01*
X167513000Y-91567000D01*
X167767000Y-91567000D01*
X167767000Y-92569187D01*
X167956981Y-92629495D01*
X168182949Y-92544799D01*
X168388052Y-92417647D01*
X168564408Y-92252924D01*
X168705239Y-92056961D01*
X168805134Y-91837288D01*
X168829489Y-91756980D01*
X168768627Y-91567000D01*
X167767000Y-91567000D01*
X167513000Y-91567000D01*
X166511373Y-91567000D01*
X166450511Y-91756980D01*
X166157520Y-91756980D01*
X166188025Y-91656422D01*
X166209341Y-91440000D01*
X166188025Y-91223578D01*
X166157521Y-91123020D01*
X166450511Y-91123020D01*
X166511373Y-91313000D01*
X167513000Y-91313000D01*
X167513000Y-90310813D01*
X167767000Y-90310813D01*
X167767000Y-91313000D01*
X168768627Y-91313000D01*
X168829489Y-91123020D01*
X168805134Y-91042712D01*
X168705239Y-90823039D01*
X168564408Y-90627076D01*
X168388052Y-90462353D01*
X168182949Y-90335201D01*
X167956981Y-90250505D01*
X167767000Y-90310813D01*
X167513000Y-90310813D01*
X167323019Y-90250505D01*
X167097051Y-90335201D01*
X166891948Y-90462353D01*
X166715592Y-90627076D01*
X166574761Y-90823039D01*
X166474866Y-91042712D01*
X166450511Y-91123020D01*
X166157521Y-91123020D01*
X166124897Y-91015474D01*
X166022383Y-90823683D01*
X165884423Y-90655577D01*
X165716317Y-90517617D01*
X165524526Y-90415103D01*
X165316422Y-90351975D01*
X165154227Y-90336000D01*
X165045773Y-90336000D01*
X164883578Y-90351975D01*
X164675474Y-90415103D01*
X164483683Y-90517617D01*
X164315577Y-90655577D01*
X164177617Y-90823683D01*
X164075103Y-91015474D01*
X164011975Y-91223578D01*
X163990659Y-91440000D01*
X158585228Y-91440000D01*
X158585228Y-90590000D01*
X158580324Y-90540207D01*
X158565800Y-90492328D01*
X158542214Y-90448203D01*
X158510473Y-90409527D01*
X158471797Y-90377786D01*
X158427672Y-90354200D01*
X158379793Y-90339676D01*
X158330000Y-90334772D01*
X156630000Y-90334772D01*
X156580207Y-90339676D01*
X156532328Y-90354200D01*
X156488203Y-90377786D01*
X156449527Y-90409527D01*
X156417786Y-90448203D01*
X156394200Y-90492328D01*
X156379676Y-90540207D01*
X156374772Y-90590000D01*
X155644517Y-90590000D01*
X155556317Y-90517617D01*
X155364526Y-90415103D01*
X155156422Y-90351975D01*
X154994227Y-90336000D01*
X154885773Y-90336000D01*
X154723578Y-90351975D01*
X154515474Y-90415103D01*
X154323683Y-90517617D01*
X154155577Y-90655577D01*
X154017617Y-90823683D01*
X153915103Y-91015474D01*
X153851975Y-91223578D01*
X153830659Y-91440000D01*
X144449000Y-91440000D01*
X144449000Y-91006429D01*
X151247870Y-91006429D01*
X151289479Y-91192000D01*
X152152000Y-91192000D01*
X152152000Y-90331657D01*
X152648000Y-90331657D01*
X152648000Y-91192000D01*
X153510521Y-91192000D01*
X153552130Y-91006429D01*
X153445407Y-90789991D01*
X153298509Y-90598532D01*
X153117082Y-90439410D01*
X152908098Y-90318740D01*
X152833569Y-90287881D01*
X152648000Y-90331657D01*
X152152000Y-90331657D01*
X151966431Y-90287881D01*
X151891902Y-90318740D01*
X151682918Y-90439410D01*
X151501491Y-90598532D01*
X151354593Y-90789991D01*
X151247870Y-91006429D01*
X144449000Y-91006429D01*
X144449000Y-89333571D01*
X151247870Y-89333571D01*
X151354593Y-89550009D01*
X151501491Y-89741468D01*
X151682918Y-89900590D01*
X151891902Y-90021260D01*
X151966431Y-90052119D01*
X152152000Y-90008343D01*
X152152000Y-89148000D01*
X152648000Y-89148000D01*
X152648000Y-90008343D01*
X152833569Y-90052119D01*
X152908098Y-90021260D01*
X153117082Y-89900590D01*
X153298509Y-89741468D01*
X153445407Y-89550009D01*
X153552130Y-89333571D01*
X153510521Y-89148000D01*
X152648000Y-89148000D01*
X152152000Y-89148000D01*
X151289479Y-89148000D01*
X151247870Y-89333571D01*
X144449000Y-89333571D01*
X144449000Y-88900000D01*
X153830659Y-88900000D01*
X153851975Y-89116422D01*
X153915103Y-89324526D01*
X154017617Y-89516317D01*
X154155577Y-89684423D01*
X154323683Y-89822383D01*
X154515474Y-89924897D01*
X154723578Y-89988025D01*
X154885773Y-90004000D01*
X154994227Y-90004000D01*
X155156422Y-89988025D01*
X155364526Y-89924897D01*
X155556317Y-89822383D01*
X155724423Y-89684423D01*
X155862383Y-89516317D01*
X155964897Y-89324526D01*
X156028025Y-89116422D01*
X156049341Y-88900000D01*
X156028025Y-88683578D01*
X155964897Y-88475474D01*
X155862383Y-88283683D01*
X155724423Y-88115577D01*
X155644517Y-88050000D01*
X156374772Y-88050000D01*
X156374772Y-89750000D01*
X156379676Y-89799793D01*
X156394200Y-89847672D01*
X156417786Y-89891797D01*
X156449527Y-89930473D01*
X156488203Y-89962214D01*
X156532328Y-89985800D01*
X156580207Y-90000324D01*
X156630000Y-90005228D01*
X158330000Y-90005228D01*
X158379793Y-90000324D01*
X158427672Y-89985800D01*
X158471797Y-89962214D01*
X158510473Y-89930473D01*
X158542214Y-89891797D01*
X158565800Y-89847672D01*
X158580324Y-89799793D01*
X158585228Y-89750000D01*
X158585228Y-88900000D01*
X163990659Y-88900000D01*
X164011975Y-89116422D01*
X164075103Y-89324526D01*
X164177617Y-89516317D01*
X164315577Y-89684423D01*
X164483683Y-89822383D01*
X164675474Y-89924897D01*
X164883578Y-89988025D01*
X165045773Y-90004000D01*
X165154227Y-90004000D01*
X165316422Y-89988025D01*
X165524526Y-89924897D01*
X165716317Y-89822383D01*
X165884423Y-89684423D01*
X166022383Y-89516317D01*
X166124897Y-89324526D01*
X166188025Y-89116422D01*
X166209341Y-88900000D01*
X166530659Y-88900000D01*
X166551975Y-89116422D01*
X166615103Y-89324526D01*
X166717617Y-89516317D01*
X166855577Y-89684423D01*
X167023683Y-89822383D01*
X167215474Y-89924897D01*
X167423578Y-89988025D01*
X167585773Y-90004000D01*
X167694227Y-90004000D01*
X167856422Y-89988025D01*
X168064526Y-89924897D01*
X168256317Y-89822383D01*
X168424423Y-89684423D01*
X168562383Y-89516317D01*
X168664897Y-89324526D01*
X168728025Y-89116422D01*
X168749341Y-88900000D01*
X168728025Y-88683578D01*
X168664897Y-88475474D01*
X168562383Y-88283683D01*
X168424423Y-88115577D01*
X168256317Y-87977617D01*
X168064526Y-87875103D01*
X167856422Y-87811975D01*
X167694227Y-87796000D01*
X167585773Y-87796000D01*
X167423578Y-87811975D01*
X167215474Y-87875103D01*
X167023683Y-87977617D01*
X166855577Y-88115577D01*
X166717617Y-88283683D01*
X166615103Y-88475474D01*
X166551975Y-88683578D01*
X166530659Y-88900000D01*
X166209341Y-88900000D01*
X166188025Y-88683578D01*
X166124897Y-88475474D01*
X166022383Y-88283683D01*
X165884423Y-88115577D01*
X165716317Y-87977617D01*
X165524526Y-87875103D01*
X165316422Y-87811975D01*
X165154227Y-87796000D01*
X165045773Y-87796000D01*
X164883578Y-87811975D01*
X164675474Y-87875103D01*
X164483683Y-87977617D01*
X164315577Y-88115577D01*
X164177617Y-88283683D01*
X164075103Y-88475474D01*
X164011975Y-88683578D01*
X163990659Y-88900000D01*
X158585228Y-88900000D01*
X158585228Y-88050000D01*
X158580324Y-88000207D01*
X158565800Y-87952328D01*
X158542214Y-87908203D01*
X158510473Y-87869527D01*
X158471797Y-87837786D01*
X158427672Y-87814200D01*
X158379793Y-87799676D01*
X158330000Y-87794772D01*
X156630000Y-87794772D01*
X156580207Y-87799676D01*
X156532328Y-87814200D01*
X156488203Y-87837786D01*
X156449527Y-87869527D01*
X156417786Y-87908203D01*
X156394200Y-87952328D01*
X156379676Y-88000207D01*
X156374772Y-88050000D01*
X155644517Y-88050000D01*
X155556317Y-87977617D01*
X155364526Y-87875103D01*
X155156422Y-87811975D01*
X154994227Y-87796000D01*
X154885773Y-87796000D01*
X154723578Y-87811975D01*
X154515474Y-87875103D01*
X154323683Y-87977617D01*
X154155577Y-88115577D01*
X154017617Y-88283683D01*
X153915103Y-88475474D01*
X153851975Y-88683578D01*
X153830659Y-88900000D01*
X144449000Y-88900000D01*
X144449000Y-88466429D01*
X151247870Y-88466429D01*
X151289479Y-88652000D01*
X152152000Y-88652000D01*
X152152000Y-87791657D01*
X152648000Y-87791657D01*
X152648000Y-88652000D01*
X153510521Y-88652000D01*
X153552130Y-88466429D01*
X153445407Y-88249991D01*
X153298509Y-88058532D01*
X153117082Y-87899410D01*
X152908098Y-87778740D01*
X152833569Y-87747881D01*
X152648000Y-87791657D01*
X152152000Y-87791657D01*
X151966431Y-87747881D01*
X151891902Y-87778740D01*
X151682918Y-87899410D01*
X151501491Y-88058532D01*
X151354593Y-88249991D01*
X151247870Y-88466429D01*
X144449000Y-88466429D01*
X144449000Y-86360000D01*
X163990659Y-86360000D01*
X164011975Y-86576422D01*
X164075103Y-86784526D01*
X164177617Y-86976317D01*
X164315577Y-87144423D01*
X164483683Y-87282383D01*
X164675474Y-87384897D01*
X164883578Y-87448025D01*
X165045773Y-87464000D01*
X165154227Y-87464000D01*
X165316422Y-87448025D01*
X165524526Y-87384897D01*
X165716317Y-87282383D01*
X165884423Y-87144423D01*
X166022383Y-86976317D01*
X166124897Y-86784526D01*
X166188025Y-86576422D01*
X166209341Y-86360000D01*
X166530659Y-86360000D01*
X166551975Y-86576422D01*
X166615103Y-86784526D01*
X166717617Y-86976317D01*
X166855577Y-87144423D01*
X167023683Y-87282383D01*
X167215474Y-87384897D01*
X167423578Y-87448025D01*
X167585773Y-87464000D01*
X167694227Y-87464000D01*
X167856422Y-87448025D01*
X168064526Y-87384897D01*
X168256317Y-87282383D01*
X168424423Y-87144423D01*
X168562383Y-86976317D01*
X168664897Y-86784526D01*
X168728025Y-86576422D01*
X168749341Y-86360000D01*
X168728025Y-86143578D01*
X168664897Y-85935474D01*
X168562383Y-85743683D01*
X168424423Y-85575577D01*
X168256317Y-85437617D01*
X168064526Y-85335103D01*
X167856422Y-85271975D01*
X167694227Y-85256000D01*
X167585773Y-85256000D01*
X167423578Y-85271975D01*
X167215474Y-85335103D01*
X167023683Y-85437617D01*
X166855577Y-85575577D01*
X166717617Y-85743683D01*
X166615103Y-85935474D01*
X166551975Y-86143578D01*
X166530659Y-86360000D01*
X166209341Y-86360000D01*
X166188025Y-86143578D01*
X166124897Y-85935474D01*
X166022383Y-85743683D01*
X165884423Y-85575577D01*
X165716317Y-85437617D01*
X165524526Y-85335103D01*
X165316422Y-85271975D01*
X165154227Y-85256000D01*
X165045773Y-85256000D01*
X164883578Y-85271975D01*
X164675474Y-85335103D01*
X164483683Y-85437617D01*
X164315577Y-85575577D01*
X164177617Y-85743683D01*
X164075103Y-85935474D01*
X164011975Y-86143578D01*
X163990659Y-86360000D01*
X144449000Y-86360000D01*
X144449000Y-84253571D01*
X151247870Y-84253571D01*
X151354593Y-84470009D01*
X151501491Y-84661468D01*
X151682918Y-84820590D01*
X151891902Y-84941260D01*
X151966431Y-84972119D01*
X152152000Y-84928343D01*
X152152000Y-84068000D01*
X152648000Y-84068000D01*
X152648000Y-84928343D01*
X152833569Y-84972119D01*
X152908098Y-84941260D01*
X153117082Y-84820590D01*
X153298509Y-84661468D01*
X153445407Y-84470009D01*
X153552130Y-84253571D01*
X153510521Y-84068000D01*
X152648000Y-84068000D01*
X152152000Y-84068000D01*
X151289479Y-84068000D01*
X151247870Y-84253571D01*
X144449000Y-84253571D01*
X144449000Y-83820000D01*
X153830659Y-83820000D01*
X153851975Y-84036422D01*
X153915103Y-84244526D01*
X154017617Y-84436317D01*
X154155577Y-84604423D01*
X154323683Y-84742383D01*
X154515474Y-84844897D01*
X154723578Y-84908025D01*
X154885773Y-84924000D01*
X154994227Y-84924000D01*
X155156422Y-84908025D01*
X155364526Y-84844897D01*
X155556317Y-84742383D01*
X155724423Y-84604423D01*
X155862383Y-84436317D01*
X155964897Y-84244526D01*
X156028025Y-84036422D01*
X156049341Y-83820000D01*
X156028025Y-83603578D01*
X155964897Y-83395474D01*
X155862383Y-83203683D01*
X155724423Y-83035577D01*
X155644517Y-82970000D01*
X156374772Y-82970000D01*
X156374772Y-84670000D01*
X156379676Y-84719793D01*
X156394200Y-84767672D01*
X156417786Y-84811797D01*
X156449527Y-84850473D01*
X156488203Y-84882214D01*
X156532328Y-84905800D01*
X156580207Y-84920324D01*
X156630000Y-84925228D01*
X158330000Y-84925228D01*
X158379793Y-84920324D01*
X158427672Y-84905800D01*
X158471797Y-84882214D01*
X158510473Y-84850473D01*
X158542214Y-84811797D01*
X158565800Y-84767672D01*
X158580324Y-84719793D01*
X158585228Y-84670000D01*
X158585228Y-83820000D01*
X163990659Y-83820000D01*
X164011975Y-84036422D01*
X164075103Y-84244526D01*
X164177617Y-84436317D01*
X164315577Y-84604423D01*
X164483683Y-84742383D01*
X164675474Y-84844897D01*
X164883578Y-84908025D01*
X165045773Y-84924000D01*
X165154227Y-84924000D01*
X165316422Y-84908025D01*
X165524526Y-84844897D01*
X165716317Y-84742383D01*
X165884423Y-84604423D01*
X166022383Y-84436317D01*
X166124897Y-84244526D01*
X166157520Y-84136980D01*
X166450511Y-84136980D01*
X166474866Y-84217288D01*
X166574761Y-84436961D01*
X166715592Y-84632924D01*
X166891948Y-84797647D01*
X167097051Y-84924799D01*
X167323019Y-85009495D01*
X167513000Y-84949187D01*
X167513000Y-83947000D01*
X167767000Y-83947000D01*
X167767000Y-84949187D01*
X167956981Y-85009495D01*
X168182949Y-84924799D01*
X168388052Y-84797647D01*
X168564408Y-84632924D01*
X168705239Y-84436961D01*
X168805134Y-84217288D01*
X168829489Y-84136980D01*
X168768627Y-83947000D01*
X167767000Y-83947000D01*
X167513000Y-83947000D01*
X166511373Y-83947000D01*
X166450511Y-84136980D01*
X166157520Y-84136980D01*
X166188025Y-84036422D01*
X166209341Y-83820000D01*
X166188025Y-83603578D01*
X166157521Y-83503020D01*
X166450511Y-83503020D01*
X166511373Y-83693000D01*
X167513000Y-83693000D01*
X167513000Y-82690813D01*
X167767000Y-82690813D01*
X167767000Y-83693000D01*
X168768627Y-83693000D01*
X168829489Y-83503020D01*
X168805134Y-83422712D01*
X168705239Y-83203039D01*
X168564408Y-83007076D01*
X168388052Y-82842353D01*
X168182949Y-82715201D01*
X167956981Y-82630505D01*
X167767000Y-82690813D01*
X167513000Y-82690813D01*
X167323019Y-82630505D01*
X167097051Y-82715201D01*
X166891948Y-82842353D01*
X166715592Y-83007076D01*
X166574761Y-83203039D01*
X166474866Y-83422712D01*
X166450511Y-83503020D01*
X166157521Y-83503020D01*
X166124897Y-83395474D01*
X166022383Y-83203683D01*
X165884423Y-83035577D01*
X165716317Y-82897617D01*
X165524526Y-82795103D01*
X165316422Y-82731975D01*
X165154227Y-82716000D01*
X165045773Y-82716000D01*
X164883578Y-82731975D01*
X164675474Y-82795103D01*
X164483683Y-82897617D01*
X164315577Y-83035577D01*
X164177617Y-83203683D01*
X164075103Y-83395474D01*
X164011975Y-83603578D01*
X163990659Y-83820000D01*
X158585228Y-83820000D01*
X158585228Y-82970000D01*
X158580324Y-82920207D01*
X158565800Y-82872328D01*
X158542214Y-82828203D01*
X158510473Y-82789527D01*
X158471797Y-82757786D01*
X158427672Y-82734200D01*
X158379793Y-82719676D01*
X158330000Y-82714772D01*
X156630000Y-82714772D01*
X156580207Y-82719676D01*
X156532328Y-82734200D01*
X156488203Y-82757786D01*
X156449527Y-82789527D01*
X156417786Y-82828203D01*
X156394200Y-82872328D01*
X156379676Y-82920207D01*
X156374772Y-82970000D01*
X155644517Y-82970000D01*
X155556317Y-82897617D01*
X155364526Y-82795103D01*
X155156422Y-82731975D01*
X154994227Y-82716000D01*
X154885773Y-82716000D01*
X154723578Y-82731975D01*
X154515474Y-82795103D01*
X154323683Y-82897617D01*
X154155577Y-83035577D01*
X154017617Y-83203683D01*
X153915103Y-83395474D01*
X153851975Y-83603578D01*
X153830659Y-83820000D01*
X144449000Y-83820000D01*
X144449000Y-83386429D01*
X151247870Y-83386429D01*
X151289479Y-83572000D01*
X152152000Y-83572000D01*
X152152000Y-82711657D01*
X152648000Y-82711657D01*
X152648000Y-83572000D01*
X153510521Y-83572000D01*
X153552130Y-83386429D01*
X153445407Y-83169991D01*
X153298509Y-82978532D01*
X153117082Y-82819410D01*
X152908098Y-82698740D01*
X152833569Y-82667881D01*
X152648000Y-82711657D01*
X152152000Y-82711657D01*
X151966431Y-82667881D01*
X151891902Y-82698740D01*
X151682918Y-82819410D01*
X151501491Y-82978532D01*
X151354593Y-83169991D01*
X151247870Y-83386429D01*
X144449000Y-83386429D01*
X144449000Y-81713571D01*
X151247870Y-81713571D01*
X151354593Y-81930009D01*
X151501491Y-82121468D01*
X151682918Y-82280590D01*
X151891902Y-82401260D01*
X151966431Y-82432119D01*
X152152000Y-82388343D01*
X152152000Y-81528000D01*
X152648000Y-81528000D01*
X152648000Y-82388343D01*
X152833569Y-82432119D01*
X152908098Y-82401260D01*
X153117082Y-82280590D01*
X153298509Y-82121468D01*
X153445407Y-81930009D01*
X153552130Y-81713571D01*
X153510521Y-81528000D01*
X152648000Y-81528000D01*
X152152000Y-81528000D01*
X151289479Y-81528000D01*
X151247870Y-81713571D01*
X144449000Y-81713571D01*
X144449000Y-81280000D01*
X153830659Y-81280000D01*
X153851975Y-81496422D01*
X153915103Y-81704526D01*
X154017617Y-81896317D01*
X154155577Y-82064423D01*
X154323683Y-82202383D01*
X154515474Y-82304897D01*
X154723578Y-82368025D01*
X154885773Y-82384000D01*
X154994227Y-82384000D01*
X155156422Y-82368025D01*
X155364526Y-82304897D01*
X155556317Y-82202383D01*
X155724423Y-82064423D01*
X155862383Y-81896317D01*
X155964897Y-81704526D01*
X156028025Y-81496422D01*
X156049341Y-81280000D01*
X156028025Y-81063578D01*
X155964897Y-80855474D01*
X155862383Y-80663683D01*
X155724423Y-80495577D01*
X155644517Y-80430000D01*
X156374772Y-80430000D01*
X156374772Y-82130000D01*
X156379676Y-82179793D01*
X156394200Y-82227672D01*
X156417786Y-82271797D01*
X156449527Y-82310473D01*
X156488203Y-82342214D01*
X156532328Y-82365800D01*
X156580207Y-82380324D01*
X156630000Y-82385228D01*
X158330000Y-82385228D01*
X158379793Y-82380324D01*
X158427672Y-82365800D01*
X158471797Y-82342214D01*
X158510473Y-82310473D01*
X158542214Y-82271797D01*
X158565800Y-82227672D01*
X158580324Y-82179793D01*
X158585228Y-82130000D01*
X158585228Y-81280000D01*
X163990659Y-81280000D01*
X164011975Y-81496422D01*
X164075103Y-81704526D01*
X164177617Y-81896317D01*
X164315577Y-82064423D01*
X164483683Y-82202383D01*
X164675474Y-82304897D01*
X164883578Y-82368025D01*
X165045773Y-82384000D01*
X165154227Y-82384000D01*
X165316422Y-82368025D01*
X165524526Y-82304897D01*
X165716317Y-82202383D01*
X165884423Y-82064423D01*
X166022383Y-81896317D01*
X166124897Y-81704526D01*
X166188025Y-81496422D01*
X166209341Y-81280000D01*
X166530659Y-81280000D01*
X166551975Y-81496422D01*
X166615103Y-81704526D01*
X166717617Y-81896317D01*
X166855577Y-82064423D01*
X167023683Y-82202383D01*
X167215474Y-82304897D01*
X167423578Y-82368025D01*
X167585773Y-82384000D01*
X167694227Y-82384000D01*
X167856422Y-82368025D01*
X168064526Y-82304897D01*
X168256317Y-82202383D01*
X168424423Y-82064423D01*
X168562383Y-81896317D01*
X168664897Y-81704526D01*
X168728025Y-81496422D01*
X168749341Y-81280000D01*
X168728025Y-81063578D01*
X168664897Y-80855474D01*
X168562383Y-80663683D01*
X168424423Y-80495577D01*
X168256317Y-80357617D01*
X168064526Y-80255103D01*
X167856422Y-80191975D01*
X167694227Y-80176000D01*
X167585773Y-80176000D01*
X167423578Y-80191975D01*
X167215474Y-80255103D01*
X167023683Y-80357617D01*
X166855577Y-80495577D01*
X166717617Y-80663683D01*
X166615103Y-80855474D01*
X166551975Y-81063578D01*
X166530659Y-81280000D01*
X166209341Y-81280000D01*
X166188025Y-81063578D01*
X166124897Y-80855474D01*
X166022383Y-80663683D01*
X165884423Y-80495577D01*
X165716317Y-80357617D01*
X165524526Y-80255103D01*
X165316422Y-80191975D01*
X165154227Y-80176000D01*
X165045773Y-80176000D01*
X164883578Y-80191975D01*
X164675474Y-80255103D01*
X164483683Y-80357617D01*
X164315577Y-80495577D01*
X164177617Y-80663683D01*
X164075103Y-80855474D01*
X164011975Y-81063578D01*
X163990659Y-81280000D01*
X158585228Y-81280000D01*
X158585228Y-80430000D01*
X158580324Y-80380207D01*
X158565800Y-80332328D01*
X158542214Y-80288203D01*
X158510473Y-80249527D01*
X158471797Y-80217786D01*
X158427672Y-80194200D01*
X158379793Y-80179676D01*
X158330000Y-80174772D01*
X156630000Y-80174772D01*
X156580207Y-80179676D01*
X156532328Y-80194200D01*
X156488203Y-80217786D01*
X156449527Y-80249527D01*
X156417786Y-80288203D01*
X156394200Y-80332328D01*
X156379676Y-80380207D01*
X156374772Y-80430000D01*
X155644517Y-80430000D01*
X155556317Y-80357617D01*
X155364526Y-80255103D01*
X155156422Y-80191975D01*
X154994227Y-80176000D01*
X154885773Y-80176000D01*
X154723578Y-80191975D01*
X154515474Y-80255103D01*
X154323683Y-80357617D01*
X154155577Y-80495577D01*
X154017617Y-80663683D01*
X153915103Y-80855474D01*
X153851975Y-81063578D01*
X153830659Y-81280000D01*
X144449000Y-81280000D01*
X144449000Y-80846429D01*
X151247870Y-80846429D01*
X151289479Y-81032000D01*
X152152000Y-81032000D01*
X152152000Y-80171657D01*
X152648000Y-80171657D01*
X152648000Y-81032000D01*
X153510521Y-81032000D01*
X153552130Y-80846429D01*
X153445407Y-80629991D01*
X153298509Y-80438532D01*
X153117082Y-80279410D01*
X152908098Y-80158740D01*
X152833569Y-80127881D01*
X152648000Y-80171657D01*
X152152000Y-80171657D01*
X151966431Y-80127881D01*
X151891902Y-80158740D01*
X151682918Y-80279410D01*
X151501491Y-80438532D01*
X151354593Y-80629991D01*
X151247870Y-80846429D01*
X144449000Y-80846429D01*
X144449000Y-79173571D01*
X151247870Y-79173571D01*
X151354593Y-79390009D01*
X151501491Y-79581468D01*
X151682918Y-79740590D01*
X151891902Y-79861260D01*
X151966431Y-79892119D01*
X152152000Y-79848343D01*
X152152000Y-78988000D01*
X152648000Y-78988000D01*
X152648000Y-79848343D01*
X152833569Y-79892119D01*
X152908098Y-79861260D01*
X153117082Y-79740590D01*
X153298509Y-79581468D01*
X153445407Y-79390009D01*
X153552130Y-79173571D01*
X153510521Y-78988000D01*
X152648000Y-78988000D01*
X152152000Y-78988000D01*
X151289479Y-78988000D01*
X151247870Y-79173571D01*
X144449000Y-79173571D01*
X144449000Y-78740000D01*
X153830659Y-78740000D01*
X153851975Y-78956422D01*
X153915103Y-79164526D01*
X154017617Y-79356317D01*
X154155577Y-79524423D01*
X154323683Y-79662383D01*
X154515474Y-79764897D01*
X154723578Y-79828025D01*
X154885773Y-79844000D01*
X154994227Y-79844000D01*
X155156422Y-79828025D01*
X155364526Y-79764897D01*
X155556317Y-79662383D01*
X155724423Y-79524423D01*
X155862383Y-79356317D01*
X155964897Y-79164526D01*
X156028025Y-78956422D01*
X156049341Y-78740000D01*
X156028025Y-78523578D01*
X155964897Y-78315474D01*
X155862383Y-78123683D01*
X155724423Y-77955577D01*
X155644517Y-77890000D01*
X156374772Y-77890000D01*
X156374772Y-79590000D01*
X156379676Y-79639793D01*
X156394200Y-79687672D01*
X156417786Y-79731797D01*
X156449527Y-79770473D01*
X156488203Y-79802214D01*
X156532328Y-79825800D01*
X156580207Y-79840324D01*
X156630000Y-79845228D01*
X158330000Y-79845228D01*
X158379793Y-79840324D01*
X158427672Y-79825800D01*
X158471797Y-79802214D01*
X158510473Y-79770473D01*
X158542214Y-79731797D01*
X158565800Y-79687672D01*
X158580324Y-79639793D01*
X158585228Y-79590000D01*
X158585228Y-79056980D01*
X163910511Y-79056980D01*
X163934866Y-79137288D01*
X164034761Y-79356961D01*
X164175592Y-79552924D01*
X164351948Y-79717647D01*
X164557051Y-79844799D01*
X164783019Y-79929495D01*
X164973000Y-79869187D01*
X164973000Y-78867000D01*
X165227000Y-78867000D01*
X165227000Y-79869187D01*
X165416981Y-79929495D01*
X165642949Y-79844799D01*
X165848052Y-79717647D01*
X166024408Y-79552924D01*
X166165239Y-79356961D01*
X166265134Y-79137288D01*
X166289489Y-79056980D01*
X166228627Y-78867000D01*
X165227000Y-78867000D01*
X164973000Y-78867000D01*
X163971373Y-78867000D01*
X163910511Y-79056980D01*
X158585228Y-79056980D01*
X158585228Y-78740000D01*
X166530659Y-78740000D01*
X166551975Y-78956422D01*
X166615103Y-79164526D01*
X166717617Y-79356317D01*
X166855577Y-79524423D01*
X167023683Y-79662383D01*
X167215474Y-79764897D01*
X167423578Y-79828025D01*
X167585773Y-79844000D01*
X167694227Y-79844000D01*
X167856422Y-79828025D01*
X168064526Y-79764897D01*
X168256317Y-79662383D01*
X168424423Y-79524423D01*
X168562383Y-79356317D01*
X168664897Y-79164526D01*
X168728025Y-78956422D01*
X168749341Y-78740000D01*
X168728025Y-78523578D01*
X168664897Y-78315474D01*
X168562383Y-78123683D01*
X168424423Y-77955577D01*
X168256317Y-77817617D01*
X168064526Y-77715103D01*
X167856422Y-77651975D01*
X167694227Y-77636000D01*
X167585773Y-77636000D01*
X167423578Y-77651975D01*
X167215474Y-77715103D01*
X167023683Y-77817617D01*
X166855577Y-77955577D01*
X166717617Y-78123683D01*
X166615103Y-78315474D01*
X166551975Y-78523578D01*
X166530659Y-78740000D01*
X158585228Y-78740000D01*
X158585228Y-78423020D01*
X163910511Y-78423020D01*
X163971373Y-78613000D01*
X164973000Y-78613000D01*
X164973000Y-77610813D01*
X165227000Y-77610813D01*
X165227000Y-78613000D01*
X166228627Y-78613000D01*
X166289489Y-78423020D01*
X166265134Y-78342712D01*
X166165239Y-78123039D01*
X166024408Y-77927076D01*
X165848052Y-77762353D01*
X165642949Y-77635201D01*
X165416981Y-77550505D01*
X165227000Y-77610813D01*
X164973000Y-77610813D01*
X164783019Y-77550505D01*
X164557051Y-77635201D01*
X164351948Y-77762353D01*
X164175592Y-77927076D01*
X164034761Y-78123039D01*
X163934866Y-78342712D01*
X163910511Y-78423020D01*
X158585228Y-78423020D01*
X158585228Y-77890000D01*
X158580324Y-77840207D01*
X158565800Y-77792328D01*
X158542214Y-77748203D01*
X158510473Y-77709527D01*
X158471797Y-77677786D01*
X158427672Y-77654200D01*
X158379793Y-77639676D01*
X158330000Y-77634772D01*
X156630000Y-77634772D01*
X156580207Y-77639676D01*
X156532328Y-77654200D01*
X156488203Y-77677786D01*
X156449527Y-77709527D01*
X156417786Y-77748203D01*
X156394200Y-77792328D01*
X156379676Y-77840207D01*
X156374772Y-77890000D01*
X155644517Y-77890000D01*
X155556317Y-77817617D01*
X155364526Y-77715103D01*
X155156422Y-77651975D01*
X154994227Y-77636000D01*
X154885773Y-77636000D01*
X154723578Y-77651975D01*
X154515474Y-77715103D01*
X154323683Y-77817617D01*
X154155577Y-77955577D01*
X154017617Y-78123683D01*
X153915103Y-78315474D01*
X153851975Y-78523578D01*
X153830659Y-78740000D01*
X144449000Y-78740000D01*
X144449000Y-78306429D01*
X151247870Y-78306429D01*
X151289479Y-78492000D01*
X152152000Y-78492000D01*
X152152000Y-77631657D01*
X152648000Y-77631657D01*
X152648000Y-78492000D01*
X153510521Y-78492000D01*
X153552130Y-78306429D01*
X153445407Y-78089991D01*
X153298509Y-77898532D01*
X153117082Y-77739410D01*
X152908098Y-77618740D01*
X152833569Y-77587881D01*
X152648000Y-77631657D01*
X152152000Y-77631657D01*
X151966431Y-77587881D01*
X151891902Y-77618740D01*
X151682918Y-77739410D01*
X151501491Y-77898532D01*
X151354593Y-78089991D01*
X151247870Y-78306429D01*
X144449000Y-78306429D01*
X144449000Y-76200000D01*
X163990659Y-76200000D01*
X164011975Y-76416422D01*
X164075103Y-76624526D01*
X164177617Y-76816317D01*
X164315577Y-76984423D01*
X164483683Y-77122383D01*
X164675474Y-77224897D01*
X164883578Y-77288025D01*
X165045773Y-77304000D01*
X165154227Y-77304000D01*
X165316422Y-77288025D01*
X165524526Y-77224897D01*
X165716317Y-77122383D01*
X165884423Y-76984423D01*
X166022383Y-76816317D01*
X166124897Y-76624526D01*
X166188025Y-76416422D01*
X166209341Y-76200000D01*
X166530659Y-76200000D01*
X166551975Y-76416422D01*
X166615103Y-76624526D01*
X166717617Y-76816317D01*
X166855577Y-76984423D01*
X167023683Y-77122383D01*
X167215474Y-77224897D01*
X167423578Y-77288025D01*
X167585773Y-77304000D01*
X167694227Y-77304000D01*
X167856422Y-77288025D01*
X168064526Y-77224897D01*
X168256317Y-77122383D01*
X168424423Y-76984423D01*
X168562383Y-76816317D01*
X168664897Y-76624526D01*
X168728025Y-76416422D01*
X168749341Y-76200000D01*
X168728025Y-75983578D01*
X168664897Y-75775474D01*
X168562383Y-75583683D01*
X168424423Y-75415577D01*
X168256317Y-75277617D01*
X168064526Y-75175103D01*
X167856422Y-75111975D01*
X167694227Y-75096000D01*
X167585773Y-75096000D01*
X167423578Y-75111975D01*
X167215474Y-75175103D01*
X167023683Y-75277617D01*
X166855577Y-75415577D01*
X166717617Y-75583683D01*
X166615103Y-75775474D01*
X166551975Y-75983578D01*
X166530659Y-76200000D01*
X166209341Y-76200000D01*
X166188025Y-75983578D01*
X166124897Y-75775474D01*
X166022383Y-75583683D01*
X165884423Y-75415577D01*
X165716317Y-75277617D01*
X165524526Y-75175103D01*
X165316422Y-75111975D01*
X165154227Y-75096000D01*
X165045773Y-75096000D01*
X164883578Y-75111975D01*
X164675474Y-75175103D01*
X164483683Y-75277617D01*
X164315577Y-75415577D01*
X164177617Y-75583683D01*
X164075103Y-75775474D01*
X164011975Y-75983578D01*
X163990659Y-76200000D01*
X144449000Y-76200000D01*
X144449000Y-74093571D01*
X151247870Y-74093571D01*
X151354593Y-74310009D01*
X151501491Y-74501468D01*
X151682918Y-74660590D01*
X151891902Y-74781260D01*
X151966431Y-74812119D01*
X152152000Y-74768343D01*
X152152000Y-73908000D01*
X152648000Y-73908000D01*
X152648000Y-74768343D01*
X152833569Y-74812119D01*
X152908098Y-74781260D01*
X153117082Y-74660590D01*
X153298509Y-74501468D01*
X153445407Y-74310009D01*
X153552130Y-74093571D01*
X153510521Y-73908000D01*
X152648000Y-73908000D01*
X152152000Y-73908000D01*
X151289479Y-73908000D01*
X151247870Y-74093571D01*
X144449000Y-74093571D01*
X144449000Y-73660000D01*
X153830659Y-73660000D01*
X153851975Y-73876422D01*
X153915103Y-74084526D01*
X154017617Y-74276317D01*
X154155577Y-74444423D01*
X154323683Y-74582383D01*
X154515474Y-74684897D01*
X154723578Y-74748025D01*
X154885773Y-74764000D01*
X154994227Y-74764000D01*
X155156422Y-74748025D01*
X155364526Y-74684897D01*
X155556317Y-74582383D01*
X155724423Y-74444423D01*
X155862383Y-74276317D01*
X155964897Y-74084526D01*
X156028025Y-73876422D01*
X156049341Y-73660000D01*
X156028025Y-73443578D01*
X155964897Y-73235474D01*
X155862383Y-73043683D01*
X155724423Y-72875577D01*
X155644517Y-72810000D01*
X156374772Y-72810000D01*
X156374772Y-74510000D01*
X156379676Y-74559793D01*
X156394200Y-74607672D01*
X156417786Y-74651797D01*
X156449527Y-74690473D01*
X156488203Y-74722214D01*
X156532328Y-74745800D01*
X156580207Y-74760324D01*
X156630000Y-74765228D01*
X158330000Y-74765228D01*
X158379793Y-74760324D01*
X158427672Y-74745800D01*
X158471797Y-74722214D01*
X158510473Y-74690473D01*
X158542214Y-74651797D01*
X158565800Y-74607672D01*
X158580324Y-74559793D01*
X158585228Y-74510000D01*
X158585228Y-73660000D01*
X163990659Y-73660000D01*
X164011975Y-73876422D01*
X164075103Y-74084526D01*
X164177617Y-74276317D01*
X164315577Y-74444423D01*
X164483683Y-74582383D01*
X164675474Y-74684897D01*
X164883578Y-74748025D01*
X165045773Y-74764000D01*
X165154227Y-74764000D01*
X165316422Y-74748025D01*
X165524526Y-74684897D01*
X165716317Y-74582383D01*
X165884423Y-74444423D01*
X166022383Y-74276317D01*
X166124897Y-74084526D01*
X166157520Y-73976980D01*
X166450511Y-73976980D01*
X166474866Y-74057288D01*
X166574761Y-74276961D01*
X166715592Y-74472924D01*
X166891948Y-74637647D01*
X167097051Y-74764799D01*
X167323019Y-74849495D01*
X167513000Y-74789187D01*
X167513000Y-73787000D01*
X167767000Y-73787000D01*
X167767000Y-74789187D01*
X167956981Y-74849495D01*
X168182949Y-74764799D01*
X168388052Y-74637647D01*
X168564408Y-74472924D01*
X168705239Y-74276961D01*
X168805134Y-74057288D01*
X168829489Y-73976980D01*
X168768627Y-73787000D01*
X167767000Y-73787000D01*
X167513000Y-73787000D01*
X166511373Y-73787000D01*
X166450511Y-73976980D01*
X166157520Y-73976980D01*
X166188025Y-73876422D01*
X166209341Y-73660000D01*
X166188025Y-73443578D01*
X166157521Y-73343020D01*
X166450511Y-73343020D01*
X166511373Y-73533000D01*
X167513000Y-73533000D01*
X167513000Y-72530813D01*
X167767000Y-72530813D01*
X167767000Y-73533000D01*
X168768627Y-73533000D01*
X168829489Y-73343020D01*
X168805134Y-73262712D01*
X168705239Y-73043039D01*
X168564408Y-72847076D01*
X168388052Y-72682353D01*
X168182949Y-72555201D01*
X167956981Y-72470505D01*
X167767000Y-72530813D01*
X167513000Y-72530813D01*
X167323019Y-72470505D01*
X167097051Y-72555201D01*
X166891948Y-72682353D01*
X166715592Y-72847076D01*
X166574761Y-73043039D01*
X166474866Y-73262712D01*
X166450511Y-73343020D01*
X166157521Y-73343020D01*
X166124897Y-73235474D01*
X166022383Y-73043683D01*
X165884423Y-72875577D01*
X165716317Y-72737617D01*
X165524526Y-72635103D01*
X165316422Y-72571975D01*
X165154227Y-72556000D01*
X165045773Y-72556000D01*
X164883578Y-72571975D01*
X164675474Y-72635103D01*
X164483683Y-72737617D01*
X164315577Y-72875577D01*
X164177617Y-73043683D01*
X164075103Y-73235474D01*
X164011975Y-73443578D01*
X163990659Y-73660000D01*
X158585228Y-73660000D01*
X158585228Y-72810000D01*
X158580324Y-72760207D01*
X158565800Y-72712328D01*
X158542214Y-72668203D01*
X158510473Y-72629527D01*
X158471797Y-72597786D01*
X158427672Y-72574200D01*
X158379793Y-72559676D01*
X158330000Y-72554772D01*
X156630000Y-72554772D01*
X156580207Y-72559676D01*
X156532328Y-72574200D01*
X156488203Y-72597786D01*
X156449527Y-72629527D01*
X156417786Y-72668203D01*
X156394200Y-72712328D01*
X156379676Y-72760207D01*
X156374772Y-72810000D01*
X155644517Y-72810000D01*
X155556317Y-72737617D01*
X155364526Y-72635103D01*
X155156422Y-72571975D01*
X154994227Y-72556000D01*
X154885773Y-72556000D01*
X154723578Y-72571975D01*
X154515474Y-72635103D01*
X154323683Y-72737617D01*
X154155577Y-72875577D01*
X154017617Y-73043683D01*
X153915103Y-73235474D01*
X153851975Y-73443578D01*
X153830659Y-73660000D01*
X144449000Y-73660000D01*
X144449000Y-73226429D01*
X151247870Y-73226429D01*
X151289479Y-73412000D01*
X152152000Y-73412000D01*
X152152000Y-72551657D01*
X152648000Y-72551657D01*
X152648000Y-73412000D01*
X153510521Y-73412000D01*
X153552130Y-73226429D01*
X153445407Y-73009991D01*
X153298509Y-72818532D01*
X153117082Y-72659410D01*
X152908098Y-72538740D01*
X152833569Y-72507881D01*
X152648000Y-72551657D01*
X152152000Y-72551657D01*
X151966431Y-72507881D01*
X151891902Y-72538740D01*
X151682918Y-72659410D01*
X151501491Y-72818532D01*
X151354593Y-73009991D01*
X151247870Y-73226429D01*
X144449000Y-73226429D01*
X144449000Y-71553571D01*
X151247870Y-71553571D01*
X151354593Y-71770009D01*
X151501491Y-71961468D01*
X151682918Y-72120590D01*
X151891902Y-72241260D01*
X151966431Y-72272119D01*
X152152000Y-72228343D01*
X152152000Y-71368000D01*
X152648000Y-71368000D01*
X152648000Y-72228343D01*
X152833569Y-72272119D01*
X152908098Y-72241260D01*
X153117082Y-72120590D01*
X153298509Y-71961468D01*
X153445407Y-71770009D01*
X153552130Y-71553571D01*
X153510521Y-71368000D01*
X152648000Y-71368000D01*
X152152000Y-71368000D01*
X151289479Y-71368000D01*
X151247870Y-71553571D01*
X144449000Y-71553571D01*
X144449000Y-71120000D01*
X153830659Y-71120000D01*
X153851975Y-71336422D01*
X153915103Y-71544526D01*
X154017617Y-71736317D01*
X154155577Y-71904423D01*
X154323683Y-72042383D01*
X154515474Y-72144897D01*
X154723578Y-72208025D01*
X154885773Y-72224000D01*
X154994227Y-72224000D01*
X155156422Y-72208025D01*
X155364526Y-72144897D01*
X155556317Y-72042383D01*
X155724423Y-71904423D01*
X155862383Y-71736317D01*
X155964897Y-71544526D01*
X156028025Y-71336422D01*
X156049341Y-71120000D01*
X156028025Y-70903578D01*
X155964897Y-70695474D01*
X155862383Y-70503683D01*
X155724423Y-70335577D01*
X155644517Y-70270000D01*
X156374772Y-70270000D01*
X156374772Y-71970000D01*
X156379676Y-72019793D01*
X156394200Y-72067672D01*
X156417786Y-72111797D01*
X156449527Y-72150473D01*
X156488203Y-72182214D01*
X156532328Y-72205800D01*
X156580207Y-72220324D01*
X156630000Y-72225228D01*
X158330000Y-72225228D01*
X158379793Y-72220324D01*
X158427672Y-72205800D01*
X158471797Y-72182214D01*
X158510473Y-72150473D01*
X158542214Y-72111797D01*
X158565800Y-72067672D01*
X158580324Y-72019793D01*
X158585228Y-71970000D01*
X158585228Y-71120000D01*
X163990659Y-71120000D01*
X164011975Y-71336422D01*
X164075103Y-71544526D01*
X164177617Y-71736317D01*
X164315577Y-71904423D01*
X164483683Y-72042383D01*
X164675474Y-72144897D01*
X164883578Y-72208025D01*
X165045773Y-72224000D01*
X165154227Y-72224000D01*
X165316422Y-72208025D01*
X165524526Y-72144897D01*
X165716317Y-72042383D01*
X165884423Y-71904423D01*
X166022383Y-71736317D01*
X166124897Y-71544526D01*
X166188025Y-71336422D01*
X166209341Y-71120000D01*
X166530659Y-71120000D01*
X166551975Y-71336422D01*
X166615103Y-71544526D01*
X166717617Y-71736317D01*
X166855577Y-71904423D01*
X167023683Y-72042383D01*
X167215474Y-72144897D01*
X167423578Y-72208025D01*
X167585773Y-72224000D01*
X167694227Y-72224000D01*
X167856422Y-72208025D01*
X168064526Y-72144897D01*
X168256317Y-72042383D01*
X168424423Y-71904423D01*
X168562383Y-71736317D01*
X168664897Y-71544526D01*
X168728025Y-71336422D01*
X168749341Y-71120000D01*
X168728025Y-70903578D01*
X168664897Y-70695474D01*
X168562383Y-70503683D01*
X168424423Y-70335577D01*
X168256317Y-70197617D01*
X168064526Y-70095103D01*
X167856422Y-70031975D01*
X167694227Y-70016000D01*
X167585773Y-70016000D01*
X167423578Y-70031975D01*
X167215474Y-70095103D01*
X167023683Y-70197617D01*
X166855577Y-70335577D01*
X166717617Y-70503683D01*
X166615103Y-70695474D01*
X166551975Y-70903578D01*
X166530659Y-71120000D01*
X166209341Y-71120000D01*
X166188025Y-70903578D01*
X166124897Y-70695474D01*
X166022383Y-70503683D01*
X165884423Y-70335577D01*
X165716317Y-70197617D01*
X165524526Y-70095103D01*
X165316422Y-70031975D01*
X165154227Y-70016000D01*
X165045773Y-70016000D01*
X164883578Y-70031975D01*
X164675474Y-70095103D01*
X164483683Y-70197617D01*
X164315577Y-70335577D01*
X164177617Y-70503683D01*
X164075103Y-70695474D01*
X164011975Y-70903578D01*
X163990659Y-71120000D01*
X158585228Y-71120000D01*
X158585228Y-70270000D01*
X158580324Y-70220207D01*
X158565800Y-70172328D01*
X158542214Y-70128203D01*
X158510473Y-70089527D01*
X158471797Y-70057786D01*
X158427672Y-70034200D01*
X158379793Y-70019676D01*
X158330000Y-70014772D01*
X156630000Y-70014772D01*
X156580207Y-70019676D01*
X156532328Y-70034200D01*
X156488203Y-70057786D01*
X156449527Y-70089527D01*
X156417786Y-70128203D01*
X156394200Y-70172328D01*
X156379676Y-70220207D01*
X156374772Y-70270000D01*
X155644517Y-70270000D01*
X155556317Y-70197617D01*
X155364526Y-70095103D01*
X155156422Y-70031975D01*
X154994227Y-70016000D01*
X154885773Y-70016000D01*
X154723578Y-70031975D01*
X154515474Y-70095103D01*
X154323683Y-70197617D01*
X154155577Y-70335577D01*
X154017617Y-70503683D01*
X153915103Y-70695474D01*
X153851975Y-70903578D01*
X153830659Y-71120000D01*
X144449000Y-71120000D01*
X144449000Y-70686429D01*
X151247870Y-70686429D01*
X151289479Y-70872000D01*
X152152000Y-70872000D01*
X152152000Y-70011657D01*
X152648000Y-70011657D01*
X152648000Y-70872000D01*
X153510521Y-70872000D01*
X153552130Y-70686429D01*
X153445407Y-70469991D01*
X153298509Y-70278532D01*
X153117082Y-70119410D01*
X152908098Y-69998740D01*
X152833569Y-69967881D01*
X152648000Y-70011657D01*
X152152000Y-70011657D01*
X151966431Y-69967881D01*
X151891902Y-69998740D01*
X151682918Y-70119410D01*
X151501491Y-70278532D01*
X151354593Y-70469991D01*
X151247870Y-70686429D01*
X144449000Y-70686429D01*
X144449000Y-69013571D01*
X151247870Y-69013571D01*
X151354593Y-69230009D01*
X151501491Y-69421468D01*
X151682918Y-69580590D01*
X151891902Y-69701260D01*
X151966431Y-69732119D01*
X152152000Y-69688343D01*
X152152000Y-68828000D01*
X152648000Y-68828000D01*
X152648000Y-69688343D01*
X152833569Y-69732119D01*
X152908098Y-69701260D01*
X153117082Y-69580590D01*
X153298509Y-69421468D01*
X153445407Y-69230009D01*
X153552130Y-69013571D01*
X153510521Y-68828000D01*
X152648000Y-68828000D01*
X152152000Y-68828000D01*
X151289479Y-68828000D01*
X151247870Y-69013571D01*
X144449000Y-69013571D01*
X144449000Y-68580000D01*
X153830659Y-68580000D01*
X153851975Y-68796422D01*
X153915103Y-69004526D01*
X154017617Y-69196317D01*
X154155577Y-69364423D01*
X154323683Y-69502383D01*
X154515474Y-69604897D01*
X154723578Y-69668025D01*
X154885773Y-69684000D01*
X154994227Y-69684000D01*
X155156422Y-69668025D01*
X155364526Y-69604897D01*
X155556317Y-69502383D01*
X155724423Y-69364423D01*
X155862383Y-69196317D01*
X155964897Y-69004526D01*
X156028025Y-68796422D01*
X156049341Y-68580000D01*
X156028025Y-68363578D01*
X155964897Y-68155474D01*
X155862383Y-67963683D01*
X155724423Y-67795577D01*
X155644517Y-67730000D01*
X156374772Y-67730000D01*
X156374772Y-69430000D01*
X156379676Y-69479793D01*
X156394200Y-69527672D01*
X156417786Y-69571797D01*
X156449527Y-69610473D01*
X156488203Y-69642214D01*
X156532328Y-69665800D01*
X156580207Y-69680324D01*
X156630000Y-69685228D01*
X158330000Y-69685228D01*
X158379793Y-69680324D01*
X158427672Y-69665800D01*
X158471797Y-69642214D01*
X158510473Y-69610473D01*
X158542214Y-69571797D01*
X158565800Y-69527672D01*
X158580324Y-69479793D01*
X158585228Y-69430000D01*
X158585228Y-67730000D01*
X163994772Y-67730000D01*
X163994772Y-69430000D01*
X163999676Y-69479793D01*
X164014200Y-69527672D01*
X164037786Y-69571797D01*
X164069527Y-69610473D01*
X164108203Y-69642214D01*
X164152328Y-69665800D01*
X164200207Y-69680324D01*
X164250000Y-69685228D01*
X165950000Y-69685228D01*
X165999793Y-69680324D01*
X166047672Y-69665800D01*
X166091797Y-69642214D01*
X166130473Y-69610473D01*
X166162214Y-69571797D01*
X166185800Y-69527672D01*
X166200324Y-69479793D01*
X166205228Y-69430000D01*
X166205228Y-68580000D01*
X166407064Y-68580000D01*
X166430755Y-68820534D01*
X166500916Y-69051824D01*
X166614851Y-69264983D01*
X166768183Y-69451817D01*
X166955017Y-69605149D01*
X167168176Y-69719084D01*
X167399466Y-69789245D01*
X167579732Y-69807000D01*
X167700268Y-69807000D01*
X167880534Y-69789245D01*
X168111824Y-69719084D01*
X168324983Y-69605149D01*
X168511817Y-69451817D01*
X168665149Y-69264983D01*
X168779084Y-69051824D01*
X168849245Y-68820534D01*
X168872936Y-68580000D01*
X168849245Y-68339466D01*
X168779084Y-68108176D01*
X168665149Y-67895017D01*
X168511817Y-67708183D01*
X168324983Y-67554851D01*
X168111824Y-67440916D01*
X167880534Y-67370755D01*
X167700268Y-67353000D01*
X167579732Y-67353000D01*
X167399466Y-67370755D01*
X167168176Y-67440916D01*
X166955017Y-67554851D01*
X166768183Y-67708183D01*
X166614851Y-67895017D01*
X166500916Y-68108176D01*
X166430755Y-68339466D01*
X166407064Y-68580000D01*
X166205228Y-68580000D01*
X166205228Y-67730000D01*
X166200324Y-67680207D01*
X166185800Y-67632328D01*
X166162214Y-67588203D01*
X166130473Y-67549527D01*
X166091797Y-67517786D01*
X166047672Y-67494200D01*
X165999793Y-67479676D01*
X165950000Y-67474772D01*
X164250000Y-67474772D01*
X164200207Y-67479676D01*
X164152328Y-67494200D01*
X164108203Y-67517786D01*
X164069527Y-67549527D01*
X164037786Y-67588203D01*
X164014200Y-67632328D01*
X163999676Y-67680207D01*
X163994772Y-67730000D01*
X158585228Y-67730000D01*
X158580324Y-67680207D01*
X158565800Y-67632328D01*
X158542214Y-67588203D01*
X158510473Y-67549527D01*
X158471797Y-67517786D01*
X158427672Y-67494200D01*
X158379793Y-67479676D01*
X158330000Y-67474772D01*
X156630000Y-67474772D01*
X156580207Y-67479676D01*
X156532328Y-67494200D01*
X156488203Y-67517786D01*
X156449527Y-67549527D01*
X156417786Y-67588203D01*
X156394200Y-67632328D01*
X156379676Y-67680207D01*
X156374772Y-67730000D01*
X155644517Y-67730000D01*
X155556317Y-67657617D01*
X155364526Y-67555103D01*
X155156422Y-67491975D01*
X154994227Y-67476000D01*
X154885773Y-67476000D01*
X154723578Y-67491975D01*
X154515474Y-67555103D01*
X154323683Y-67657617D01*
X154155577Y-67795577D01*
X154017617Y-67963683D01*
X153915103Y-68155474D01*
X153851975Y-68363578D01*
X153830659Y-68580000D01*
X144449000Y-68580000D01*
X144449000Y-68146429D01*
X151247870Y-68146429D01*
X151289479Y-68332000D01*
X152152000Y-68332000D01*
X152152000Y-67471657D01*
X152648000Y-67471657D01*
X152648000Y-68332000D01*
X153510521Y-68332000D01*
X153552130Y-68146429D01*
X153445407Y-67929991D01*
X153298509Y-67738532D01*
X153117082Y-67579410D01*
X152908098Y-67458740D01*
X152833569Y-67427881D01*
X152648000Y-67471657D01*
X152152000Y-67471657D01*
X151966431Y-67427881D01*
X151891902Y-67458740D01*
X151682918Y-67579410D01*
X151501491Y-67738532D01*
X151354593Y-67929991D01*
X151247870Y-68146429D01*
X144449000Y-68146429D01*
X144449000Y-64350000D01*
X151167157Y-64350000D01*
X151174513Y-64424689D01*
X151196299Y-64496508D01*
X151231678Y-64562696D01*
X151279289Y-64620711D01*
X151337304Y-64668322D01*
X151403492Y-64703701D01*
X151475311Y-64725487D01*
X151550000Y-64732843D01*
X152031750Y-64731000D01*
X152127000Y-64635750D01*
X152127000Y-63773000D01*
X152673000Y-63773000D01*
X152673000Y-64635750D01*
X152768250Y-64731000D01*
X153250000Y-64732843D01*
X153324689Y-64725487D01*
X153396508Y-64703701D01*
X153462696Y-64668322D01*
X153520711Y-64620711D01*
X153568322Y-64562696D01*
X153603701Y-64496508D01*
X153625487Y-64424689D01*
X153632843Y-64350000D01*
X153631000Y-63868250D01*
X153535750Y-63773000D01*
X152673000Y-63773000D01*
X152127000Y-63773000D01*
X151264250Y-63773000D01*
X151169000Y-63868250D01*
X151167157Y-64350000D01*
X144449000Y-64350000D01*
X144449000Y-63500000D01*
X153830659Y-63500000D01*
X153851975Y-63716422D01*
X153915103Y-63924526D01*
X154017617Y-64116317D01*
X154155577Y-64284423D01*
X154323683Y-64422383D01*
X154515474Y-64524897D01*
X154723578Y-64588025D01*
X154885773Y-64604000D01*
X154994227Y-64604000D01*
X155156422Y-64588025D01*
X155364526Y-64524897D01*
X155556317Y-64422383D01*
X155644516Y-64350000D01*
X163867157Y-64350000D01*
X163874513Y-64424689D01*
X163896299Y-64496508D01*
X163931678Y-64562696D01*
X163979289Y-64620711D01*
X164037304Y-64668322D01*
X164103492Y-64703701D01*
X164175311Y-64725487D01*
X164250000Y-64732843D01*
X164756750Y-64731000D01*
X164852000Y-64635750D01*
X164852000Y-63748000D01*
X165348000Y-63748000D01*
X165348000Y-64635750D01*
X165443250Y-64731000D01*
X165950000Y-64732843D01*
X166024689Y-64725487D01*
X166096508Y-64703701D01*
X166162696Y-64668322D01*
X166220711Y-64620711D01*
X166268322Y-64562696D01*
X166303701Y-64496508D01*
X166325487Y-64424689D01*
X166332843Y-64350000D01*
X166331000Y-63843250D01*
X166235750Y-63748000D01*
X165348000Y-63748000D01*
X164852000Y-63748000D01*
X163964250Y-63748000D01*
X163869000Y-63843250D01*
X163867157Y-64350000D01*
X155644516Y-64350000D01*
X155724423Y-64284423D01*
X155862383Y-64116317D01*
X155964897Y-63924526D01*
X156028025Y-63716422D01*
X156049341Y-63500000D01*
X166407064Y-63500000D01*
X166430755Y-63740534D01*
X166500916Y-63971824D01*
X166614851Y-64184983D01*
X166768183Y-64371817D01*
X166955017Y-64525149D01*
X167168176Y-64639084D01*
X167399466Y-64709245D01*
X167579732Y-64727000D01*
X167700268Y-64727000D01*
X167880534Y-64709245D01*
X168111824Y-64639084D01*
X168324983Y-64525149D01*
X168511817Y-64371817D01*
X168665149Y-64184983D01*
X168779084Y-63971824D01*
X168849245Y-63740534D01*
X168872936Y-63500000D01*
X168849245Y-63259466D01*
X168779084Y-63028176D01*
X168665149Y-62815017D01*
X168511817Y-62628183D01*
X168324983Y-62474851D01*
X168111824Y-62360916D01*
X167880534Y-62290755D01*
X167700268Y-62273000D01*
X167579732Y-62273000D01*
X167399466Y-62290755D01*
X167168176Y-62360916D01*
X166955017Y-62474851D01*
X166768183Y-62628183D01*
X166614851Y-62815017D01*
X166500916Y-63028176D01*
X166430755Y-63259466D01*
X166407064Y-63500000D01*
X156049341Y-63500000D01*
X156028025Y-63283578D01*
X155964897Y-63075474D01*
X155862383Y-62883683D01*
X155724423Y-62715577D01*
X155644517Y-62650000D01*
X163867157Y-62650000D01*
X163869000Y-63156750D01*
X163964250Y-63252000D01*
X164852000Y-63252000D01*
X164852000Y-62364250D01*
X165348000Y-62364250D01*
X165348000Y-63252000D01*
X166235750Y-63252000D01*
X166331000Y-63156750D01*
X166332843Y-62650000D01*
X166325487Y-62575311D01*
X166303701Y-62503492D01*
X166268322Y-62437304D01*
X166220711Y-62379289D01*
X166162696Y-62331678D01*
X166096508Y-62296299D01*
X166024689Y-62274513D01*
X165950000Y-62267157D01*
X165443250Y-62269000D01*
X165348000Y-62364250D01*
X164852000Y-62364250D01*
X164756750Y-62269000D01*
X164250000Y-62267157D01*
X164175311Y-62274513D01*
X164103492Y-62296299D01*
X164037304Y-62331678D01*
X163979289Y-62379289D01*
X163931678Y-62437304D01*
X163896299Y-62503492D01*
X163874513Y-62575311D01*
X163867157Y-62650000D01*
X155644517Y-62650000D01*
X155556317Y-62577617D01*
X155364526Y-62475103D01*
X155156422Y-62411975D01*
X154994227Y-62396000D01*
X154885773Y-62396000D01*
X154723578Y-62411975D01*
X154515474Y-62475103D01*
X154323683Y-62577617D01*
X154155577Y-62715577D01*
X154017617Y-62883683D01*
X153915103Y-63075474D01*
X153851975Y-63283578D01*
X153830659Y-63500000D01*
X144449000Y-63500000D01*
X144449000Y-62650000D01*
X151167157Y-62650000D01*
X151169000Y-63131750D01*
X151264250Y-63227000D01*
X152127000Y-63227000D01*
X152127000Y-62364250D01*
X152673000Y-62364250D01*
X152673000Y-63227000D01*
X153535750Y-63227000D01*
X153631000Y-63131750D01*
X153632843Y-62650000D01*
X153625487Y-62575311D01*
X153603701Y-62503492D01*
X153568322Y-62437304D01*
X153520711Y-62379289D01*
X153462696Y-62331678D01*
X153396508Y-62296299D01*
X153324689Y-62274513D01*
X153250000Y-62267157D01*
X152768250Y-62269000D01*
X152673000Y-62364250D01*
X152127000Y-62364250D01*
X152031750Y-62269000D01*
X151550000Y-62267157D01*
X151475311Y-62274513D01*
X151403492Y-62296299D01*
X151337304Y-62331678D01*
X151279289Y-62379289D01*
X151231678Y-62437304D01*
X151196299Y-62503492D01*
X151174513Y-62575311D01*
X151167157Y-62650000D01*
X144449000Y-62650000D01*
X144449000Y-60945076D01*
X144444600Y-60900406D01*
X144434459Y-60866975D01*
X144444185Y-60767777D01*
X144500012Y-60582870D01*
X144590688Y-60412332D01*
X144712762Y-60262653D01*
X144861590Y-60139532D01*
X145031493Y-60047666D01*
X145215997Y-59990552D01*
X145321864Y-59979425D01*
X145355406Y-59989600D01*
X145355406Y-59989600D01*
G37*
X145355406Y-59989600D02*
X145400076Y-59994000D01*
X168924924Y-59994000D01*
X168969594Y-59989600D01*
X169003025Y-59979459D01*
X169102223Y-59989185D01*
X169287130Y-60045012D01*
X169457668Y-60135688D01*
X169607347Y-60257762D01*
X169730468Y-60406590D01*
X169822334Y-60576493D01*
X169879448Y-60760997D01*
X169890575Y-60866866D01*
X169880401Y-60900406D01*
X169876001Y-60945076D01*
X169876000Y-118124923D01*
X169880400Y-118169593D01*
X169890541Y-118203024D01*
X169880815Y-118302223D01*
X169824988Y-118487130D01*
X169734310Y-118657670D01*
X169612235Y-118807349D01*
X169463410Y-118930468D01*
X169293511Y-119022332D01*
X169109003Y-119079448D01*
X169003136Y-119090575D01*
X168969594Y-119080400D01*
X168924924Y-119076000D01*
X145400076Y-119076000D01*
X145355406Y-119080400D01*
X145321975Y-119090541D01*
X145222777Y-119080815D01*
X145037870Y-119024988D01*
X144867330Y-118934310D01*
X144717651Y-118812235D01*
X144594532Y-118663410D01*
X144502668Y-118493511D01*
X144445552Y-118309003D01*
X144434425Y-118203136D01*
X144444600Y-118169594D01*
X144449000Y-118124924D01*
X144449000Y-113979509D01*
X147026000Y-113979509D01*
X147026000Y-114620491D01*
X147151049Y-115249157D01*
X147396342Y-115841347D01*
X147752453Y-116374304D01*
X148205696Y-116827547D01*
X148738653Y-117183658D01*
X149330843Y-117428951D01*
X149959509Y-117554000D01*
X150600491Y-117554000D01*
X151229157Y-117428951D01*
X151540472Y-117300000D01*
X153849966Y-117300000D01*
X153862072Y-117422914D01*
X153897924Y-117541104D01*
X153956146Y-117650028D01*
X154034499Y-117745501D01*
X154129972Y-117823854D01*
X154238896Y-117882076D01*
X154357086Y-117917928D01*
X154480000Y-117930034D01*
X156450250Y-117927000D01*
X156607000Y-117770250D01*
X156607000Y-115173000D01*
X158353000Y-115173000D01*
X158353000Y-117770250D01*
X158509750Y-117927000D01*
X160480000Y-117930034D01*
X160602914Y-117917928D01*
X160721104Y-117882076D01*
X160830028Y-117823854D01*
X160925501Y-117745501D01*
X161003854Y-117650028D01*
X161062076Y-117541104D01*
X161097928Y-117422914D01*
X161110034Y-117300000D01*
X161109814Y-117156980D01*
X163910511Y-117156980D01*
X163934866Y-117237288D01*
X164034761Y-117456961D01*
X164175592Y-117652924D01*
X164351948Y-117817647D01*
X164557051Y-117944799D01*
X164783019Y-118029495D01*
X164973000Y-117969187D01*
X164973000Y-116967000D01*
X165227000Y-116967000D01*
X165227000Y-117969187D01*
X165416981Y-118029495D01*
X165642949Y-117944799D01*
X165848052Y-117817647D01*
X166024408Y-117652924D01*
X166165239Y-117456961D01*
X166265134Y-117237288D01*
X166289489Y-117156980D01*
X166228627Y-116967000D01*
X165227000Y-116967000D01*
X164973000Y-116967000D01*
X163971373Y-116967000D01*
X163910511Y-117156980D01*
X161109814Y-117156980D01*
X161109326Y-116840000D01*
X166530659Y-116840000D01*
X166551975Y-117056422D01*
X166615103Y-117264526D01*
X166717617Y-117456317D01*
X166855577Y-117624423D01*
X167023683Y-117762383D01*
X167215474Y-117864897D01*
X167423578Y-117928025D01*
X167585773Y-117944000D01*
X167694227Y-117944000D01*
X167856422Y-117928025D01*
X168064526Y-117864897D01*
X168256317Y-117762383D01*
X168424423Y-117624423D01*
X168562383Y-117456317D01*
X168664897Y-117264526D01*
X168728025Y-117056422D01*
X168749341Y-116840000D01*
X168728025Y-116623578D01*
X168664897Y-116415474D01*
X168562383Y-116223683D01*
X168424423Y-116055577D01*
X168256317Y-115917617D01*
X168064526Y-115815103D01*
X167856422Y-115751975D01*
X167694227Y-115736000D01*
X167585773Y-115736000D01*
X167423578Y-115751975D01*
X167215474Y-115815103D01*
X167023683Y-115917617D01*
X166855577Y-116055577D01*
X166717617Y-116223683D01*
X166615103Y-116415474D01*
X166551975Y-116623578D01*
X166530659Y-116840000D01*
X161109326Y-116840000D01*
X161108838Y-116523020D01*
X163910511Y-116523020D01*
X163971373Y-116713000D01*
X164973000Y-116713000D01*
X164973000Y-115710813D01*
X165227000Y-115710813D01*
X165227000Y-116713000D01*
X166228627Y-116713000D01*
X166289489Y-116523020D01*
X166265134Y-116442712D01*
X166165239Y-116223039D01*
X166024408Y-116027076D01*
X165848052Y-115862353D01*
X165642949Y-115735201D01*
X165416981Y-115650505D01*
X165227000Y-115710813D01*
X164973000Y-115710813D01*
X164783019Y-115650505D01*
X164557051Y-115735201D01*
X164351948Y-115862353D01*
X164175592Y-116027076D01*
X164034761Y-116223039D01*
X163934866Y-116442712D01*
X163910511Y-116523020D01*
X161108838Y-116523020D01*
X161107000Y-115329750D01*
X160950250Y-115173000D01*
X158353000Y-115173000D01*
X156607000Y-115173000D01*
X154009750Y-115173000D01*
X153853000Y-115329750D01*
X153849966Y-117300000D01*
X151540472Y-117300000D01*
X151821347Y-117183658D01*
X152354304Y-116827547D01*
X152807547Y-116374304D01*
X153163658Y-115841347D01*
X153408951Y-115249157D01*
X153534000Y-114620491D01*
X153534000Y-114300000D01*
X163990659Y-114300000D01*
X164011975Y-114516422D01*
X164075103Y-114724526D01*
X164177617Y-114916317D01*
X164315577Y-115084423D01*
X164483683Y-115222383D01*
X164675474Y-115324897D01*
X164883578Y-115388025D01*
X165045773Y-115404000D01*
X165154227Y-115404000D01*
X165316422Y-115388025D01*
X165524526Y-115324897D01*
X165716317Y-115222383D01*
X165884423Y-115084423D01*
X166022383Y-114916317D01*
X166124897Y-114724526D01*
X166188025Y-114516422D01*
X166209341Y-114300000D01*
X166530659Y-114300000D01*
X166551975Y-114516422D01*
X166615103Y-114724526D01*
X166717617Y-114916317D01*
X166855577Y-115084423D01*
X167023683Y-115222383D01*
X167215474Y-115324897D01*
X167423578Y-115388025D01*
X167585773Y-115404000D01*
X167694227Y-115404000D01*
X167856422Y-115388025D01*
X168064526Y-115324897D01*
X168256317Y-115222383D01*
X168424423Y-115084423D01*
X168562383Y-114916317D01*
X168664897Y-114724526D01*
X168728025Y-114516422D01*
X168749341Y-114300000D01*
X168728025Y-114083578D01*
X168664897Y-113875474D01*
X168562383Y-113683683D01*
X168424423Y-113515577D01*
X168256317Y-113377617D01*
X168064526Y-113275103D01*
X167856422Y-113211975D01*
X167694227Y-113196000D01*
X167585773Y-113196000D01*
X167423578Y-113211975D01*
X167215474Y-113275103D01*
X167023683Y-113377617D01*
X166855577Y-113515577D01*
X166717617Y-113683683D01*
X166615103Y-113875474D01*
X166551975Y-114083578D01*
X166530659Y-114300000D01*
X166209341Y-114300000D01*
X166188025Y-114083578D01*
X166124897Y-113875474D01*
X166022383Y-113683683D01*
X165884423Y-113515577D01*
X165716317Y-113377617D01*
X165524526Y-113275103D01*
X165316422Y-113211975D01*
X165154227Y-113196000D01*
X165045773Y-113196000D01*
X164883578Y-113211975D01*
X164675474Y-113275103D01*
X164483683Y-113377617D01*
X164315577Y-113515577D01*
X164177617Y-113683683D01*
X164075103Y-113875474D01*
X164011975Y-114083578D01*
X163990659Y-114300000D01*
X153534000Y-114300000D01*
X153534000Y-113979509D01*
X153408951Y-113350843D01*
X153163658Y-112758653D01*
X152807547Y-112225696D01*
X152354304Y-111772453D01*
X151821347Y-111416342D01*
X151540473Y-111300000D01*
X153849966Y-111300000D01*
X153853000Y-113270250D01*
X154009750Y-113427000D01*
X156607000Y-113427000D01*
X156607000Y-110829750D01*
X158353000Y-110829750D01*
X158353000Y-113427000D01*
X160950250Y-113427000D01*
X161107000Y-113270250D01*
X161109325Y-111760000D01*
X163990659Y-111760000D01*
X164011975Y-111976422D01*
X164075103Y-112184526D01*
X164177617Y-112376317D01*
X164315577Y-112544423D01*
X164483683Y-112682383D01*
X164675474Y-112784897D01*
X164883578Y-112848025D01*
X165045773Y-112864000D01*
X165154227Y-112864000D01*
X165316422Y-112848025D01*
X165524526Y-112784897D01*
X165716317Y-112682383D01*
X165884423Y-112544423D01*
X166022383Y-112376317D01*
X166124897Y-112184526D01*
X166188025Y-111976422D01*
X166209341Y-111760000D01*
X166530659Y-111760000D01*
X166551975Y-111976422D01*
X166615103Y-112184526D01*
X166717617Y-112376317D01*
X166855577Y-112544423D01*
X167023683Y-112682383D01*
X167215474Y-112784897D01*
X167423578Y-112848025D01*
X167585773Y-112864000D01*
X167694227Y-112864000D01*
X167856422Y-112848025D01*
X168064526Y-112784897D01*
X168256317Y-112682383D01*
X168424423Y-112544423D01*
X168562383Y-112376317D01*
X168664897Y-112184526D01*
X168728025Y-111976422D01*
X168749341Y-111760000D01*
X168728025Y-111543578D01*
X168664897Y-111335474D01*
X168562383Y-111143683D01*
X168424423Y-110975577D01*
X168256317Y-110837617D01*
X168064526Y-110735103D01*
X167856422Y-110671975D01*
X167694227Y-110656000D01*
X167585773Y-110656000D01*
X167423578Y-110671975D01*
X167215474Y-110735103D01*
X167023683Y-110837617D01*
X166855577Y-110975577D01*
X166717617Y-111143683D01*
X166615103Y-111335474D01*
X166551975Y-111543578D01*
X166530659Y-111760000D01*
X166209341Y-111760000D01*
X166188025Y-111543578D01*
X166124897Y-111335474D01*
X166022383Y-111143683D01*
X165884423Y-110975577D01*
X165716317Y-110837617D01*
X165524526Y-110735103D01*
X165316422Y-110671975D01*
X165154227Y-110656000D01*
X165045773Y-110656000D01*
X164883578Y-110671975D01*
X164675474Y-110735103D01*
X164483683Y-110837617D01*
X164315577Y-110975577D01*
X164177617Y-111143683D01*
X164075103Y-111335474D01*
X164011975Y-111543578D01*
X163990659Y-111760000D01*
X161109325Y-111760000D01*
X161110034Y-111300000D01*
X161097928Y-111177086D01*
X161062076Y-111058896D01*
X161003854Y-110949972D01*
X160925501Y-110854499D01*
X160830028Y-110776146D01*
X160721104Y-110717924D01*
X160602914Y-110682072D01*
X160480000Y-110669966D01*
X158509750Y-110673000D01*
X158353000Y-110829750D01*
X156607000Y-110829750D01*
X156450250Y-110673000D01*
X154480000Y-110669966D01*
X154357086Y-110682072D01*
X154238896Y-110717924D01*
X154129972Y-110776146D01*
X154034499Y-110854499D01*
X153956146Y-110949972D01*
X153897924Y-111058896D01*
X153862072Y-111177086D01*
X153849966Y-111300000D01*
X151540473Y-111300000D01*
X151229157Y-111171049D01*
X150600491Y-111046000D01*
X149959509Y-111046000D01*
X149330843Y-111171049D01*
X148738653Y-111416342D01*
X148205696Y-111772453D01*
X147752453Y-112225696D01*
X147396342Y-112758653D01*
X147151049Y-113350843D01*
X147026000Y-113979509D01*
X144449000Y-113979509D01*
X144449000Y-109220000D01*
X163990659Y-109220000D01*
X164011975Y-109436422D01*
X164075103Y-109644526D01*
X164177617Y-109836317D01*
X164315577Y-110004423D01*
X164483683Y-110142383D01*
X164675474Y-110244897D01*
X164883578Y-110308025D01*
X165045773Y-110324000D01*
X165154227Y-110324000D01*
X165316422Y-110308025D01*
X165524526Y-110244897D01*
X165716317Y-110142383D01*
X165884423Y-110004423D01*
X166022383Y-109836317D01*
X166124897Y-109644526D01*
X166157520Y-109536980D01*
X166450511Y-109536980D01*
X166474866Y-109617288D01*
X166574761Y-109836961D01*
X166715592Y-110032924D01*
X166891948Y-110197647D01*
X167097051Y-110324799D01*
X167323019Y-110409495D01*
X167513000Y-110349187D01*
X167513000Y-109347000D01*
X167767000Y-109347000D01*
X167767000Y-110349187D01*
X167956981Y-110409495D01*
X168182949Y-110324799D01*
X168388052Y-110197647D01*
X168564408Y-110032924D01*
X168705239Y-109836961D01*
X168805134Y-109617288D01*
X168829489Y-109536980D01*
X168768627Y-109347000D01*
X167767000Y-109347000D01*
X167513000Y-109347000D01*
X166511373Y-109347000D01*
X166450511Y-109536980D01*
X166157520Y-109536980D01*
X166188025Y-109436422D01*
X166209341Y-109220000D01*
X166188025Y-109003578D01*
X166157521Y-108903020D01*
X166450511Y-108903020D01*
X166511373Y-109093000D01*
X167513000Y-109093000D01*
X167513000Y-108090813D01*
X167767000Y-108090813D01*
X167767000Y-109093000D01*
X168768627Y-109093000D01*
X168829489Y-108903020D01*
X168805134Y-108822712D01*
X168705239Y-108603039D01*
X168564408Y-108407076D01*
X168388052Y-108242353D01*
X168182949Y-108115201D01*
X167956981Y-108030505D01*
X167767000Y-108090813D01*
X167513000Y-108090813D01*
X167323019Y-108030505D01*
X167097051Y-108115201D01*
X166891948Y-108242353D01*
X166715592Y-108407076D01*
X166574761Y-108603039D01*
X166474866Y-108822712D01*
X166450511Y-108903020D01*
X166157521Y-108903020D01*
X166124897Y-108795474D01*
X166022383Y-108603683D01*
X165884423Y-108435577D01*
X165716317Y-108297617D01*
X165524526Y-108195103D01*
X165316422Y-108131975D01*
X165154227Y-108116000D01*
X165045773Y-108116000D01*
X164883578Y-108131975D01*
X164675474Y-108195103D01*
X164483683Y-108297617D01*
X164315577Y-108435577D01*
X164177617Y-108603683D01*
X164075103Y-108795474D01*
X164011975Y-109003578D01*
X163990659Y-109220000D01*
X144449000Y-109220000D01*
X144449000Y-106680000D01*
X163990659Y-106680000D01*
X164011975Y-106896422D01*
X164075103Y-107104526D01*
X164177617Y-107296317D01*
X164315577Y-107464423D01*
X164483683Y-107602383D01*
X164675474Y-107704897D01*
X164883578Y-107768025D01*
X165045773Y-107784000D01*
X165154227Y-107784000D01*
X165316422Y-107768025D01*
X165524526Y-107704897D01*
X165716317Y-107602383D01*
X165884423Y-107464423D01*
X166022383Y-107296317D01*
X166124897Y-107104526D01*
X166188025Y-106896422D01*
X166209341Y-106680000D01*
X166530659Y-106680000D01*
X166551975Y-106896422D01*
X166615103Y-107104526D01*
X166717617Y-107296317D01*
X166855577Y-107464423D01*
X167023683Y-107602383D01*
X167215474Y-107704897D01*
X167423578Y-107768025D01*
X167585773Y-107784000D01*
X167694227Y-107784000D01*
X167856422Y-107768025D01*
X168064526Y-107704897D01*
X168256317Y-107602383D01*
X168424423Y-107464423D01*
X168562383Y-107296317D01*
X168664897Y-107104526D01*
X168728025Y-106896422D01*
X168749341Y-106680000D01*
X168728025Y-106463578D01*
X168664897Y-106255474D01*
X168562383Y-106063683D01*
X168424423Y-105895577D01*
X168256317Y-105757617D01*
X168064526Y-105655103D01*
X167856422Y-105591975D01*
X167694227Y-105576000D01*
X167585773Y-105576000D01*
X167423578Y-105591975D01*
X167215474Y-105655103D01*
X167023683Y-105757617D01*
X166855577Y-105895577D01*
X166717617Y-106063683D01*
X166615103Y-106255474D01*
X166551975Y-106463578D01*
X166530659Y-106680000D01*
X166209341Y-106680000D01*
X166188025Y-106463578D01*
X166124897Y-106255474D01*
X166022383Y-106063683D01*
X165884423Y-105895577D01*
X165716317Y-105757617D01*
X165524526Y-105655103D01*
X165316422Y-105591975D01*
X165154227Y-105576000D01*
X165045773Y-105576000D01*
X164883578Y-105591975D01*
X164675474Y-105655103D01*
X164483683Y-105757617D01*
X164315577Y-105895577D01*
X164177617Y-106063683D01*
X164075103Y-106255474D01*
X164011975Y-106463578D01*
X163990659Y-106680000D01*
X144449000Y-106680000D01*
X144449000Y-104573571D01*
X151247870Y-104573571D01*
X151354593Y-104790009D01*
X151501491Y-104981468D01*
X151682918Y-105140590D01*
X151891902Y-105261260D01*
X151966431Y-105292119D01*
X152152000Y-105248343D01*
X152152000Y-104388000D01*
X152648000Y-104388000D01*
X152648000Y-105248343D01*
X152833569Y-105292119D01*
X152908098Y-105261260D01*
X153117082Y-105140590D01*
X153298509Y-104981468D01*
X153445407Y-104790009D01*
X153552130Y-104573571D01*
X153510521Y-104388000D01*
X152648000Y-104388000D01*
X152152000Y-104388000D01*
X151289479Y-104388000D01*
X151247870Y-104573571D01*
X144449000Y-104573571D01*
X144449000Y-104140000D01*
X153830659Y-104140000D01*
X153851975Y-104356422D01*
X153915103Y-104564526D01*
X154017617Y-104756317D01*
X154155577Y-104924423D01*
X154323683Y-105062383D01*
X154515474Y-105164897D01*
X154723578Y-105228025D01*
X154885773Y-105244000D01*
X154994227Y-105244000D01*
X155156422Y-105228025D01*
X155364526Y-105164897D01*
X155556317Y-105062383D01*
X155724423Y-104924423D01*
X155862383Y-104756317D01*
X155964897Y-104564526D01*
X156028025Y-104356422D01*
X156049341Y-104140000D01*
X156028025Y-103923578D01*
X155964897Y-103715474D01*
X155862383Y-103523683D01*
X155724423Y-103355577D01*
X155644517Y-103290000D01*
X156374772Y-103290000D01*
X156374772Y-104990000D01*
X156379676Y-105039793D01*
X156394200Y-105087672D01*
X156417786Y-105131797D01*
X156449527Y-105170473D01*
X156488203Y-105202214D01*
X156532328Y-105225800D01*
X156580207Y-105240324D01*
X156630000Y-105245228D01*
X158330000Y-105245228D01*
X158379793Y-105240324D01*
X158427672Y-105225800D01*
X158471797Y-105202214D01*
X158510473Y-105170473D01*
X158542214Y-105131797D01*
X158565800Y-105087672D01*
X158580324Y-105039793D01*
X158585228Y-104990000D01*
X158585228Y-104140000D01*
X163990659Y-104140000D01*
X164011975Y-104356422D01*
X164075103Y-104564526D01*
X164177617Y-104756317D01*
X164315577Y-104924423D01*
X164483683Y-105062383D01*
X164675474Y-105164897D01*
X164883578Y-105228025D01*
X165045773Y-105244000D01*
X165154227Y-105244000D01*
X165316422Y-105228025D01*
X165524526Y-105164897D01*
X165716317Y-105062383D01*
X165884423Y-104924423D01*
X166022383Y-104756317D01*
X166124897Y-104564526D01*
X166157520Y-104456980D01*
X166450511Y-104456980D01*
X166474866Y-104537288D01*
X166574761Y-104756961D01*
X166715592Y-104952924D01*
X166891948Y-105117647D01*
X167097051Y-105244799D01*
X167323019Y-105329495D01*
X167513000Y-105269187D01*
X167513000Y-104267000D01*
X167767000Y-104267000D01*
X167767000Y-105269187D01*
X167956981Y-105329495D01*
X168182949Y-105244799D01*
X168388052Y-105117647D01*
X168564408Y-104952924D01*
X168705239Y-104756961D01*
X168805134Y-104537288D01*
X168829489Y-104456980D01*
X168768627Y-104267000D01*
X167767000Y-104267000D01*
X167513000Y-104267000D01*
X166511373Y-104267000D01*
X166450511Y-104456980D01*
X166157520Y-104456980D01*
X166188025Y-104356422D01*
X166209341Y-104140000D01*
X166188025Y-103923578D01*
X166157521Y-103823020D01*
X166450511Y-103823020D01*
X166511373Y-104013000D01*
X167513000Y-104013000D01*
X167513000Y-103010813D01*
X167767000Y-103010813D01*
X167767000Y-104013000D01*
X168768627Y-104013000D01*
X168829489Y-103823020D01*
X168805134Y-103742712D01*
X168705239Y-103523039D01*
X168564408Y-103327076D01*
X168388052Y-103162353D01*
X168182949Y-103035201D01*
X167956981Y-102950505D01*
X167767000Y-103010813D01*
X167513000Y-103010813D01*
X167323019Y-102950505D01*
X167097051Y-103035201D01*
X166891948Y-103162353D01*
X166715592Y-103327076D01*
X166574761Y-103523039D01*
X166474866Y-103742712D01*
X166450511Y-103823020D01*
X166157521Y-103823020D01*
X166124897Y-103715474D01*
X166022383Y-103523683D01*
X165884423Y-103355577D01*
X165716317Y-103217617D01*
X165524526Y-103115103D01*
X165316422Y-103051975D01*
X165154227Y-103036000D01*
X165045773Y-103036000D01*
X164883578Y-103051975D01*
X164675474Y-103115103D01*
X164483683Y-103217617D01*
X164315577Y-103355577D01*
X164177617Y-103523683D01*
X164075103Y-103715474D01*
X164011975Y-103923578D01*
X163990659Y-104140000D01*
X158585228Y-104140000D01*
X158585228Y-103290000D01*
X158580324Y-103240207D01*
X158565800Y-103192328D01*
X158542214Y-103148203D01*
X158510473Y-103109527D01*
X158471797Y-103077786D01*
X158427672Y-103054200D01*
X158379793Y-103039676D01*
X158330000Y-103034772D01*
X156630000Y-103034772D01*
X156580207Y-103039676D01*
X156532328Y-103054200D01*
X156488203Y-103077786D01*
X156449527Y-103109527D01*
X156417786Y-103148203D01*
X156394200Y-103192328D01*
X156379676Y-103240207D01*
X156374772Y-103290000D01*
X155644517Y-103290000D01*
X155556317Y-103217617D01*
X155364526Y-103115103D01*
X155156422Y-103051975D01*
X154994227Y-103036000D01*
X154885773Y-103036000D01*
X154723578Y-103051975D01*
X154515474Y-103115103D01*
X154323683Y-103217617D01*
X154155577Y-103355577D01*
X154017617Y-103523683D01*
X153915103Y-103715474D01*
X153851975Y-103923578D01*
X153830659Y-104140000D01*
X144449000Y-104140000D01*
X144449000Y-103706429D01*
X151247870Y-103706429D01*
X151289479Y-103892000D01*
X152152000Y-103892000D01*
X152152000Y-103031657D01*
X152648000Y-103031657D01*
X152648000Y-103892000D01*
X153510521Y-103892000D01*
X153552130Y-103706429D01*
X153445407Y-103489991D01*
X153298509Y-103298532D01*
X153117082Y-103139410D01*
X152908098Y-103018740D01*
X152833569Y-102987881D01*
X152648000Y-103031657D01*
X152152000Y-103031657D01*
X151966431Y-102987881D01*
X151891902Y-103018740D01*
X151682918Y-103139410D01*
X151501491Y-103298532D01*
X151354593Y-103489991D01*
X151247870Y-103706429D01*
X144449000Y-103706429D01*
X144449000Y-102033571D01*
X151247870Y-102033571D01*
X151354593Y-102250009D01*
X151501491Y-102441468D01*
X151682918Y-102600590D01*
X151891902Y-102721260D01*
X151966431Y-102752119D01*
X152152000Y-102708343D01*
X152152000Y-101848000D01*
X152648000Y-101848000D01*
X152648000Y-102708343D01*
X152833569Y-102752119D01*
X152908098Y-102721260D01*
X153117082Y-102600590D01*
X153298509Y-102441468D01*
X153445407Y-102250009D01*
X153552130Y-102033571D01*
X153510521Y-101848000D01*
X152648000Y-101848000D01*
X152152000Y-101848000D01*
X151289479Y-101848000D01*
X151247870Y-102033571D01*
X144449000Y-102033571D01*
X144449000Y-101600000D01*
X153830659Y-101600000D01*
X153851975Y-101816422D01*
X153915103Y-102024526D01*
X154017617Y-102216317D01*
X154155577Y-102384423D01*
X154323683Y-102522383D01*
X154515474Y-102624897D01*
X154723578Y-102688025D01*
X154885773Y-102704000D01*
X154994227Y-102704000D01*
X155156422Y-102688025D01*
X155364526Y-102624897D01*
X155556317Y-102522383D01*
X155724423Y-102384423D01*
X155862383Y-102216317D01*
X155964897Y-102024526D01*
X156028025Y-101816422D01*
X156049341Y-101600000D01*
X156028025Y-101383578D01*
X155964897Y-101175474D01*
X155862383Y-100983683D01*
X155724423Y-100815577D01*
X155644517Y-100750000D01*
X156374772Y-100750000D01*
X156374772Y-102450000D01*
X156379676Y-102499793D01*
X156394200Y-102547672D01*
X156417786Y-102591797D01*
X156449527Y-102630473D01*
X156488203Y-102662214D01*
X156532328Y-102685800D01*
X156580207Y-102700324D01*
X156630000Y-102705228D01*
X158330000Y-102705228D01*
X158379793Y-102700324D01*
X158427672Y-102685800D01*
X158471797Y-102662214D01*
X158510473Y-102630473D01*
X158542214Y-102591797D01*
X158565800Y-102547672D01*
X158580324Y-102499793D01*
X158585228Y-102450000D01*
X158585228Y-101600000D01*
X163990659Y-101600000D01*
X164011975Y-101816422D01*
X164075103Y-102024526D01*
X164177617Y-102216317D01*
X164315577Y-102384423D01*
X164483683Y-102522383D01*
X164675474Y-102624897D01*
X164883578Y-102688025D01*
X165045773Y-102704000D01*
X165154227Y-102704000D01*
X165316422Y-102688025D01*
X165524526Y-102624897D01*
X165716317Y-102522383D01*
X165884423Y-102384423D01*
X166022383Y-102216317D01*
X166124897Y-102024526D01*
X166188025Y-101816422D01*
X166209341Y-101600000D01*
X166530659Y-101600000D01*
X166551975Y-101816422D01*
X166615103Y-102024526D01*
X166717617Y-102216317D01*
X166855577Y-102384423D01*
X167023683Y-102522383D01*
X167215474Y-102624897D01*
X167423578Y-102688025D01*
X167585773Y-102704000D01*
X167694227Y-102704000D01*
X167856422Y-102688025D01*
X168064526Y-102624897D01*
X168256317Y-102522383D01*
X168424423Y-102384423D01*
X168562383Y-102216317D01*
X168664897Y-102024526D01*
X168728025Y-101816422D01*
X168749341Y-101600000D01*
X168728025Y-101383578D01*
X168664897Y-101175474D01*
X168562383Y-100983683D01*
X168424423Y-100815577D01*
X168256317Y-100677617D01*
X168064526Y-100575103D01*
X167856422Y-100511975D01*
X167694227Y-100496000D01*
X167585773Y-100496000D01*
X167423578Y-100511975D01*
X167215474Y-100575103D01*
X167023683Y-100677617D01*
X166855577Y-100815577D01*
X166717617Y-100983683D01*
X166615103Y-101175474D01*
X166551975Y-101383578D01*
X166530659Y-101600000D01*
X166209341Y-101600000D01*
X166188025Y-101383578D01*
X166124897Y-101175474D01*
X166022383Y-100983683D01*
X165884423Y-100815577D01*
X165716317Y-100677617D01*
X165524526Y-100575103D01*
X165316422Y-100511975D01*
X165154227Y-100496000D01*
X165045773Y-100496000D01*
X164883578Y-100511975D01*
X164675474Y-100575103D01*
X164483683Y-100677617D01*
X164315577Y-100815577D01*
X164177617Y-100983683D01*
X164075103Y-101175474D01*
X164011975Y-101383578D01*
X163990659Y-101600000D01*
X158585228Y-101600000D01*
X158585228Y-100750000D01*
X158580324Y-100700207D01*
X158565800Y-100652328D01*
X158542214Y-100608203D01*
X158510473Y-100569527D01*
X158471797Y-100537786D01*
X158427672Y-100514200D01*
X158379793Y-100499676D01*
X158330000Y-100494772D01*
X156630000Y-100494772D01*
X156580207Y-100499676D01*
X156532328Y-100514200D01*
X156488203Y-100537786D01*
X156449527Y-100569527D01*
X156417786Y-100608203D01*
X156394200Y-100652328D01*
X156379676Y-100700207D01*
X156374772Y-100750000D01*
X155644517Y-100750000D01*
X155556317Y-100677617D01*
X155364526Y-100575103D01*
X155156422Y-100511975D01*
X154994227Y-100496000D01*
X154885773Y-100496000D01*
X154723578Y-100511975D01*
X154515474Y-100575103D01*
X154323683Y-100677617D01*
X154155577Y-100815577D01*
X154017617Y-100983683D01*
X153915103Y-101175474D01*
X153851975Y-101383578D01*
X153830659Y-101600000D01*
X144449000Y-101600000D01*
X144449000Y-101166429D01*
X151247870Y-101166429D01*
X151289479Y-101352000D01*
X152152000Y-101352000D01*
X152152000Y-100491657D01*
X152648000Y-100491657D01*
X152648000Y-101352000D01*
X153510521Y-101352000D01*
X153552130Y-101166429D01*
X153445407Y-100949991D01*
X153298509Y-100758532D01*
X153117082Y-100599410D01*
X152908098Y-100478740D01*
X152833569Y-100447881D01*
X152648000Y-100491657D01*
X152152000Y-100491657D01*
X151966431Y-100447881D01*
X151891902Y-100478740D01*
X151682918Y-100599410D01*
X151501491Y-100758532D01*
X151354593Y-100949991D01*
X151247870Y-101166429D01*
X144449000Y-101166429D01*
X144449000Y-99493571D01*
X151247870Y-99493571D01*
X151354593Y-99710009D01*
X151501491Y-99901468D01*
X151682918Y-100060590D01*
X151891902Y-100181260D01*
X151966431Y-100212119D01*
X152152000Y-100168343D01*
X152152000Y-99308000D01*
X152648000Y-99308000D01*
X152648000Y-100168343D01*
X152833569Y-100212119D01*
X152908098Y-100181260D01*
X153117082Y-100060590D01*
X153298509Y-99901468D01*
X153445407Y-99710009D01*
X153552130Y-99493571D01*
X153510521Y-99308000D01*
X152648000Y-99308000D01*
X152152000Y-99308000D01*
X151289479Y-99308000D01*
X151247870Y-99493571D01*
X144449000Y-99493571D01*
X144449000Y-99060000D01*
X153830659Y-99060000D01*
X153851975Y-99276422D01*
X153915103Y-99484526D01*
X154017617Y-99676317D01*
X154155577Y-99844423D01*
X154323683Y-99982383D01*
X154515474Y-100084897D01*
X154723578Y-100148025D01*
X154885773Y-100164000D01*
X154994227Y-100164000D01*
X155156422Y-100148025D01*
X155364526Y-100084897D01*
X155556317Y-99982383D01*
X155724423Y-99844423D01*
X155862383Y-99676317D01*
X155964897Y-99484526D01*
X156028025Y-99276422D01*
X156049341Y-99060000D01*
X156028025Y-98843578D01*
X155964897Y-98635474D01*
X155862383Y-98443683D01*
X155724423Y-98275577D01*
X155644517Y-98210000D01*
X156374772Y-98210000D01*
X156374772Y-99910000D01*
X156379676Y-99959793D01*
X156394200Y-100007672D01*
X156417786Y-100051797D01*
X156449527Y-100090473D01*
X156488203Y-100122214D01*
X156532328Y-100145800D01*
X156580207Y-100160324D01*
X156630000Y-100165228D01*
X158330000Y-100165228D01*
X158379793Y-100160324D01*
X158427672Y-100145800D01*
X158471797Y-100122214D01*
X158510473Y-100090473D01*
X158542214Y-100051797D01*
X158565800Y-100007672D01*
X158580324Y-99959793D01*
X158585228Y-99910000D01*
X158585228Y-99376980D01*
X163910511Y-99376980D01*
X163934866Y-99457288D01*
X164034761Y-99676961D01*
X164175592Y-99872924D01*
X164351948Y-100037647D01*
X164557051Y-100164799D01*
X164783019Y-100249495D01*
X164973000Y-100189187D01*
X164973000Y-99187000D01*
X165227000Y-99187000D01*
X165227000Y-100189187D01*
X165416981Y-100249495D01*
X165642949Y-100164799D01*
X165848052Y-100037647D01*
X166024408Y-99872924D01*
X166165239Y-99676961D01*
X166265134Y-99457288D01*
X166289489Y-99376980D01*
X166228627Y-99187000D01*
X165227000Y-99187000D01*
X164973000Y-99187000D01*
X163971373Y-99187000D01*
X163910511Y-99376980D01*
X158585228Y-99376980D01*
X158585228Y-99060000D01*
X166530659Y-99060000D01*
X166551975Y-99276422D01*
X166615103Y-99484526D01*
X166717617Y-99676317D01*
X166855577Y-99844423D01*
X167023683Y-99982383D01*
X167215474Y-100084897D01*
X167423578Y-100148025D01*
X167585773Y-100164000D01*
X167694227Y-100164000D01*
X167856422Y-100148025D01*
X168064526Y-100084897D01*
X168256317Y-99982383D01*
X168424423Y-99844423D01*
X168562383Y-99676317D01*
X168664897Y-99484526D01*
X168728025Y-99276422D01*
X168749341Y-99060000D01*
X168728025Y-98843578D01*
X168664897Y-98635474D01*
X168562383Y-98443683D01*
X168424423Y-98275577D01*
X168256317Y-98137617D01*
X168064526Y-98035103D01*
X167856422Y-97971975D01*
X167694227Y-97956000D01*
X167585773Y-97956000D01*
X167423578Y-97971975D01*
X167215474Y-98035103D01*
X167023683Y-98137617D01*
X166855577Y-98275577D01*
X166717617Y-98443683D01*
X166615103Y-98635474D01*
X166551975Y-98843578D01*
X166530659Y-99060000D01*
X158585228Y-99060000D01*
X158585228Y-98743020D01*
X163910511Y-98743020D01*
X163971373Y-98933000D01*
X164973000Y-98933000D01*
X164973000Y-97930813D01*
X165227000Y-97930813D01*
X165227000Y-98933000D01*
X166228627Y-98933000D01*
X166289489Y-98743020D01*
X166265134Y-98662712D01*
X166165239Y-98443039D01*
X166024408Y-98247076D01*
X165848052Y-98082353D01*
X165642949Y-97955201D01*
X165416981Y-97870505D01*
X165227000Y-97930813D01*
X164973000Y-97930813D01*
X164783019Y-97870505D01*
X164557051Y-97955201D01*
X164351948Y-98082353D01*
X164175592Y-98247076D01*
X164034761Y-98443039D01*
X163934866Y-98662712D01*
X163910511Y-98743020D01*
X158585228Y-98743020D01*
X158585228Y-98210000D01*
X158580324Y-98160207D01*
X158565800Y-98112328D01*
X158542214Y-98068203D01*
X158510473Y-98029527D01*
X158471797Y-97997786D01*
X158427672Y-97974200D01*
X158379793Y-97959676D01*
X158330000Y-97954772D01*
X156630000Y-97954772D01*
X156580207Y-97959676D01*
X156532328Y-97974200D01*
X156488203Y-97997786D01*
X156449527Y-98029527D01*
X156417786Y-98068203D01*
X156394200Y-98112328D01*
X156379676Y-98160207D01*
X156374772Y-98210000D01*
X155644517Y-98210000D01*
X155556317Y-98137617D01*
X155364526Y-98035103D01*
X155156422Y-97971975D01*
X154994227Y-97956000D01*
X154885773Y-97956000D01*
X154723578Y-97971975D01*
X154515474Y-98035103D01*
X154323683Y-98137617D01*
X154155577Y-98275577D01*
X154017617Y-98443683D01*
X153915103Y-98635474D01*
X153851975Y-98843578D01*
X153830659Y-99060000D01*
X144449000Y-99060000D01*
X144449000Y-98626429D01*
X151247870Y-98626429D01*
X151289479Y-98812000D01*
X152152000Y-98812000D01*
X152152000Y-97951657D01*
X152648000Y-97951657D01*
X152648000Y-98812000D01*
X153510521Y-98812000D01*
X153552130Y-98626429D01*
X153445407Y-98409991D01*
X153298509Y-98218532D01*
X153117082Y-98059410D01*
X152908098Y-97938740D01*
X152833569Y-97907881D01*
X152648000Y-97951657D01*
X152152000Y-97951657D01*
X151966431Y-97907881D01*
X151891902Y-97938740D01*
X151682918Y-98059410D01*
X151501491Y-98218532D01*
X151354593Y-98409991D01*
X151247870Y-98626429D01*
X144449000Y-98626429D01*
X144449000Y-96520000D01*
X163990659Y-96520000D01*
X164011975Y-96736422D01*
X164075103Y-96944526D01*
X164177617Y-97136317D01*
X164315577Y-97304423D01*
X164483683Y-97442383D01*
X164675474Y-97544897D01*
X164883578Y-97608025D01*
X165045773Y-97624000D01*
X165154227Y-97624000D01*
X165316422Y-97608025D01*
X165524526Y-97544897D01*
X165716317Y-97442383D01*
X165884423Y-97304423D01*
X166022383Y-97136317D01*
X166124897Y-96944526D01*
X166188025Y-96736422D01*
X166209341Y-96520000D01*
X166530659Y-96520000D01*
X166551975Y-96736422D01*
X166615103Y-96944526D01*
X166717617Y-97136317D01*
X166855577Y-97304423D01*
X167023683Y-97442383D01*
X167215474Y-97544897D01*
X167423578Y-97608025D01*
X167585773Y-97624000D01*
X167694227Y-97624000D01*
X167856422Y-97608025D01*
X168064526Y-97544897D01*
X168256317Y-97442383D01*
X168424423Y-97304423D01*
X168562383Y-97136317D01*
X168664897Y-96944526D01*
X168728025Y-96736422D01*
X168749341Y-96520000D01*
X168728025Y-96303578D01*
X168664897Y-96095474D01*
X168562383Y-95903683D01*
X168424423Y-95735577D01*
X168256317Y-95597617D01*
X168064526Y-95495103D01*
X167856422Y-95431975D01*
X167694227Y-95416000D01*
X167585773Y-95416000D01*
X167423578Y-95431975D01*
X167215474Y-95495103D01*
X167023683Y-95597617D01*
X166855577Y-95735577D01*
X166717617Y-95903683D01*
X166615103Y-96095474D01*
X166551975Y-96303578D01*
X166530659Y-96520000D01*
X166209341Y-96520000D01*
X166188025Y-96303578D01*
X166124897Y-96095474D01*
X166022383Y-95903683D01*
X165884423Y-95735577D01*
X165716317Y-95597617D01*
X165524526Y-95495103D01*
X165316422Y-95431975D01*
X165154227Y-95416000D01*
X165045773Y-95416000D01*
X164883578Y-95431975D01*
X164675474Y-95495103D01*
X164483683Y-95597617D01*
X164315577Y-95735577D01*
X164177617Y-95903683D01*
X164075103Y-96095474D01*
X164011975Y-96303578D01*
X163990659Y-96520000D01*
X144449000Y-96520000D01*
X144449000Y-94413571D01*
X151247870Y-94413571D01*
X151354593Y-94630009D01*
X151501491Y-94821468D01*
X151682918Y-94980590D01*
X151891902Y-95101260D01*
X151966431Y-95132119D01*
X152152000Y-95088343D01*
X152152000Y-94228000D01*
X152648000Y-94228000D01*
X152648000Y-95088343D01*
X152833569Y-95132119D01*
X152908098Y-95101260D01*
X153117082Y-94980590D01*
X153298509Y-94821468D01*
X153445407Y-94630009D01*
X153552130Y-94413571D01*
X153510521Y-94228000D01*
X152648000Y-94228000D01*
X152152000Y-94228000D01*
X151289479Y-94228000D01*
X151247870Y-94413571D01*
X144449000Y-94413571D01*
X144449000Y-93980000D01*
X153830659Y-93980000D01*
X153851975Y-94196422D01*
X153915103Y-94404526D01*
X154017617Y-94596317D01*
X154155577Y-94764423D01*
X154323683Y-94902383D01*
X154515474Y-95004897D01*
X154723578Y-95068025D01*
X154885773Y-95084000D01*
X154994227Y-95084000D01*
X155156422Y-95068025D01*
X155364526Y-95004897D01*
X155556317Y-94902383D01*
X155724423Y-94764423D01*
X155862383Y-94596317D01*
X155964897Y-94404526D01*
X156028025Y-94196422D01*
X156049341Y-93980000D01*
X156028025Y-93763578D01*
X155964897Y-93555474D01*
X155862383Y-93363683D01*
X155724423Y-93195577D01*
X155644517Y-93130000D01*
X156374772Y-93130000D01*
X156374772Y-94830000D01*
X156379676Y-94879793D01*
X156394200Y-94927672D01*
X156417786Y-94971797D01*
X156449527Y-95010473D01*
X156488203Y-95042214D01*
X156532328Y-95065800D01*
X156580207Y-95080324D01*
X156630000Y-95085228D01*
X158330000Y-95085228D01*
X158379793Y-95080324D01*
X158427672Y-95065800D01*
X158471797Y-95042214D01*
X158510473Y-95010473D01*
X158542214Y-94971797D01*
X158565800Y-94927672D01*
X158580324Y-94879793D01*
X158585228Y-94830000D01*
X158585228Y-93980000D01*
X163990659Y-93980000D01*
X164011975Y-94196422D01*
X164075103Y-94404526D01*
X164177617Y-94596317D01*
X164315577Y-94764423D01*
X164483683Y-94902383D01*
X164675474Y-95004897D01*
X164883578Y-95068025D01*
X165045773Y-95084000D01*
X165154227Y-95084000D01*
X165316422Y-95068025D01*
X165524526Y-95004897D01*
X165716317Y-94902383D01*
X165884423Y-94764423D01*
X166022383Y-94596317D01*
X166124897Y-94404526D01*
X166188025Y-94196422D01*
X166209341Y-93980000D01*
X166530659Y-93980000D01*
X166551975Y-94196422D01*
X166615103Y-94404526D01*
X166717617Y-94596317D01*
X166855577Y-94764423D01*
X167023683Y-94902383D01*
X167215474Y-95004897D01*
X167423578Y-95068025D01*
X167585773Y-95084000D01*
X167694227Y-95084000D01*
X167856422Y-95068025D01*
X168064526Y-95004897D01*
X168256317Y-94902383D01*
X168424423Y-94764423D01*
X168562383Y-94596317D01*
X168664897Y-94404526D01*
X168728025Y-94196422D01*
X168749341Y-93980000D01*
X168728025Y-93763578D01*
X168664897Y-93555474D01*
X168562383Y-93363683D01*
X168424423Y-93195577D01*
X168256317Y-93057617D01*
X168064526Y-92955103D01*
X167856422Y-92891975D01*
X167694227Y-92876000D01*
X167585773Y-92876000D01*
X167423578Y-92891975D01*
X167215474Y-92955103D01*
X167023683Y-93057617D01*
X166855577Y-93195577D01*
X166717617Y-93363683D01*
X166615103Y-93555474D01*
X166551975Y-93763578D01*
X166530659Y-93980000D01*
X166209341Y-93980000D01*
X166188025Y-93763578D01*
X166124897Y-93555474D01*
X166022383Y-93363683D01*
X165884423Y-93195577D01*
X165716317Y-93057617D01*
X165524526Y-92955103D01*
X165316422Y-92891975D01*
X165154227Y-92876000D01*
X165045773Y-92876000D01*
X164883578Y-92891975D01*
X164675474Y-92955103D01*
X164483683Y-93057617D01*
X164315577Y-93195577D01*
X164177617Y-93363683D01*
X164075103Y-93555474D01*
X164011975Y-93763578D01*
X163990659Y-93980000D01*
X158585228Y-93980000D01*
X158585228Y-93130000D01*
X158580324Y-93080207D01*
X158565800Y-93032328D01*
X158542214Y-92988203D01*
X158510473Y-92949527D01*
X158471797Y-92917786D01*
X158427672Y-92894200D01*
X158379793Y-92879676D01*
X158330000Y-92874772D01*
X156630000Y-92874772D01*
X156580207Y-92879676D01*
X156532328Y-92894200D01*
X156488203Y-92917786D01*
X156449527Y-92949527D01*
X156417786Y-92988203D01*
X156394200Y-93032328D01*
X156379676Y-93080207D01*
X156374772Y-93130000D01*
X155644517Y-93130000D01*
X155556317Y-93057617D01*
X155364526Y-92955103D01*
X155156422Y-92891975D01*
X154994227Y-92876000D01*
X154885773Y-92876000D01*
X154723578Y-92891975D01*
X154515474Y-92955103D01*
X154323683Y-93057617D01*
X154155577Y-93195577D01*
X154017617Y-93363683D01*
X153915103Y-93555474D01*
X153851975Y-93763578D01*
X153830659Y-93980000D01*
X144449000Y-93980000D01*
X144449000Y-93546429D01*
X151247870Y-93546429D01*
X151289479Y-93732000D01*
X152152000Y-93732000D01*
X152152000Y-92871657D01*
X152648000Y-92871657D01*
X152648000Y-93732000D01*
X153510521Y-93732000D01*
X153552130Y-93546429D01*
X153445407Y-93329991D01*
X153298509Y-93138532D01*
X153117082Y-92979410D01*
X152908098Y-92858740D01*
X152833569Y-92827881D01*
X152648000Y-92871657D01*
X152152000Y-92871657D01*
X151966431Y-92827881D01*
X151891902Y-92858740D01*
X151682918Y-92979410D01*
X151501491Y-93138532D01*
X151354593Y-93329991D01*
X151247870Y-93546429D01*
X144449000Y-93546429D01*
X144449000Y-91873571D01*
X151247870Y-91873571D01*
X151354593Y-92090009D01*
X151501491Y-92281468D01*
X151682918Y-92440590D01*
X151891902Y-92561260D01*
X151966431Y-92592119D01*
X152152000Y-92548343D01*
X152152000Y-91688000D01*
X152648000Y-91688000D01*
X152648000Y-92548343D01*
X152833569Y-92592119D01*
X152908098Y-92561260D01*
X153117082Y-92440590D01*
X153298509Y-92281468D01*
X153445407Y-92090009D01*
X153552130Y-91873571D01*
X153510521Y-91688000D01*
X152648000Y-91688000D01*
X152152000Y-91688000D01*
X151289479Y-91688000D01*
X151247870Y-91873571D01*
X144449000Y-91873571D01*
X144449000Y-91440000D01*
X153830659Y-91440000D01*
X153851975Y-91656422D01*
X153915103Y-91864526D01*
X154017617Y-92056317D01*
X154155577Y-92224423D01*
X154323683Y-92362383D01*
X154515474Y-92464897D01*
X154723578Y-92528025D01*
X154885773Y-92544000D01*
X154994227Y-92544000D01*
X155156422Y-92528025D01*
X155364526Y-92464897D01*
X155556317Y-92362383D01*
X155724423Y-92224423D01*
X155862383Y-92056317D01*
X155964897Y-91864526D01*
X156028025Y-91656422D01*
X156049341Y-91440000D01*
X156028025Y-91223578D01*
X155964897Y-91015474D01*
X155862383Y-90823683D01*
X155724423Y-90655577D01*
X155644517Y-90590000D01*
X156374772Y-90590000D01*
X156374772Y-92290000D01*
X156379676Y-92339793D01*
X156394200Y-92387672D01*
X156417786Y-92431797D01*
X156449527Y-92470473D01*
X156488203Y-92502214D01*
X156532328Y-92525800D01*
X156580207Y-92540324D01*
X156630000Y-92545228D01*
X158330000Y-92545228D01*
X158379793Y-92540324D01*
X158427672Y-92525800D01*
X158471797Y-92502214D01*
X158510473Y-92470473D01*
X158542214Y-92431797D01*
X158565800Y-92387672D01*
X158580324Y-92339793D01*
X158585228Y-92290000D01*
X158585228Y-91440000D01*
X163990659Y-91440000D01*
X164011975Y-91656422D01*
X164075103Y-91864526D01*
X164177617Y-92056317D01*
X164315577Y-92224423D01*
X164483683Y-92362383D01*
X164675474Y-92464897D01*
X164883578Y-92528025D01*
X165045773Y-92544000D01*
X165154227Y-92544000D01*
X165316422Y-92528025D01*
X165524526Y-92464897D01*
X165716317Y-92362383D01*
X165884423Y-92224423D01*
X166022383Y-92056317D01*
X166124897Y-91864526D01*
X166157520Y-91756980D01*
X166450511Y-91756980D01*
X166474866Y-91837288D01*
X166574761Y-92056961D01*
X166715592Y-92252924D01*
X166891948Y-92417647D01*
X167097051Y-92544799D01*
X167323019Y-92629495D01*
X167513000Y-92569187D01*
X167513000Y-91567000D01*
X167767000Y-91567000D01*
X167767000Y-92569187D01*
X167956981Y-92629495D01*
X168182949Y-92544799D01*
X168388052Y-92417647D01*
X168564408Y-92252924D01*
X168705239Y-92056961D01*
X168805134Y-91837288D01*
X168829489Y-91756980D01*
X168768627Y-91567000D01*
X167767000Y-91567000D01*
X167513000Y-91567000D01*
X166511373Y-91567000D01*
X166450511Y-91756980D01*
X166157520Y-91756980D01*
X166188025Y-91656422D01*
X166209341Y-91440000D01*
X166188025Y-91223578D01*
X166157521Y-91123020D01*
X166450511Y-91123020D01*
X166511373Y-91313000D01*
X167513000Y-91313000D01*
X167513000Y-90310813D01*
X167767000Y-90310813D01*
X167767000Y-91313000D01*
X168768627Y-91313000D01*
X168829489Y-91123020D01*
X168805134Y-91042712D01*
X168705239Y-90823039D01*
X168564408Y-90627076D01*
X168388052Y-90462353D01*
X168182949Y-90335201D01*
X167956981Y-90250505D01*
X167767000Y-90310813D01*
X167513000Y-90310813D01*
X167323019Y-90250505D01*
X167097051Y-90335201D01*
X166891948Y-90462353D01*
X166715592Y-90627076D01*
X166574761Y-90823039D01*
X166474866Y-91042712D01*
X166450511Y-91123020D01*
X166157521Y-91123020D01*
X166124897Y-91015474D01*
X166022383Y-90823683D01*
X165884423Y-90655577D01*
X165716317Y-90517617D01*
X165524526Y-90415103D01*
X165316422Y-90351975D01*
X165154227Y-90336000D01*
X165045773Y-90336000D01*
X164883578Y-90351975D01*
X164675474Y-90415103D01*
X164483683Y-90517617D01*
X164315577Y-90655577D01*
X164177617Y-90823683D01*
X164075103Y-91015474D01*
X164011975Y-91223578D01*
X163990659Y-91440000D01*
X158585228Y-91440000D01*
X158585228Y-90590000D01*
X158580324Y-90540207D01*
X158565800Y-90492328D01*
X158542214Y-90448203D01*
X158510473Y-90409527D01*
X158471797Y-90377786D01*
X158427672Y-90354200D01*
X158379793Y-90339676D01*
X158330000Y-90334772D01*
X156630000Y-90334772D01*
X156580207Y-90339676D01*
X156532328Y-90354200D01*
X156488203Y-90377786D01*
X156449527Y-90409527D01*
X156417786Y-90448203D01*
X156394200Y-90492328D01*
X156379676Y-90540207D01*
X156374772Y-90590000D01*
X155644517Y-90590000D01*
X155556317Y-90517617D01*
X155364526Y-90415103D01*
X155156422Y-90351975D01*
X154994227Y-90336000D01*
X154885773Y-90336000D01*
X154723578Y-90351975D01*
X154515474Y-90415103D01*
X154323683Y-90517617D01*
X154155577Y-90655577D01*
X154017617Y-90823683D01*
X153915103Y-91015474D01*
X153851975Y-91223578D01*
X153830659Y-91440000D01*
X144449000Y-91440000D01*
X144449000Y-91006429D01*
X151247870Y-91006429D01*
X151289479Y-91192000D01*
X152152000Y-91192000D01*
X152152000Y-90331657D01*
X152648000Y-90331657D01*
X152648000Y-91192000D01*
X153510521Y-91192000D01*
X153552130Y-91006429D01*
X153445407Y-90789991D01*
X153298509Y-90598532D01*
X153117082Y-90439410D01*
X152908098Y-90318740D01*
X152833569Y-90287881D01*
X152648000Y-90331657D01*
X152152000Y-90331657D01*
X151966431Y-90287881D01*
X151891902Y-90318740D01*
X151682918Y-90439410D01*
X151501491Y-90598532D01*
X151354593Y-90789991D01*
X151247870Y-91006429D01*
X144449000Y-91006429D01*
X144449000Y-89333571D01*
X151247870Y-89333571D01*
X151354593Y-89550009D01*
X151501491Y-89741468D01*
X151682918Y-89900590D01*
X151891902Y-90021260D01*
X151966431Y-90052119D01*
X152152000Y-90008343D01*
X152152000Y-89148000D01*
X152648000Y-89148000D01*
X152648000Y-90008343D01*
X152833569Y-90052119D01*
X152908098Y-90021260D01*
X153117082Y-89900590D01*
X153298509Y-89741468D01*
X153445407Y-89550009D01*
X153552130Y-89333571D01*
X153510521Y-89148000D01*
X152648000Y-89148000D01*
X152152000Y-89148000D01*
X151289479Y-89148000D01*
X151247870Y-89333571D01*
X144449000Y-89333571D01*
X144449000Y-88900000D01*
X153830659Y-88900000D01*
X153851975Y-89116422D01*
X153915103Y-89324526D01*
X154017617Y-89516317D01*
X154155577Y-89684423D01*
X154323683Y-89822383D01*
X154515474Y-89924897D01*
X154723578Y-89988025D01*
X154885773Y-90004000D01*
X154994227Y-90004000D01*
X155156422Y-89988025D01*
X155364526Y-89924897D01*
X155556317Y-89822383D01*
X155724423Y-89684423D01*
X155862383Y-89516317D01*
X155964897Y-89324526D01*
X156028025Y-89116422D01*
X156049341Y-88900000D01*
X156028025Y-88683578D01*
X155964897Y-88475474D01*
X155862383Y-88283683D01*
X155724423Y-88115577D01*
X155644517Y-88050000D01*
X156374772Y-88050000D01*
X156374772Y-89750000D01*
X156379676Y-89799793D01*
X156394200Y-89847672D01*
X156417786Y-89891797D01*
X156449527Y-89930473D01*
X156488203Y-89962214D01*
X156532328Y-89985800D01*
X156580207Y-90000324D01*
X156630000Y-90005228D01*
X158330000Y-90005228D01*
X158379793Y-90000324D01*
X158427672Y-89985800D01*
X158471797Y-89962214D01*
X158510473Y-89930473D01*
X158542214Y-89891797D01*
X158565800Y-89847672D01*
X158580324Y-89799793D01*
X158585228Y-89750000D01*
X158585228Y-88900000D01*
X163990659Y-88900000D01*
X164011975Y-89116422D01*
X164075103Y-89324526D01*
X164177617Y-89516317D01*
X164315577Y-89684423D01*
X164483683Y-89822383D01*
X164675474Y-89924897D01*
X164883578Y-89988025D01*
X165045773Y-90004000D01*
X165154227Y-90004000D01*
X165316422Y-89988025D01*
X165524526Y-89924897D01*
X165716317Y-89822383D01*
X165884423Y-89684423D01*
X166022383Y-89516317D01*
X166124897Y-89324526D01*
X166188025Y-89116422D01*
X166209341Y-88900000D01*
X166530659Y-88900000D01*
X166551975Y-89116422D01*
X166615103Y-89324526D01*
X166717617Y-89516317D01*
X166855577Y-89684423D01*
X167023683Y-89822383D01*
X167215474Y-89924897D01*
X167423578Y-89988025D01*
X167585773Y-90004000D01*
X167694227Y-90004000D01*
X167856422Y-89988025D01*
X168064526Y-89924897D01*
X168256317Y-89822383D01*
X168424423Y-89684423D01*
X168562383Y-89516317D01*
X168664897Y-89324526D01*
X168728025Y-89116422D01*
X168749341Y-88900000D01*
X168728025Y-88683578D01*
X168664897Y-88475474D01*
X168562383Y-88283683D01*
X168424423Y-88115577D01*
X168256317Y-87977617D01*
X168064526Y-87875103D01*
X167856422Y-87811975D01*
X167694227Y-87796000D01*
X167585773Y-87796000D01*
X167423578Y-87811975D01*
X167215474Y-87875103D01*
X167023683Y-87977617D01*
X166855577Y-88115577D01*
X166717617Y-88283683D01*
X166615103Y-88475474D01*
X166551975Y-88683578D01*
X166530659Y-88900000D01*
X166209341Y-88900000D01*
X166188025Y-88683578D01*
X166124897Y-88475474D01*
X166022383Y-88283683D01*
X165884423Y-88115577D01*
X165716317Y-87977617D01*
X165524526Y-87875103D01*
X165316422Y-87811975D01*
X165154227Y-87796000D01*
X165045773Y-87796000D01*
X164883578Y-87811975D01*
X164675474Y-87875103D01*
X164483683Y-87977617D01*
X164315577Y-88115577D01*
X164177617Y-88283683D01*
X164075103Y-88475474D01*
X164011975Y-88683578D01*
X163990659Y-88900000D01*
X158585228Y-88900000D01*
X158585228Y-88050000D01*
X158580324Y-88000207D01*
X158565800Y-87952328D01*
X158542214Y-87908203D01*
X158510473Y-87869527D01*
X158471797Y-87837786D01*
X158427672Y-87814200D01*
X158379793Y-87799676D01*
X158330000Y-87794772D01*
X156630000Y-87794772D01*
X156580207Y-87799676D01*
X156532328Y-87814200D01*
X156488203Y-87837786D01*
X156449527Y-87869527D01*
X156417786Y-87908203D01*
X156394200Y-87952328D01*
X156379676Y-88000207D01*
X156374772Y-88050000D01*
X155644517Y-88050000D01*
X155556317Y-87977617D01*
X155364526Y-87875103D01*
X155156422Y-87811975D01*
X154994227Y-87796000D01*
X154885773Y-87796000D01*
X154723578Y-87811975D01*
X154515474Y-87875103D01*
X154323683Y-87977617D01*
X154155577Y-88115577D01*
X154017617Y-88283683D01*
X153915103Y-88475474D01*
X153851975Y-88683578D01*
X153830659Y-88900000D01*
X144449000Y-88900000D01*
X144449000Y-88466429D01*
X151247870Y-88466429D01*
X151289479Y-88652000D01*
X152152000Y-88652000D01*
X152152000Y-87791657D01*
X152648000Y-87791657D01*
X152648000Y-88652000D01*
X153510521Y-88652000D01*
X153552130Y-88466429D01*
X153445407Y-88249991D01*
X153298509Y-88058532D01*
X153117082Y-87899410D01*
X152908098Y-87778740D01*
X152833569Y-87747881D01*
X152648000Y-87791657D01*
X152152000Y-87791657D01*
X151966431Y-87747881D01*
X151891902Y-87778740D01*
X151682918Y-87899410D01*
X151501491Y-88058532D01*
X151354593Y-88249991D01*
X151247870Y-88466429D01*
X144449000Y-88466429D01*
X144449000Y-86360000D01*
X163990659Y-86360000D01*
X164011975Y-86576422D01*
X164075103Y-86784526D01*
X164177617Y-86976317D01*
X164315577Y-87144423D01*
X164483683Y-87282383D01*
X164675474Y-87384897D01*
X164883578Y-87448025D01*
X165045773Y-87464000D01*
X165154227Y-87464000D01*
X165316422Y-87448025D01*
X165524526Y-87384897D01*
X165716317Y-87282383D01*
X165884423Y-87144423D01*
X166022383Y-86976317D01*
X166124897Y-86784526D01*
X166188025Y-86576422D01*
X166209341Y-86360000D01*
X166530659Y-86360000D01*
X166551975Y-86576422D01*
X166615103Y-86784526D01*
X166717617Y-86976317D01*
X166855577Y-87144423D01*
X167023683Y-87282383D01*
X167215474Y-87384897D01*
X167423578Y-87448025D01*
X167585773Y-87464000D01*
X167694227Y-87464000D01*
X167856422Y-87448025D01*
X168064526Y-87384897D01*
X168256317Y-87282383D01*
X168424423Y-87144423D01*
X168562383Y-86976317D01*
X168664897Y-86784526D01*
X168728025Y-86576422D01*
X168749341Y-86360000D01*
X168728025Y-86143578D01*
X168664897Y-85935474D01*
X168562383Y-85743683D01*
X168424423Y-85575577D01*
X168256317Y-85437617D01*
X168064526Y-85335103D01*
X167856422Y-85271975D01*
X167694227Y-85256000D01*
X167585773Y-85256000D01*
X167423578Y-85271975D01*
X167215474Y-85335103D01*
X167023683Y-85437617D01*
X166855577Y-85575577D01*
X166717617Y-85743683D01*
X166615103Y-85935474D01*
X166551975Y-86143578D01*
X166530659Y-86360000D01*
X166209341Y-86360000D01*
X166188025Y-86143578D01*
X166124897Y-85935474D01*
X166022383Y-85743683D01*
X165884423Y-85575577D01*
X165716317Y-85437617D01*
X165524526Y-85335103D01*
X165316422Y-85271975D01*
X165154227Y-85256000D01*
X165045773Y-85256000D01*
X164883578Y-85271975D01*
X164675474Y-85335103D01*
X164483683Y-85437617D01*
X164315577Y-85575577D01*
X164177617Y-85743683D01*
X164075103Y-85935474D01*
X164011975Y-86143578D01*
X163990659Y-86360000D01*
X144449000Y-86360000D01*
X144449000Y-84253571D01*
X151247870Y-84253571D01*
X151354593Y-84470009D01*
X151501491Y-84661468D01*
X151682918Y-84820590D01*
X151891902Y-84941260D01*
X151966431Y-84972119D01*
X152152000Y-84928343D01*
X152152000Y-84068000D01*
X152648000Y-84068000D01*
X152648000Y-84928343D01*
X152833569Y-84972119D01*
X152908098Y-84941260D01*
X153117082Y-84820590D01*
X153298509Y-84661468D01*
X153445407Y-84470009D01*
X153552130Y-84253571D01*
X153510521Y-84068000D01*
X152648000Y-84068000D01*
X152152000Y-84068000D01*
X151289479Y-84068000D01*
X151247870Y-84253571D01*
X144449000Y-84253571D01*
X144449000Y-83820000D01*
X153830659Y-83820000D01*
X153851975Y-84036422D01*
X153915103Y-84244526D01*
X154017617Y-84436317D01*
X154155577Y-84604423D01*
X154323683Y-84742383D01*
X154515474Y-84844897D01*
X154723578Y-84908025D01*
X154885773Y-84924000D01*
X154994227Y-84924000D01*
X155156422Y-84908025D01*
X155364526Y-84844897D01*
X155556317Y-84742383D01*
X155724423Y-84604423D01*
X155862383Y-84436317D01*
X155964897Y-84244526D01*
X156028025Y-84036422D01*
X156049341Y-83820000D01*
X156028025Y-83603578D01*
X155964897Y-83395474D01*
X155862383Y-83203683D01*
X155724423Y-83035577D01*
X155644517Y-82970000D01*
X156374772Y-82970000D01*
X156374772Y-84670000D01*
X156379676Y-84719793D01*
X156394200Y-84767672D01*
X156417786Y-84811797D01*
X156449527Y-84850473D01*
X156488203Y-84882214D01*
X156532328Y-84905800D01*
X156580207Y-84920324D01*
X156630000Y-84925228D01*
X158330000Y-84925228D01*
X158379793Y-84920324D01*
X158427672Y-84905800D01*
X158471797Y-84882214D01*
X158510473Y-84850473D01*
X158542214Y-84811797D01*
X158565800Y-84767672D01*
X158580324Y-84719793D01*
X158585228Y-84670000D01*
X158585228Y-83820000D01*
X163990659Y-83820000D01*
X164011975Y-84036422D01*
X164075103Y-84244526D01*
X164177617Y-84436317D01*
X164315577Y-84604423D01*
X164483683Y-84742383D01*
X164675474Y-84844897D01*
X164883578Y-84908025D01*
X165045773Y-84924000D01*
X165154227Y-84924000D01*
X165316422Y-84908025D01*
X165524526Y-84844897D01*
X165716317Y-84742383D01*
X165884423Y-84604423D01*
X166022383Y-84436317D01*
X166124897Y-84244526D01*
X166157520Y-84136980D01*
X166450511Y-84136980D01*
X166474866Y-84217288D01*
X166574761Y-84436961D01*
X166715592Y-84632924D01*
X166891948Y-84797647D01*
X167097051Y-84924799D01*
X167323019Y-85009495D01*
X167513000Y-84949187D01*
X167513000Y-83947000D01*
X167767000Y-83947000D01*
X167767000Y-84949187D01*
X167956981Y-85009495D01*
X168182949Y-84924799D01*
X168388052Y-84797647D01*
X168564408Y-84632924D01*
X168705239Y-84436961D01*
X168805134Y-84217288D01*
X168829489Y-84136980D01*
X168768627Y-83947000D01*
X167767000Y-83947000D01*
X167513000Y-83947000D01*
X166511373Y-83947000D01*
X166450511Y-84136980D01*
X166157520Y-84136980D01*
X166188025Y-84036422D01*
X166209341Y-83820000D01*
X166188025Y-83603578D01*
X166157521Y-83503020D01*
X166450511Y-83503020D01*
X166511373Y-83693000D01*
X167513000Y-83693000D01*
X167513000Y-82690813D01*
X167767000Y-82690813D01*
X167767000Y-83693000D01*
X168768627Y-83693000D01*
X168829489Y-83503020D01*
X168805134Y-83422712D01*
X168705239Y-83203039D01*
X168564408Y-83007076D01*
X168388052Y-82842353D01*
X168182949Y-82715201D01*
X167956981Y-82630505D01*
X167767000Y-82690813D01*
X167513000Y-82690813D01*
X167323019Y-82630505D01*
X167097051Y-82715201D01*
X166891948Y-82842353D01*
X166715592Y-83007076D01*
X166574761Y-83203039D01*
X166474866Y-83422712D01*
X166450511Y-83503020D01*
X166157521Y-83503020D01*
X166124897Y-83395474D01*
X166022383Y-83203683D01*
X165884423Y-83035577D01*
X165716317Y-82897617D01*
X165524526Y-82795103D01*
X165316422Y-82731975D01*
X165154227Y-82716000D01*
X165045773Y-82716000D01*
X164883578Y-82731975D01*
X164675474Y-82795103D01*
X164483683Y-82897617D01*
X164315577Y-83035577D01*
X164177617Y-83203683D01*
X164075103Y-83395474D01*
X164011975Y-83603578D01*
X163990659Y-83820000D01*
X158585228Y-83820000D01*
X158585228Y-82970000D01*
X158580324Y-82920207D01*
X158565800Y-82872328D01*
X158542214Y-82828203D01*
X158510473Y-82789527D01*
X158471797Y-82757786D01*
X158427672Y-82734200D01*
X158379793Y-82719676D01*
X158330000Y-82714772D01*
X156630000Y-82714772D01*
X156580207Y-82719676D01*
X156532328Y-82734200D01*
X156488203Y-82757786D01*
X156449527Y-82789527D01*
X156417786Y-82828203D01*
X156394200Y-82872328D01*
X156379676Y-82920207D01*
X156374772Y-82970000D01*
X155644517Y-82970000D01*
X155556317Y-82897617D01*
X155364526Y-82795103D01*
X155156422Y-82731975D01*
X154994227Y-82716000D01*
X154885773Y-82716000D01*
X154723578Y-82731975D01*
X154515474Y-82795103D01*
X154323683Y-82897617D01*
X154155577Y-83035577D01*
X154017617Y-83203683D01*
X153915103Y-83395474D01*
X153851975Y-83603578D01*
X153830659Y-83820000D01*
X144449000Y-83820000D01*
X144449000Y-83386429D01*
X151247870Y-83386429D01*
X151289479Y-83572000D01*
X152152000Y-83572000D01*
X152152000Y-82711657D01*
X152648000Y-82711657D01*
X152648000Y-83572000D01*
X153510521Y-83572000D01*
X153552130Y-83386429D01*
X153445407Y-83169991D01*
X153298509Y-82978532D01*
X153117082Y-82819410D01*
X152908098Y-82698740D01*
X152833569Y-82667881D01*
X152648000Y-82711657D01*
X152152000Y-82711657D01*
X151966431Y-82667881D01*
X151891902Y-82698740D01*
X151682918Y-82819410D01*
X151501491Y-82978532D01*
X151354593Y-83169991D01*
X151247870Y-83386429D01*
X144449000Y-83386429D01*
X144449000Y-81713571D01*
X151247870Y-81713571D01*
X151354593Y-81930009D01*
X151501491Y-82121468D01*
X151682918Y-82280590D01*
X151891902Y-82401260D01*
X151966431Y-82432119D01*
X152152000Y-82388343D01*
X152152000Y-81528000D01*
X152648000Y-81528000D01*
X152648000Y-82388343D01*
X152833569Y-82432119D01*
X152908098Y-82401260D01*
X153117082Y-82280590D01*
X153298509Y-82121468D01*
X153445407Y-81930009D01*
X153552130Y-81713571D01*
X153510521Y-81528000D01*
X152648000Y-81528000D01*
X152152000Y-81528000D01*
X151289479Y-81528000D01*
X151247870Y-81713571D01*
X144449000Y-81713571D01*
X144449000Y-81280000D01*
X153830659Y-81280000D01*
X153851975Y-81496422D01*
X153915103Y-81704526D01*
X154017617Y-81896317D01*
X154155577Y-82064423D01*
X154323683Y-82202383D01*
X154515474Y-82304897D01*
X154723578Y-82368025D01*
X154885773Y-82384000D01*
X154994227Y-82384000D01*
X155156422Y-82368025D01*
X155364526Y-82304897D01*
X155556317Y-82202383D01*
X155724423Y-82064423D01*
X155862383Y-81896317D01*
X155964897Y-81704526D01*
X156028025Y-81496422D01*
X156049341Y-81280000D01*
X156028025Y-81063578D01*
X155964897Y-80855474D01*
X155862383Y-80663683D01*
X155724423Y-80495577D01*
X155644517Y-80430000D01*
X156374772Y-80430000D01*
X156374772Y-82130000D01*
X156379676Y-82179793D01*
X156394200Y-82227672D01*
X156417786Y-82271797D01*
X156449527Y-82310473D01*
X156488203Y-82342214D01*
X156532328Y-82365800D01*
X156580207Y-82380324D01*
X156630000Y-82385228D01*
X158330000Y-82385228D01*
X158379793Y-82380324D01*
X158427672Y-82365800D01*
X158471797Y-82342214D01*
X158510473Y-82310473D01*
X158542214Y-82271797D01*
X158565800Y-82227672D01*
X158580324Y-82179793D01*
X158585228Y-82130000D01*
X158585228Y-81280000D01*
X163990659Y-81280000D01*
X164011975Y-81496422D01*
X164075103Y-81704526D01*
X164177617Y-81896317D01*
X164315577Y-82064423D01*
X164483683Y-82202383D01*
X164675474Y-82304897D01*
X164883578Y-82368025D01*
X165045773Y-82384000D01*
X165154227Y-82384000D01*
X165316422Y-82368025D01*
X165524526Y-82304897D01*
X165716317Y-82202383D01*
X165884423Y-82064423D01*
X166022383Y-81896317D01*
X166124897Y-81704526D01*
X166188025Y-81496422D01*
X166209341Y-81280000D01*
X166530659Y-81280000D01*
X166551975Y-81496422D01*
X166615103Y-81704526D01*
X166717617Y-81896317D01*
X166855577Y-82064423D01*
X167023683Y-82202383D01*
X167215474Y-82304897D01*
X167423578Y-82368025D01*
X167585773Y-82384000D01*
X167694227Y-82384000D01*
X167856422Y-82368025D01*
X168064526Y-82304897D01*
X168256317Y-82202383D01*
X168424423Y-82064423D01*
X168562383Y-81896317D01*
X168664897Y-81704526D01*
X168728025Y-81496422D01*
X168749341Y-81280000D01*
X168728025Y-81063578D01*
X168664897Y-80855474D01*
X168562383Y-80663683D01*
X168424423Y-80495577D01*
X168256317Y-80357617D01*
X168064526Y-80255103D01*
X167856422Y-80191975D01*
X167694227Y-80176000D01*
X167585773Y-80176000D01*
X167423578Y-80191975D01*
X167215474Y-80255103D01*
X167023683Y-80357617D01*
X166855577Y-80495577D01*
X166717617Y-80663683D01*
X166615103Y-80855474D01*
X166551975Y-81063578D01*
X166530659Y-81280000D01*
X166209341Y-81280000D01*
X166188025Y-81063578D01*
X166124897Y-80855474D01*
X166022383Y-80663683D01*
X165884423Y-80495577D01*
X165716317Y-80357617D01*
X165524526Y-80255103D01*
X165316422Y-80191975D01*
X165154227Y-80176000D01*
X165045773Y-80176000D01*
X164883578Y-80191975D01*
X164675474Y-80255103D01*
X164483683Y-80357617D01*
X164315577Y-80495577D01*
X164177617Y-80663683D01*
X164075103Y-80855474D01*
X164011975Y-81063578D01*
X163990659Y-81280000D01*
X158585228Y-81280000D01*
X158585228Y-80430000D01*
X158580324Y-80380207D01*
X158565800Y-80332328D01*
X158542214Y-80288203D01*
X158510473Y-80249527D01*
X158471797Y-80217786D01*
X158427672Y-80194200D01*
X158379793Y-80179676D01*
X158330000Y-80174772D01*
X156630000Y-80174772D01*
X156580207Y-80179676D01*
X156532328Y-80194200D01*
X156488203Y-80217786D01*
X156449527Y-80249527D01*
X156417786Y-80288203D01*
X156394200Y-80332328D01*
X156379676Y-80380207D01*
X156374772Y-80430000D01*
X155644517Y-80430000D01*
X155556317Y-80357617D01*
X155364526Y-80255103D01*
X155156422Y-80191975D01*
X154994227Y-80176000D01*
X154885773Y-80176000D01*
X154723578Y-80191975D01*
X154515474Y-80255103D01*
X154323683Y-80357617D01*
X154155577Y-80495577D01*
X154017617Y-80663683D01*
X153915103Y-80855474D01*
X153851975Y-81063578D01*
X153830659Y-81280000D01*
X144449000Y-81280000D01*
X144449000Y-80846429D01*
X151247870Y-80846429D01*
X151289479Y-81032000D01*
X152152000Y-81032000D01*
X152152000Y-80171657D01*
X152648000Y-80171657D01*
X152648000Y-81032000D01*
X153510521Y-81032000D01*
X153552130Y-80846429D01*
X153445407Y-80629991D01*
X153298509Y-80438532D01*
X153117082Y-80279410D01*
X152908098Y-80158740D01*
X152833569Y-80127881D01*
X152648000Y-80171657D01*
X152152000Y-80171657D01*
X151966431Y-80127881D01*
X151891902Y-80158740D01*
X151682918Y-80279410D01*
X151501491Y-80438532D01*
X151354593Y-80629991D01*
X151247870Y-80846429D01*
X144449000Y-80846429D01*
X144449000Y-79173571D01*
X151247870Y-79173571D01*
X151354593Y-79390009D01*
X151501491Y-79581468D01*
X151682918Y-79740590D01*
X151891902Y-79861260D01*
X151966431Y-79892119D01*
X152152000Y-79848343D01*
X152152000Y-78988000D01*
X152648000Y-78988000D01*
X152648000Y-79848343D01*
X152833569Y-79892119D01*
X152908098Y-79861260D01*
X153117082Y-79740590D01*
X153298509Y-79581468D01*
X153445407Y-79390009D01*
X153552130Y-79173571D01*
X153510521Y-78988000D01*
X152648000Y-78988000D01*
X152152000Y-78988000D01*
X151289479Y-78988000D01*
X151247870Y-79173571D01*
X144449000Y-79173571D01*
X144449000Y-78740000D01*
X153830659Y-78740000D01*
X153851975Y-78956422D01*
X153915103Y-79164526D01*
X154017617Y-79356317D01*
X154155577Y-79524423D01*
X154323683Y-79662383D01*
X154515474Y-79764897D01*
X154723578Y-79828025D01*
X154885773Y-79844000D01*
X154994227Y-79844000D01*
X155156422Y-79828025D01*
X155364526Y-79764897D01*
X155556317Y-79662383D01*
X155724423Y-79524423D01*
X155862383Y-79356317D01*
X155964897Y-79164526D01*
X156028025Y-78956422D01*
X156049341Y-78740000D01*
X156028025Y-78523578D01*
X155964897Y-78315474D01*
X155862383Y-78123683D01*
X155724423Y-77955577D01*
X155644517Y-77890000D01*
X156374772Y-77890000D01*
X156374772Y-79590000D01*
X156379676Y-79639793D01*
X156394200Y-79687672D01*
X156417786Y-79731797D01*
X156449527Y-79770473D01*
X156488203Y-79802214D01*
X156532328Y-79825800D01*
X156580207Y-79840324D01*
X156630000Y-79845228D01*
X158330000Y-79845228D01*
X158379793Y-79840324D01*
X158427672Y-79825800D01*
X158471797Y-79802214D01*
X158510473Y-79770473D01*
X158542214Y-79731797D01*
X158565800Y-79687672D01*
X158580324Y-79639793D01*
X158585228Y-79590000D01*
X158585228Y-79056980D01*
X163910511Y-79056980D01*
X163934866Y-79137288D01*
X164034761Y-79356961D01*
X164175592Y-79552924D01*
X164351948Y-79717647D01*
X164557051Y-79844799D01*
X164783019Y-79929495D01*
X164973000Y-79869187D01*
X164973000Y-78867000D01*
X165227000Y-78867000D01*
X165227000Y-79869187D01*
X165416981Y-79929495D01*
X165642949Y-79844799D01*
X165848052Y-79717647D01*
X166024408Y-79552924D01*
X166165239Y-79356961D01*
X166265134Y-79137288D01*
X166289489Y-79056980D01*
X166228627Y-78867000D01*
X165227000Y-78867000D01*
X164973000Y-78867000D01*
X163971373Y-78867000D01*
X163910511Y-79056980D01*
X158585228Y-79056980D01*
X158585228Y-78740000D01*
X166530659Y-78740000D01*
X166551975Y-78956422D01*
X166615103Y-79164526D01*
X166717617Y-79356317D01*
X166855577Y-79524423D01*
X167023683Y-79662383D01*
X167215474Y-79764897D01*
X167423578Y-79828025D01*
X167585773Y-79844000D01*
X167694227Y-79844000D01*
X167856422Y-79828025D01*
X168064526Y-79764897D01*
X168256317Y-79662383D01*
X168424423Y-79524423D01*
X168562383Y-79356317D01*
X168664897Y-79164526D01*
X168728025Y-78956422D01*
X168749341Y-78740000D01*
X168728025Y-78523578D01*
X168664897Y-78315474D01*
X168562383Y-78123683D01*
X168424423Y-77955577D01*
X168256317Y-77817617D01*
X168064526Y-77715103D01*
X167856422Y-77651975D01*
X167694227Y-77636000D01*
X167585773Y-77636000D01*
X167423578Y-77651975D01*
X167215474Y-77715103D01*
X167023683Y-77817617D01*
X166855577Y-77955577D01*
X166717617Y-78123683D01*
X166615103Y-78315474D01*
X166551975Y-78523578D01*
X166530659Y-78740000D01*
X158585228Y-78740000D01*
X158585228Y-78423020D01*
X163910511Y-78423020D01*
X163971373Y-78613000D01*
X164973000Y-78613000D01*
X164973000Y-77610813D01*
X165227000Y-77610813D01*
X165227000Y-78613000D01*
X166228627Y-78613000D01*
X166289489Y-78423020D01*
X166265134Y-78342712D01*
X166165239Y-78123039D01*
X166024408Y-77927076D01*
X165848052Y-77762353D01*
X165642949Y-77635201D01*
X165416981Y-77550505D01*
X165227000Y-77610813D01*
X164973000Y-77610813D01*
X164783019Y-77550505D01*
X164557051Y-77635201D01*
X164351948Y-77762353D01*
X164175592Y-77927076D01*
X164034761Y-78123039D01*
X163934866Y-78342712D01*
X163910511Y-78423020D01*
X158585228Y-78423020D01*
X158585228Y-77890000D01*
X158580324Y-77840207D01*
X158565800Y-77792328D01*
X158542214Y-77748203D01*
X158510473Y-77709527D01*
X158471797Y-77677786D01*
X158427672Y-77654200D01*
X158379793Y-77639676D01*
X158330000Y-77634772D01*
X156630000Y-77634772D01*
X156580207Y-77639676D01*
X156532328Y-77654200D01*
X156488203Y-77677786D01*
X156449527Y-77709527D01*
X156417786Y-77748203D01*
X156394200Y-77792328D01*
X156379676Y-77840207D01*
X156374772Y-77890000D01*
X155644517Y-77890000D01*
X155556317Y-77817617D01*
X155364526Y-77715103D01*
X155156422Y-77651975D01*
X154994227Y-77636000D01*
X154885773Y-77636000D01*
X154723578Y-77651975D01*
X154515474Y-77715103D01*
X154323683Y-77817617D01*
X154155577Y-77955577D01*
X154017617Y-78123683D01*
X153915103Y-78315474D01*
X153851975Y-78523578D01*
X153830659Y-78740000D01*
X144449000Y-78740000D01*
X144449000Y-78306429D01*
X151247870Y-78306429D01*
X151289479Y-78492000D01*
X152152000Y-78492000D01*
X152152000Y-77631657D01*
X152648000Y-77631657D01*
X152648000Y-78492000D01*
X153510521Y-78492000D01*
X153552130Y-78306429D01*
X153445407Y-78089991D01*
X153298509Y-77898532D01*
X153117082Y-77739410D01*
X152908098Y-77618740D01*
X152833569Y-77587881D01*
X152648000Y-77631657D01*
X152152000Y-77631657D01*
X151966431Y-77587881D01*
X151891902Y-77618740D01*
X151682918Y-77739410D01*
X151501491Y-77898532D01*
X151354593Y-78089991D01*
X151247870Y-78306429D01*
X144449000Y-78306429D01*
X144449000Y-76200000D01*
X163990659Y-76200000D01*
X164011975Y-76416422D01*
X164075103Y-76624526D01*
X164177617Y-76816317D01*
X164315577Y-76984423D01*
X164483683Y-77122383D01*
X164675474Y-77224897D01*
X164883578Y-77288025D01*
X165045773Y-77304000D01*
X165154227Y-77304000D01*
X165316422Y-77288025D01*
X165524526Y-77224897D01*
X165716317Y-77122383D01*
X165884423Y-76984423D01*
X166022383Y-76816317D01*
X166124897Y-76624526D01*
X166188025Y-76416422D01*
X166209341Y-76200000D01*
X166530659Y-76200000D01*
X166551975Y-76416422D01*
X166615103Y-76624526D01*
X166717617Y-76816317D01*
X166855577Y-76984423D01*
X167023683Y-77122383D01*
X167215474Y-77224897D01*
X167423578Y-77288025D01*
X167585773Y-77304000D01*
X167694227Y-77304000D01*
X167856422Y-77288025D01*
X168064526Y-77224897D01*
X168256317Y-77122383D01*
X168424423Y-76984423D01*
X168562383Y-76816317D01*
X168664897Y-76624526D01*
X168728025Y-76416422D01*
X168749341Y-76200000D01*
X168728025Y-75983578D01*
X168664897Y-75775474D01*
X168562383Y-75583683D01*
X168424423Y-75415577D01*
X168256317Y-75277617D01*
X168064526Y-75175103D01*
X167856422Y-75111975D01*
X167694227Y-75096000D01*
X167585773Y-75096000D01*
X167423578Y-75111975D01*
X167215474Y-75175103D01*
X167023683Y-75277617D01*
X166855577Y-75415577D01*
X166717617Y-75583683D01*
X166615103Y-75775474D01*
X166551975Y-75983578D01*
X166530659Y-76200000D01*
X166209341Y-76200000D01*
X166188025Y-75983578D01*
X166124897Y-75775474D01*
X166022383Y-75583683D01*
X165884423Y-75415577D01*
X165716317Y-75277617D01*
X165524526Y-75175103D01*
X165316422Y-75111975D01*
X165154227Y-75096000D01*
X165045773Y-75096000D01*
X164883578Y-75111975D01*
X164675474Y-75175103D01*
X164483683Y-75277617D01*
X164315577Y-75415577D01*
X164177617Y-75583683D01*
X164075103Y-75775474D01*
X164011975Y-75983578D01*
X163990659Y-76200000D01*
X144449000Y-76200000D01*
X144449000Y-74093571D01*
X151247870Y-74093571D01*
X151354593Y-74310009D01*
X151501491Y-74501468D01*
X151682918Y-74660590D01*
X151891902Y-74781260D01*
X151966431Y-74812119D01*
X152152000Y-74768343D01*
X152152000Y-73908000D01*
X152648000Y-73908000D01*
X152648000Y-74768343D01*
X152833569Y-74812119D01*
X152908098Y-74781260D01*
X153117082Y-74660590D01*
X153298509Y-74501468D01*
X153445407Y-74310009D01*
X153552130Y-74093571D01*
X153510521Y-73908000D01*
X152648000Y-73908000D01*
X152152000Y-73908000D01*
X151289479Y-73908000D01*
X151247870Y-74093571D01*
X144449000Y-74093571D01*
X144449000Y-73660000D01*
X153830659Y-73660000D01*
X153851975Y-73876422D01*
X153915103Y-74084526D01*
X154017617Y-74276317D01*
X154155577Y-74444423D01*
X154323683Y-74582383D01*
X154515474Y-74684897D01*
X154723578Y-74748025D01*
X154885773Y-74764000D01*
X154994227Y-74764000D01*
X155156422Y-74748025D01*
X155364526Y-74684897D01*
X155556317Y-74582383D01*
X155724423Y-74444423D01*
X155862383Y-74276317D01*
X155964897Y-74084526D01*
X156028025Y-73876422D01*
X156049341Y-73660000D01*
X156028025Y-73443578D01*
X155964897Y-73235474D01*
X155862383Y-73043683D01*
X155724423Y-72875577D01*
X155644517Y-72810000D01*
X156374772Y-72810000D01*
X156374772Y-74510000D01*
X156379676Y-74559793D01*
X156394200Y-74607672D01*
X156417786Y-74651797D01*
X156449527Y-74690473D01*
X156488203Y-74722214D01*
X156532328Y-74745800D01*
X156580207Y-74760324D01*
X156630000Y-74765228D01*
X158330000Y-74765228D01*
X158379793Y-74760324D01*
X158427672Y-74745800D01*
X158471797Y-74722214D01*
X158510473Y-74690473D01*
X158542214Y-74651797D01*
X158565800Y-74607672D01*
X158580324Y-74559793D01*
X158585228Y-74510000D01*
X158585228Y-73660000D01*
X163990659Y-73660000D01*
X164011975Y-73876422D01*
X164075103Y-74084526D01*
X164177617Y-74276317D01*
X164315577Y-74444423D01*
X164483683Y-74582383D01*
X164675474Y-74684897D01*
X164883578Y-74748025D01*
X165045773Y-74764000D01*
X165154227Y-74764000D01*
X165316422Y-74748025D01*
X165524526Y-74684897D01*
X165716317Y-74582383D01*
X165884423Y-74444423D01*
X166022383Y-74276317D01*
X166124897Y-74084526D01*
X166157520Y-73976980D01*
X166450511Y-73976980D01*
X166474866Y-74057288D01*
X166574761Y-74276961D01*
X166715592Y-74472924D01*
X166891948Y-74637647D01*
X167097051Y-74764799D01*
X167323019Y-74849495D01*
X167513000Y-74789187D01*
X167513000Y-73787000D01*
X167767000Y-73787000D01*
X167767000Y-74789187D01*
X167956981Y-74849495D01*
X168182949Y-74764799D01*
X168388052Y-74637647D01*
X168564408Y-74472924D01*
X168705239Y-74276961D01*
X168805134Y-74057288D01*
X168829489Y-73976980D01*
X168768627Y-73787000D01*
X167767000Y-73787000D01*
X167513000Y-73787000D01*
X166511373Y-73787000D01*
X166450511Y-73976980D01*
X166157520Y-73976980D01*
X166188025Y-73876422D01*
X166209341Y-73660000D01*
X166188025Y-73443578D01*
X166157521Y-73343020D01*
X166450511Y-73343020D01*
X166511373Y-73533000D01*
X167513000Y-73533000D01*
X167513000Y-72530813D01*
X167767000Y-72530813D01*
X167767000Y-73533000D01*
X168768627Y-73533000D01*
X168829489Y-73343020D01*
X168805134Y-73262712D01*
X168705239Y-73043039D01*
X168564408Y-72847076D01*
X168388052Y-72682353D01*
X168182949Y-72555201D01*
X167956981Y-72470505D01*
X167767000Y-72530813D01*
X167513000Y-72530813D01*
X167323019Y-72470505D01*
X167097051Y-72555201D01*
X166891948Y-72682353D01*
X166715592Y-72847076D01*
X166574761Y-73043039D01*
X166474866Y-73262712D01*
X166450511Y-73343020D01*
X166157521Y-73343020D01*
X166124897Y-73235474D01*
X166022383Y-73043683D01*
X165884423Y-72875577D01*
X165716317Y-72737617D01*
X165524526Y-72635103D01*
X165316422Y-72571975D01*
X165154227Y-72556000D01*
X165045773Y-72556000D01*
X164883578Y-72571975D01*
X164675474Y-72635103D01*
X164483683Y-72737617D01*
X164315577Y-72875577D01*
X164177617Y-73043683D01*
X164075103Y-73235474D01*
X164011975Y-73443578D01*
X163990659Y-73660000D01*
X158585228Y-73660000D01*
X158585228Y-72810000D01*
X158580324Y-72760207D01*
X158565800Y-72712328D01*
X158542214Y-72668203D01*
X158510473Y-72629527D01*
X158471797Y-72597786D01*
X158427672Y-72574200D01*
X158379793Y-72559676D01*
X158330000Y-72554772D01*
X156630000Y-72554772D01*
X156580207Y-72559676D01*
X156532328Y-72574200D01*
X156488203Y-72597786D01*
X156449527Y-72629527D01*
X156417786Y-72668203D01*
X156394200Y-72712328D01*
X156379676Y-72760207D01*
X156374772Y-72810000D01*
X155644517Y-72810000D01*
X155556317Y-72737617D01*
X155364526Y-72635103D01*
X155156422Y-72571975D01*
X154994227Y-72556000D01*
X154885773Y-72556000D01*
X154723578Y-72571975D01*
X154515474Y-72635103D01*
X154323683Y-72737617D01*
X154155577Y-72875577D01*
X154017617Y-73043683D01*
X153915103Y-73235474D01*
X153851975Y-73443578D01*
X153830659Y-73660000D01*
X144449000Y-73660000D01*
X144449000Y-73226429D01*
X151247870Y-73226429D01*
X151289479Y-73412000D01*
X152152000Y-73412000D01*
X152152000Y-72551657D01*
X152648000Y-72551657D01*
X152648000Y-73412000D01*
X153510521Y-73412000D01*
X153552130Y-73226429D01*
X153445407Y-73009991D01*
X153298509Y-72818532D01*
X153117082Y-72659410D01*
X152908098Y-72538740D01*
X152833569Y-72507881D01*
X152648000Y-72551657D01*
X152152000Y-72551657D01*
X151966431Y-72507881D01*
X151891902Y-72538740D01*
X151682918Y-72659410D01*
X151501491Y-72818532D01*
X151354593Y-73009991D01*
X151247870Y-73226429D01*
X144449000Y-73226429D01*
X144449000Y-71553571D01*
X151247870Y-71553571D01*
X151354593Y-71770009D01*
X151501491Y-71961468D01*
X151682918Y-72120590D01*
X151891902Y-72241260D01*
X151966431Y-72272119D01*
X152152000Y-72228343D01*
X152152000Y-71368000D01*
X152648000Y-71368000D01*
X152648000Y-72228343D01*
X152833569Y-72272119D01*
X152908098Y-72241260D01*
X153117082Y-72120590D01*
X153298509Y-71961468D01*
X153445407Y-71770009D01*
X153552130Y-71553571D01*
X153510521Y-71368000D01*
X152648000Y-71368000D01*
X152152000Y-71368000D01*
X151289479Y-71368000D01*
X151247870Y-71553571D01*
X144449000Y-71553571D01*
X144449000Y-71120000D01*
X153830659Y-71120000D01*
X153851975Y-71336422D01*
X153915103Y-71544526D01*
X154017617Y-71736317D01*
X154155577Y-71904423D01*
X154323683Y-72042383D01*
X154515474Y-72144897D01*
X154723578Y-72208025D01*
X154885773Y-72224000D01*
X154994227Y-72224000D01*
X155156422Y-72208025D01*
X155364526Y-72144897D01*
X155556317Y-72042383D01*
X155724423Y-71904423D01*
X155862383Y-71736317D01*
X155964897Y-71544526D01*
X156028025Y-71336422D01*
X156049341Y-71120000D01*
X156028025Y-70903578D01*
X155964897Y-70695474D01*
X155862383Y-70503683D01*
X155724423Y-70335577D01*
X155644517Y-70270000D01*
X156374772Y-70270000D01*
X156374772Y-71970000D01*
X156379676Y-72019793D01*
X156394200Y-72067672D01*
X156417786Y-72111797D01*
X156449527Y-72150473D01*
X156488203Y-72182214D01*
X156532328Y-72205800D01*
X156580207Y-72220324D01*
X156630000Y-72225228D01*
X158330000Y-72225228D01*
X158379793Y-72220324D01*
X158427672Y-72205800D01*
X158471797Y-72182214D01*
X158510473Y-72150473D01*
X158542214Y-72111797D01*
X158565800Y-72067672D01*
X158580324Y-72019793D01*
X158585228Y-71970000D01*
X158585228Y-71120000D01*
X163990659Y-71120000D01*
X164011975Y-71336422D01*
X164075103Y-71544526D01*
X164177617Y-71736317D01*
X164315577Y-71904423D01*
X164483683Y-72042383D01*
X164675474Y-72144897D01*
X164883578Y-72208025D01*
X165045773Y-72224000D01*
X165154227Y-72224000D01*
X165316422Y-72208025D01*
X165524526Y-72144897D01*
X165716317Y-72042383D01*
X165884423Y-71904423D01*
X166022383Y-71736317D01*
X166124897Y-71544526D01*
X166188025Y-71336422D01*
X166209341Y-71120000D01*
X166530659Y-71120000D01*
X166551975Y-71336422D01*
X166615103Y-71544526D01*
X166717617Y-71736317D01*
X166855577Y-71904423D01*
X167023683Y-72042383D01*
X167215474Y-72144897D01*
X167423578Y-72208025D01*
X167585773Y-72224000D01*
X167694227Y-72224000D01*
X167856422Y-72208025D01*
X168064526Y-72144897D01*
X168256317Y-72042383D01*
X168424423Y-71904423D01*
X168562383Y-71736317D01*
X168664897Y-71544526D01*
X168728025Y-71336422D01*
X168749341Y-71120000D01*
X168728025Y-70903578D01*
X168664897Y-70695474D01*
X168562383Y-70503683D01*
X168424423Y-70335577D01*
X168256317Y-70197617D01*
X168064526Y-70095103D01*
X167856422Y-70031975D01*
X167694227Y-70016000D01*
X167585773Y-70016000D01*
X167423578Y-70031975D01*
X167215474Y-70095103D01*
X167023683Y-70197617D01*
X166855577Y-70335577D01*
X166717617Y-70503683D01*
X166615103Y-70695474D01*
X166551975Y-70903578D01*
X166530659Y-71120000D01*
X166209341Y-71120000D01*
X166188025Y-70903578D01*
X166124897Y-70695474D01*
X166022383Y-70503683D01*
X165884423Y-70335577D01*
X165716317Y-70197617D01*
X165524526Y-70095103D01*
X165316422Y-70031975D01*
X165154227Y-70016000D01*
X165045773Y-70016000D01*
X164883578Y-70031975D01*
X164675474Y-70095103D01*
X164483683Y-70197617D01*
X164315577Y-70335577D01*
X164177617Y-70503683D01*
X164075103Y-70695474D01*
X164011975Y-70903578D01*
X163990659Y-71120000D01*
X158585228Y-71120000D01*
X158585228Y-70270000D01*
X158580324Y-70220207D01*
X158565800Y-70172328D01*
X158542214Y-70128203D01*
X158510473Y-70089527D01*
X158471797Y-70057786D01*
X158427672Y-70034200D01*
X158379793Y-70019676D01*
X158330000Y-70014772D01*
X156630000Y-70014772D01*
X156580207Y-70019676D01*
X156532328Y-70034200D01*
X156488203Y-70057786D01*
X156449527Y-70089527D01*
X156417786Y-70128203D01*
X156394200Y-70172328D01*
X156379676Y-70220207D01*
X156374772Y-70270000D01*
X155644517Y-70270000D01*
X155556317Y-70197617D01*
X155364526Y-70095103D01*
X155156422Y-70031975D01*
X154994227Y-70016000D01*
X154885773Y-70016000D01*
X154723578Y-70031975D01*
X154515474Y-70095103D01*
X154323683Y-70197617D01*
X154155577Y-70335577D01*
X154017617Y-70503683D01*
X153915103Y-70695474D01*
X153851975Y-70903578D01*
X153830659Y-71120000D01*
X144449000Y-71120000D01*
X144449000Y-70686429D01*
X151247870Y-70686429D01*
X151289479Y-70872000D01*
X152152000Y-70872000D01*
X152152000Y-70011657D01*
X152648000Y-70011657D01*
X152648000Y-70872000D01*
X153510521Y-70872000D01*
X153552130Y-70686429D01*
X153445407Y-70469991D01*
X153298509Y-70278532D01*
X153117082Y-70119410D01*
X152908098Y-69998740D01*
X152833569Y-69967881D01*
X152648000Y-70011657D01*
X152152000Y-70011657D01*
X151966431Y-69967881D01*
X151891902Y-69998740D01*
X151682918Y-70119410D01*
X151501491Y-70278532D01*
X151354593Y-70469991D01*
X151247870Y-70686429D01*
X144449000Y-70686429D01*
X144449000Y-69013571D01*
X151247870Y-69013571D01*
X151354593Y-69230009D01*
X151501491Y-69421468D01*
X151682918Y-69580590D01*
X151891902Y-69701260D01*
X151966431Y-69732119D01*
X152152000Y-69688343D01*
X152152000Y-68828000D01*
X152648000Y-68828000D01*
X152648000Y-69688343D01*
X152833569Y-69732119D01*
X152908098Y-69701260D01*
X153117082Y-69580590D01*
X153298509Y-69421468D01*
X153445407Y-69230009D01*
X153552130Y-69013571D01*
X153510521Y-68828000D01*
X152648000Y-68828000D01*
X152152000Y-68828000D01*
X151289479Y-68828000D01*
X151247870Y-69013571D01*
X144449000Y-69013571D01*
X144449000Y-68580000D01*
X153830659Y-68580000D01*
X153851975Y-68796422D01*
X153915103Y-69004526D01*
X154017617Y-69196317D01*
X154155577Y-69364423D01*
X154323683Y-69502383D01*
X154515474Y-69604897D01*
X154723578Y-69668025D01*
X154885773Y-69684000D01*
X154994227Y-69684000D01*
X155156422Y-69668025D01*
X155364526Y-69604897D01*
X155556317Y-69502383D01*
X155724423Y-69364423D01*
X155862383Y-69196317D01*
X155964897Y-69004526D01*
X156028025Y-68796422D01*
X156049341Y-68580000D01*
X156028025Y-68363578D01*
X155964897Y-68155474D01*
X155862383Y-67963683D01*
X155724423Y-67795577D01*
X155644517Y-67730000D01*
X156374772Y-67730000D01*
X156374772Y-69430000D01*
X156379676Y-69479793D01*
X156394200Y-69527672D01*
X156417786Y-69571797D01*
X156449527Y-69610473D01*
X156488203Y-69642214D01*
X156532328Y-69665800D01*
X156580207Y-69680324D01*
X156630000Y-69685228D01*
X158330000Y-69685228D01*
X158379793Y-69680324D01*
X158427672Y-69665800D01*
X158471797Y-69642214D01*
X158510473Y-69610473D01*
X158542214Y-69571797D01*
X158565800Y-69527672D01*
X158580324Y-69479793D01*
X158585228Y-69430000D01*
X158585228Y-67730000D01*
X163994772Y-67730000D01*
X163994772Y-69430000D01*
X163999676Y-69479793D01*
X164014200Y-69527672D01*
X164037786Y-69571797D01*
X164069527Y-69610473D01*
X164108203Y-69642214D01*
X164152328Y-69665800D01*
X164200207Y-69680324D01*
X164250000Y-69685228D01*
X165950000Y-69685228D01*
X165999793Y-69680324D01*
X166047672Y-69665800D01*
X166091797Y-69642214D01*
X166130473Y-69610473D01*
X166162214Y-69571797D01*
X166185800Y-69527672D01*
X166200324Y-69479793D01*
X166205228Y-69430000D01*
X166205228Y-68580000D01*
X166407064Y-68580000D01*
X166430755Y-68820534D01*
X166500916Y-69051824D01*
X166614851Y-69264983D01*
X166768183Y-69451817D01*
X166955017Y-69605149D01*
X167168176Y-69719084D01*
X167399466Y-69789245D01*
X167579732Y-69807000D01*
X167700268Y-69807000D01*
X167880534Y-69789245D01*
X168111824Y-69719084D01*
X168324983Y-69605149D01*
X168511817Y-69451817D01*
X168665149Y-69264983D01*
X168779084Y-69051824D01*
X168849245Y-68820534D01*
X168872936Y-68580000D01*
X168849245Y-68339466D01*
X168779084Y-68108176D01*
X168665149Y-67895017D01*
X168511817Y-67708183D01*
X168324983Y-67554851D01*
X168111824Y-67440916D01*
X167880534Y-67370755D01*
X167700268Y-67353000D01*
X167579732Y-67353000D01*
X167399466Y-67370755D01*
X167168176Y-67440916D01*
X166955017Y-67554851D01*
X166768183Y-67708183D01*
X166614851Y-67895017D01*
X166500916Y-68108176D01*
X166430755Y-68339466D01*
X166407064Y-68580000D01*
X166205228Y-68580000D01*
X166205228Y-67730000D01*
X166200324Y-67680207D01*
X166185800Y-67632328D01*
X166162214Y-67588203D01*
X166130473Y-67549527D01*
X166091797Y-67517786D01*
X166047672Y-67494200D01*
X165999793Y-67479676D01*
X165950000Y-67474772D01*
X164250000Y-67474772D01*
X164200207Y-67479676D01*
X164152328Y-67494200D01*
X164108203Y-67517786D01*
X164069527Y-67549527D01*
X164037786Y-67588203D01*
X164014200Y-67632328D01*
X163999676Y-67680207D01*
X163994772Y-67730000D01*
X158585228Y-67730000D01*
X158580324Y-67680207D01*
X158565800Y-67632328D01*
X158542214Y-67588203D01*
X158510473Y-67549527D01*
X158471797Y-67517786D01*
X158427672Y-67494200D01*
X158379793Y-67479676D01*
X158330000Y-67474772D01*
X156630000Y-67474772D01*
X156580207Y-67479676D01*
X156532328Y-67494200D01*
X156488203Y-67517786D01*
X156449527Y-67549527D01*
X156417786Y-67588203D01*
X156394200Y-67632328D01*
X156379676Y-67680207D01*
X156374772Y-67730000D01*
X155644517Y-67730000D01*
X155556317Y-67657617D01*
X155364526Y-67555103D01*
X155156422Y-67491975D01*
X154994227Y-67476000D01*
X154885773Y-67476000D01*
X154723578Y-67491975D01*
X154515474Y-67555103D01*
X154323683Y-67657617D01*
X154155577Y-67795577D01*
X154017617Y-67963683D01*
X153915103Y-68155474D01*
X153851975Y-68363578D01*
X153830659Y-68580000D01*
X144449000Y-68580000D01*
X144449000Y-68146429D01*
X151247870Y-68146429D01*
X151289479Y-68332000D01*
X152152000Y-68332000D01*
X152152000Y-67471657D01*
X152648000Y-67471657D01*
X152648000Y-68332000D01*
X153510521Y-68332000D01*
X153552130Y-68146429D01*
X153445407Y-67929991D01*
X153298509Y-67738532D01*
X153117082Y-67579410D01*
X152908098Y-67458740D01*
X152833569Y-67427881D01*
X152648000Y-67471657D01*
X152152000Y-67471657D01*
X151966431Y-67427881D01*
X151891902Y-67458740D01*
X151682918Y-67579410D01*
X151501491Y-67738532D01*
X151354593Y-67929991D01*
X151247870Y-68146429D01*
X144449000Y-68146429D01*
X144449000Y-64350000D01*
X151167157Y-64350000D01*
X151174513Y-64424689D01*
X151196299Y-64496508D01*
X151231678Y-64562696D01*
X151279289Y-64620711D01*
X151337304Y-64668322D01*
X151403492Y-64703701D01*
X151475311Y-64725487D01*
X151550000Y-64732843D01*
X152031750Y-64731000D01*
X152127000Y-64635750D01*
X152127000Y-63773000D01*
X152673000Y-63773000D01*
X152673000Y-64635750D01*
X152768250Y-64731000D01*
X153250000Y-64732843D01*
X153324689Y-64725487D01*
X153396508Y-64703701D01*
X153462696Y-64668322D01*
X153520711Y-64620711D01*
X153568322Y-64562696D01*
X153603701Y-64496508D01*
X153625487Y-64424689D01*
X153632843Y-64350000D01*
X153631000Y-63868250D01*
X153535750Y-63773000D01*
X152673000Y-63773000D01*
X152127000Y-63773000D01*
X151264250Y-63773000D01*
X151169000Y-63868250D01*
X151167157Y-64350000D01*
X144449000Y-64350000D01*
X144449000Y-63500000D01*
X153830659Y-63500000D01*
X153851975Y-63716422D01*
X153915103Y-63924526D01*
X154017617Y-64116317D01*
X154155577Y-64284423D01*
X154323683Y-64422383D01*
X154515474Y-64524897D01*
X154723578Y-64588025D01*
X154885773Y-64604000D01*
X154994227Y-64604000D01*
X155156422Y-64588025D01*
X155364526Y-64524897D01*
X155556317Y-64422383D01*
X155644516Y-64350000D01*
X163867157Y-64350000D01*
X163874513Y-64424689D01*
X163896299Y-64496508D01*
X163931678Y-64562696D01*
X163979289Y-64620711D01*
X164037304Y-64668322D01*
X164103492Y-64703701D01*
X164175311Y-64725487D01*
X164250000Y-64732843D01*
X164756750Y-64731000D01*
X164852000Y-64635750D01*
X164852000Y-63748000D01*
X165348000Y-63748000D01*
X165348000Y-64635750D01*
X165443250Y-64731000D01*
X165950000Y-64732843D01*
X166024689Y-64725487D01*
X166096508Y-64703701D01*
X166162696Y-64668322D01*
X166220711Y-64620711D01*
X166268322Y-64562696D01*
X166303701Y-64496508D01*
X166325487Y-64424689D01*
X166332843Y-64350000D01*
X166331000Y-63843250D01*
X166235750Y-63748000D01*
X165348000Y-63748000D01*
X164852000Y-63748000D01*
X163964250Y-63748000D01*
X163869000Y-63843250D01*
X163867157Y-64350000D01*
X155644516Y-64350000D01*
X155724423Y-64284423D01*
X155862383Y-64116317D01*
X155964897Y-63924526D01*
X156028025Y-63716422D01*
X156049341Y-63500000D01*
X166407064Y-63500000D01*
X166430755Y-63740534D01*
X166500916Y-63971824D01*
X166614851Y-64184983D01*
X166768183Y-64371817D01*
X166955017Y-64525149D01*
X167168176Y-64639084D01*
X167399466Y-64709245D01*
X167579732Y-64727000D01*
X167700268Y-64727000D01*
X167880534Y-64709245D01*
X168111824Y-64639084D01*
X168324983Y-64525149D01*
X168511817Y-64371817D01*
X168665149Y-64184983D01*
X168779084Y-63971824D01*
X168849245Y-63740534D01*
X168872936Y-63500000D01*
X168849245Y-63259466D01*
X168779084Y-63028176D01*
X168665149Y-62815017D01*
X168511817Y-62628183D01*
X168324983Y-62474851D01*
X168111824Y-62360916D01*
X167880534Y-62290755D01*
X167700268Y-62273000D01*
X167579732Y-62273000D01*
X167399466Y-62290755D01*
X167168176Y-62360916D01*
X166955017Y-62474851D01*
X166768183Y-62628183D01*
X166614851Y-62815017D01*
X166500916Y-63028176D01*
X166430755Y-63259466D01*
X166407064Y-63500000D01*
X156049341Y-63500000D01*
X156028025Y-63283578D01*
X155964897Y-63075474D01*
X155862383Y-62883683D01*
X155724423Y-62715577D01*
X155644517Y-62650000D01*
X163867157Y-62650000D01*
X163869000Y-63156750D01*
X163964250Y-63252000D01*
X164852000Y-63252000D01*
X164852000Y-62364250D01*
X165348000Y-62364250D01*
X165348000Y-63252000D01*
X166235750Y-63252000D01*
X166331000Y-63156750D01*
X166332843Y-62650000D01*
X166325487Y-62575311D01*
X166303701Y-62503492D01*
X166268322Y-62437304D01*
X166220711Y-62379289D01*
X166162696Y-62331678D01*
X166096508Y-62296299D01*
X166024689Y-62274513D01*
X165950000Y-62267157D01*
X165443250Y-62269000D01*
X165348000Y-62364250D01*
X164852000Y-62364250D01*
X164756750Y-62269000D01*
X164250000Y-62267157D01*
X164175311Y-62274513D01*
X164103492Y-62296299D01*
X164037304Y-62331678D01*
X163979289Y-62379289D01*
X163931678Y-62437304D01*
X163896299Y-62503492D01*
X163874513Y-62575311D01*
X163867157Y-62650000D01*
X155644517Y-62650000D01*
X155556317Y-62577617D01*
X155364526Y-62475103D01*
X155156422Y-62411975D01*
X154994227Y-62396000D01*
X154885773Y-62396000D01*
X154723578Y-62411975D01*
X154515474Y-62475103D01*
X154323683Y-62577617D01*
X154155577Y-62715577D01*
X154017617Y-62883683D01*
X153915103Y-63075474D01*
X153851975Y-63283578D01*
X153830659Y-63500000D01*
X144449000Y-63500000D01*
X144449000Y-62650000D01*
X151167157Y-62650000D01*
X151169000Y-63131750D01*
X151264250Y-63227000D01*
X152127000Y-63227000D01*
X152127000Y-62364250D01*
X152673000Y-62364250D01*
X152673000Y-63227000D01*
X153535750Y-63227000D01*
X153631000Y-63131750D01*
X153632843Y-62650000D01*
X153625487Y-62575311D01*
X153603701Y-62503492D01*
X153568322Y-62437304D01*
X153520711Y-62379289D01*
X153462696Y-62331678D01*
X153396508Y-62296299D01*
X153324689Y-62274513D01*
X153250000Y-62267157D01*
X152768250Y-62269000D01*
X152673000Y-62364250D01*
X152127000Y-62364250D01*
X152031750Y-62269000D01*
X151550000Y-62267157D01*
X151475311Y-62274513D01*
X151403492Y-62296299D01*
X151337304Y-62331678D01*
X151279289Y-62379289D01*
X151231678Y-62437304D01*
X151196299Y-62503492D01*
X151174513Y-62575311D01*
X151167157Y-62650000D01*
X144449000Y-62650000D01*
X144449000Y-60945076D01*
X144444600Y-60900406D01*
X144434459Y-60866975D01*
X144444185Y-60767777D01*
X144500012Y-60582870D01*
X144590688Y-60412332D01*
X144712762Y-60262653D01*
X144861590Y-60139532D01*
X145031493Y-60047666D01*
X145215997Y-59990552D01*
X145321864Y-59979425D01*
X145355406Y-59989600D01*
M02*
